0, 0, Header, 1, 2, 256
1, 0, Start_track
1, 0, Time_signature, 4, 2, 24, 8
1, 0, Key_signature, 1, "major"
1, 0, Tempo, 600000
1, 0, Key_signature, 1, "major"
1, 0, Tempo, 600000
1, 0, Tempo, 600000
1, 256, Tempo, 600000
1, 16384, Key_signature, 0, "major"
1, 24576, Key_signature, -1, "major"
1, 32768, Key_signature, -2, "major"
1, 40960, Key_signature, 1, "major"
1, 49152, Key_signature, 0, "major"
1, 57344, Key_signature, -2, "major"
1, 65536, Key_signature, 1, "major"
1, 81920, Key_signature, 0, "major"
1, 90112, Key_signature, -1, "major"
1, 98304, Key_signature, -2, "major"
1, 106496, Key_signature, 1, "major"
1, 114688, Key_signature, 0, "major"
1, 122880, Key_signature, -1, "major"
1, 131072, Key_signature, -2, "major"
1, 139264, Key_signature, 1, "major"
1, 147072, Tempo, 631578
1, 147200, Tempo, 666666
1, 147328, Tempo, 722891
1, 147392, Tempo, 1000000
1, 147393, End_track
2, 0, Start_track
2, 0, Control_c, 0, 121, 0
2, 0, Control_c, 0, 64, 0
2, 0, Control_c, 0, 91, 48
2, 0, Control_c, 0, 10, 70
2, 0, Control_c, 0, 7, 127
2, 0, Program_c, 0, 0
2, 0, Control_c, 1, 121, 0
2, 0, Control_c, 1, 64, 0
2, 0, Control_c, 1, 91, 38
2, 0, Control_c, 1, 10, 50
2, 0, Control_c, 1, 7, 121
2, 0, Program_c, 1, 0
2, 0, Title_t, "Piano"
2, 0, Control_c, 0, 64, 127
2, 0, Control_c, 1, 64, 127
2, 0, Note_on_c, 1, 43, 83
2, 64, Note_on_c, 0, 55, 83
2, 128, Note_on_c, 1, 43, 0
2, 128, Note_on_c, 1, 50, 83
2, 192, Note_on_c, 0, 55, 0
2, 192, Note_on_c, 0, 59, 108
2, 256, Note_on_c, 1, 50, 0
2, 256, Note_on_c, 1, 55, 83
2, 320, Note_on_c, 0, 59, 0
2, 320, Note_on_c, 0, 62, 108
2, 384, Note_on_c, 0, 62, 0
2, 384, Note_on_c, 0, 59, 83
2, 448, Note_on_c, 1, 55, 0
2, 448, Note_on_c, 1, 50, 83
2, 512, Note_on_c, 0, 59, 0
2, 512, Note_on_c, 0, 66, 108
2, 576, Note_on_c, 1, 50, 0
2, 576, Note_on_c, 1, 55, 83
2, 704, Note_on_c, 1, 55, 0
2, 704, Note_on_c, 1, 50, 83
2, 768, Note_on_c, 0, 66, 0
2, 768, Note_on_c, 0, 62, 108
2, 832, Note_on_c, 1, 50, 0
2, 832, Note_on_c, 1, 55, 83
2, 896, Note_on_c, 0, 62, 0
2, 896, Note_on_c, 0, 57, 83
2, 960, Note_on_c, 1, 55, 0
2, 960, Note_on_c, 1, 52, 83
2, 1024, Note_on_c, 1, 52, 0
2, 1024, Note_on_c, 0, 57, 0
2, 1024, Control_c, 0, 64, 0
2, 1024, Control_c, 0, 64, 127
2, 1024, Control_c, 1, 64, 0
2, 1024, Control_c, 1, 64, 127
2, 1024, Note_on_c, 1, 36, 83
2, 1088, Note_on_c, 0, 52, 83
2, 1152, Note_on_c, 1, 36, 0
2, 1152, Note_on_c, 1, 43, 83
2, 1216, Note_on_c, 0, 52, 0
2, 1216, Note_on_c, 0, 55, 83
2, 1280, Note_on_c, 1, 43, 0
2, 1280, Note_on_c, 1, 48, 83
2, 1344, Note_on_c, 0, 55, 0
2, 1344, Note_on_c, 0, 60, 83
2, 1408, Note_on_c, 0, 60, 0
2, 1408, Note_on_c, 0, 55, 83
2, 1472, Note_on_c, 1, 48, 0
2, 1472, Note_on_c, 1, 50, 83
2, 1536, Note_on_c, 1, 50, 0
2, 1536, Note_on_c, 0, 55, 0
2, 1536, Control_c, 0, 64, 0
2, 1536, Control_c, 0, 64, 127
2, 1536, Control_c, 1, 64, 0
2, 1536, Control_c, 1, 64, 127
2, 1536, Note_on_c, 1, 38, 83
2, 1600, Note_on_c, 0, 54, 83
2, 1664, Note_on_c, 1, 38, 0
2, 1664, Note_on_c, 1, 45, 83
2, 1728, Note_on_c, 0, 54, 0
2, 1728, Note_on_c, 0, 54, 83
2, 1792, Note_on_c, 0, 54, 0
2, 1792, Note_on_c, 0, 62, 83
2, 1856, Note_on_c, 1, 45, 0
2, 1856, Note_on_c, 1, 50, 83
2, 1920, Note_on_c, 0, 62, 0
2, 1920, Note_on_c, 0, 54, 83
2, 1984, Note_on_c, 1, 50, 0
2, 1984, Note_on_c, 1, 50, 83
2, 2048, Note_on_c, 1, 50, 0
2, 2048, Note_on_c, 0, 54, 0
2, 2048, Control_c, 0, 64, 0
2, 2048, Control_c, 0, 64, 127
2, 2048, Control_c, 1, 64, 0
2, 2048, Control_c, 1, 64, 127
2, 2048, Note_on_c, 1, 43, 83
2, 2112, Note_on_c, 0, 55, 83
2, 2176, Note_on_c, 1, 43, 0
2, 2176, Note_on_c, 1, 50, 83
2, 2240, Note_on_c, 0, 55, 0
2, 2240, Note_on_c, 0, 62, 108
2, 2304, Note_on_c, 1, 50, 0
2, 2304, Note_on_c, 1, 59, 83
2, 2368, Note_on_c, 0, 62, 0
2, 2368, Note_on_c, 0, 66, 108
2, 2432, Note_on_c, 0, 66, 0
2, 2432, Note_on_c, 0, 62, 83
2, 2496, Note_on_c, 1, 59, 0
2, 2496, Note_on_c, 1, 59, 83
2, 2560, Note_on_c, 0, 62, 0
2, 2560, Note_on_c, 0, 66, 108
2, 2624, Note_on_c, 1, 59, 0
2, 2624, Note_on_c, 1, 55, 83
2, 2752, Note_on_c, 1, 55, 0
2, 2752, Note_on_c, 1, 59, 83
2, 2816, Note_on_c, 0, 66, 0
2, 2816, Note_on_c, 0, 62, 108
2, 2880, Note_on_c, 1, 59, 0
2, 2880, Note_on_c, 1, 59, 83
2, 2944, Note_on_c, 0, 62, 0
2, 2944, Note_on_c, 0, 66, 83
2, 3008, Note_on_c, 1, 59, 0
2, 3008, Note_on_c, 1, 55, 83
2, 3072, Note_on_c, 1, 55, 0
2, 3072, Note_on_c, 0, 66, 0
2, 3072, Control_c, 0, 64, 0
2, 3072, Control_c, 0, 64, 127
2, 3072, Control_c, 1, 64, 0
2, 3072, Control_c, 1, 64, 127
2, 3072, Note_on_c, 1, 48, 83
2, 3136, Note_on_c, 0, 62, 83
2, 3200, Note_on_c, 0, 62, 0
2, 3200, Note_on_c, 0, 67, 83
2, 3264, Note_on_c, 1, 48, 0
2, 3264, Note_on_c, 0, 67, 0
2, 3264, Note_on_c, 0, 71, 83
2, 3264, Note_on_c, 1, 55, 83
2, 3328, Note_on_c, 1, 55, 0
2, 3328, Note_on_c, 0, 71, 0
2, 3328, Note_on_c, 0, 74, 83
2, 3328, Note_on_c, 1, 59, 83
2, 3392, Note_on_c, 0, 74, 0
2, 3392, Note_on_c, 0, 79, 83
2, 3456, Note_on_c, 1, 59, 0
2, 3456, Note_on_c, 0, 79, 0
2, 3456, Note_on_c, 0, 83, 83
2, 3456, Note_on_c, 1, 62, 83
2, 3520, Note_on_c, 1, 62, 0
2, 3520, Note_on_c, 0, 83, 0
2, 3520, Note_on_c, 0, 84, 83
2, 3520, Note_on_c, 1, 50, 83
2, 3584, Note_on_c, 0, 84, 0
2, 3584, Control_c, 0, 64, 0
2, 3584, Control_c, 0, 64, 127
2, 3584, Note_on_c, 0, 83, 83
2, 3584, Control_c, 1, 64, 0
2, 3584, Control_c, 1, 64, 127
2, 3648, Note_on_c, 0, 83, 0
2, 3648, Note_on_c, 0, 81, 83
2, 3712, Note_on_c, 0, 81, 0
2, 3712, Note_on_c, 0, 79, 83
2, 3776, Note_on_c, 1, 50, 0
2, 3776, Note_on_c, 0, 79, 0
2, 3776, Note_on_c, 0, 74, 83
2, 3776, Note_on_c, 1, 62, 83
2, 3840, Note_on_c, 0, 74, 0
2, 3840, Note_on_c, 0, 76, 83
2, 3904, Note_on_c, 0, 76, 0
2, 3904, Note_on_c, 0, 78, 83
2, 3968, Note_on_c, 0, 78, 0
2, 3968, Note_on_c, 0, 79, 83
2, 4032, Note_on_c, 1, 62, 0
2, 4032, Note_on_c, 0, 79, 0
2, 4032, Note_on_c, 0, 74, 83
2, 4032, Note_on_c, 1, 59, 83
2, 4096, Note_on_c, 1, 59, 0
2, 4096, Note_on_c, 0, 74, 0
2, 4096, Control_c, 0, 64, 0
2, 4096, Control_c, 0, 64, 127
2, 4096, Control_c, 1, 64, 0
2, 4096, Control_c, 1, 64, 127
2, 4096, Note_on_c, 1, 43, 83
2, 4160, Note_on_c, 0, 67, 83
2, 4224, Note_on_c, 1, 43, 0
2, 4224, Note_on_c, 1, 50, 83
2, 4288, Note_on_c, 0, 67, 0
2, 4288, Note_on_c, 0, 67, 100
2, 4352, Note_on_c, 1, 50, 0
2, 4352, Note_on_c, 1, 59, 83
2, 4416, Note_on_c, 0, 67, 0
2, 4416, Note_on_c, 0, 74, 100
2, 4480, Note_on_c, 0, 74, 0
2, 4480, Note_on_c, 0, 67, 83
2, 4544, Note_on_c, 1, 59, 0
2, 4544, Note_on_c, 1, 50, 83
2, 4608, Note_on_c, 0, 67, 0
2, 4608, Note_on_c, 0, 78, 100
2, 4672, Note_on_c, 1, 50, 0
2, 4672, Note_on_c, 1, 59, 83
2, 4800, Note_on_c, 1, 59, 0
2, 4800, Note_on_c, 1, 50, 83
2, 4864, Note_on_c, 0, 78, 0
2, 4864, Note_on_c, 0, 74, 100
2, 4928, Note_on_c, 1, 50, 0
2, 4928, Note_on_c, 1, 59, 83
2, 4992, Note_on_c, 0, 74, 0
2, 4992, Note_on_c, 0, 67, 83
2, 5056, Note_on_c, 1, 59, 0
2, 5056, Note_on_c, 1, 48, 83
2, 5120, Note_on_c, 1, 48, 0
2, 5120, Note_on_c, 0, 67, 0
2, 5120, Control_c, 0, 64, 0
2, 5120, Control_c, 0, 64, 127
2, 5120, Control_c, 1, 64, 0
2, 5120, Control_c, 1, 64, 127
2, 5120, Note_on_c, 1, 36, 83
2, 5184, Note_on_c, 1, 36, 0
2, 5184, Note_on_c, 1, 43, 83
2, 5248, Note_on_c, 1, 43, 0
2, 5248, Note_on_c, 1, 48, 83
2, 5312, Note_on_c, 0, 60, 83
2, 5376, Note_on_c, 1, 48, 0
2, 5376, Note_on_c, 1, 57, 83
2, 5440, Note_on_c, 0, 60, 0
2, 5440, Note_on_c, 0, 67, 100
2, 5504, Note_on_c, 0, 67, 0
2, 5504, Note_on_c, 0, 64, 83
2, 5568, Note_on_c, 1, 57, 0
2, 5568, Note_on_c, 1, 57, 83
2, 5632, Note_on_c, 1, 57, 0
2, 5632, Note_on_c, 0, 64, 0
2, 5632, Control_c, 0, 64, 0
2, 5632, Control_c, 0, 64, 127
2, 5632, Control_c, 1, 64, 0
2, 5632, Control_c, 1, 64, 127
2, 5632, Note_on_c, 1, 50, 83
2, 5696, Note_on_c, 0, 62, 83
2, 5760, Note_on_c, 1, 50, 0
2, 5760, Note_on_c, 1, 57, 83
2, 5824, Note_on_c, 0, 62, 0
2, 5824, Note_on_c, 0, 69, 100
2, 5888, Note_on_c, 0, 69, 0
2, 5888, Note_on_c, 0, 66, 83
2, 5952, Note_on_c, 1, 57, 0
2, 5952, Note_on_c, 1, 57, 83
2, 6016, Note_on_c, 0, 66, 0
2, 6016, Note_on_c, 0, 62, 83
2, 6080, Note_on_c, 1, 57, 0
2, 6080, Note_on_c, 1, 55, 83
2, 6144, Note_on_c, 1, 55, 0
2, 6144, Note_on_c, 0, 62, 0
2, 6144, Control_c, 0, 64, 0
2, 6144, Control_c, 0, 64, 127
2, 6144, Control_c, 1, 64, 0
2, 6144, Control_c, 1, 64, 127
2, 6144, Note_on_c, 1, 43, 83
2, 6208, Note_on_c, 0, 55, 83
2, 6272, Note_on_c, 1, 43, 0
2, 6272, Note_on_c, 1, 50, 83
2, 6336, Note_on_c, 0, 55, 0
2, 6336, Note_on_c, 0, 62, 100
2, 6400, Note_on_c, 1, 50, 0
2, 6400, Note_on_c, 1, 55, 83
2, 6464, Note_on_c, 0, 62, 0
2, 6464, Note_on_c, 0, 66, 100
2, 6528, Note_on_c, 0, 66, 0
2, 6528, Note_on_c, 0, 62, 83
2, 6592, Note_on_c, 1, 55, 0
2, 6592, Note_on_c, 1, 50, 83
2, 6656, Note_on_c, 0, 62, 0
2, 6656, Note_on_c, 0, 66, 100
2, 6720, Note_on_c, 1, 50, 0
2, 6720, Note_on_c, 1, 55, 83
2, 6848, Note_on_c, 1, 55, 0
2, 6848, Note_on_c, 1, 50, 83
2, 6912, Note_on_c, 0, 66, 0
2, 6912, Note_on_c, 0, 62, 100
2, 6976, Note_on_c, 1, 50, 0
2, 6976, Note_on_c, 1, 55, 83
2, 7040, Note_on_c, 0, 62, 0
2, 7040, Note_on_c, 0, 66, 83
2, 7104, Note_on_c, 1, 55, 0
2, 7104, Note_on_c, 1, 55, 83
2, 7168, Note_on_c, 1, 55, 0
2, 7168, Note_on_c, 0, 66, 0
2, 7168, Control_c, 0, 64, 0
2, 7168, Control_c, 0, 64, 127
2, 7168, Control_c, 1, 64, 0
2, 7168, Control_c, 1, 64, 127
2, 7168, Note_on_c, 1, 48, 83
2, 7232, Note_on_c, 0, 62, 83
2, 7296, Note_on_c, 1, 48, 0
2, 7296, Note_on_c, 0, 62, 0
2, 7296, Note_on_c, 0, 67, 83
2, 7296, Note_on_c, 1, 55, 83
2, 7360, Note_on_c, 0, 67, 0
2, 7360, Note_on_c, 0, 72, 83
2, 7424, Note_on_c, 1, 55, 0
2, 7424, Note_on_c, 0, 72, 0
2, 7424, Note_on_c, 0, 71, 83
2, 7424, Note_on_c, 1, 60, 83
2, 7488, Note_on_c, 0, 71, 0
2, 7488, Note_on_c, 0, 69, 83
2, 7552, Note_on_c, 0, 69, 0
2, 7552, Note_on_c, 0, 67, 83
2, 7616, Note_on_c, 1, 60, 0
2, 7616, Note_on_c, 0, 67, 0
2, 7616, Note_on_c, 0, 62, 83
2, 7616, Note_on_c, 1, 57, 83
2, 7680, Note_on_c, 1, 57, 0
2, 7680, Note_on_c, 0, 62, 0
2, 7680, Control_c, 0, 64, 0
2, 7680, Control_c, 0, 64, 127
2, 7680, Note_on_c, 0, 66, 83
2, 7680, Note_on_c, 0, 69, 83
2, 7680, Note_on_c, 0, 74, 83
2, 7680, Control_c, 1, 64, 0
2, 7680, Control_c, 1, 64, 127
2, 7680, Note_on_c, 1, 50, 83
2, 7744, Note_on_c, 1, 50, 0
2, 7744, Note_on_c, 1, 57, 83
2, 7872, Note_on_c, 1, 57, 0
2, 7872, Note_on_c, 1, 62, 83
2, 7936, Note_on_c, 1, 62, 0
2, 7936, Note_on_c, 1, 57, 83
2, 8000, Note_on_c, 1, 57, 0
2, 8000, Note_on_c, 1, 62, 83
2, 8064, Note_on_c, 1, 62, 0
2, 8064, Note_on_c, 1, 57, 83
2, 8128, Note_on_c, 1, 57, 0
2, 8128, Note_on_c, 1, 50, 83
2, 8192, Note_on_c, 1, 50, 0
2, 8192, Note_on_c, 0, 74, 0
2, 8192, Note_on_c, 0, 69, 0
2, 8192, Note_on_c, 0, 66, 0
2, 8192, Control_c, 0, 64, 0
2, 8192, Control_c, 0, 64, 127
2, 8192, Control_c, 1, 64, 0
2, 8192, Control_c, 1, 64, 127
2, 8192, Note_on_c, 1, 43, 83
2, 8256, Note_on_c, 0, 55, 83
2, 8320, Note_on_c, 1, 43, 0
2, 8320, Note_on_c, 1, 50, 83
2, 8384, Note_on_c, 0, 55, 0
2, 8384, Note_on_c, 0, 62, 100
2, 8448, Note_on_c, 1, 50, 0
2, 8448, Note_on_c, 1, 55, 83
2, 8512, Note_on_c, 0, 62, 0
2, 8512, Note_on_c, 0, 66, 100
2, 8576, Note_on_c, 0, 66, 0
2, 8576, Note_on_c, 0, 62, 83
2, 8640, Note_on_c, 1, 55, 0
2, 8640, Note_on_c, 1, 50, 83
2, 8704, Note_on_c, 0, 62, 0
2, 8704, Note_on_c, 0, 66, 100
2, 8768, Note_on_c, 1, 50, 0
2, 8768, Note_on_c, 1, 55, 83
2, 8896, Note_on_c, 1, 55, 0
2, 8896, Note_on_c, 1, 50, 83
2, 8960, Note_on_c, 0, 66, 0
2, 8960, Note_on_c, 0, 62, 100
2, 9024, Note_on_c, 1, 50, 0
2, 9024, Note_on_c, 1, 55, 83
2, 9088, Note_on_c, 0, 62, 0
2, 9088, Note_on_c, 0, 62, 83
2, 9152, Note_on_c, 1, 55, 0
2, 9152, Note_on_c, 1, 55, 83
2, 9216, Note_on_c, 1, 55, 0
2, 9216, Note_on_c, 0, 62, 0
2, 9216, Control_c, 0, 64, 0
2, 9216, Control_c, 0, 64, 127
2, 9216, Control_c, 1, 64, 0
2, 9216, Control_c, 1, 64, 127
2, 9216, Note_on_c, 1, 48, 83
2, 9280, Note_on_c, 0, 60, 83
2, 9344, Note_on_c, 1, 48, 0
2, 9344, Note_on_c, 1, 55, 83
2, 9408, Note_on_c, 0, 60, 0
2, 9408, Note_on_c, 0, 67, 100
2, 9472, Note_on_c, 1, 55, 0
2, 9472, Note_on_c, 1, 60, 83
2, 9536, Note_on_c, 0, 67, 0
2, 9536, Note_on_c, 0, 64, 83
2, 9600, Note_on_c, 1, 60, 0
2, 9600, Note_on_c, 1, 60, 83
2, 9664, Note_on_c, 1, 60, 0
2, 9664, Note_on_c, 1, 57, 83
2, 9728, Note_on_c, 1, 57, 0
2, 9728, Note_on_c, 0, 64, 0
2, 9728, Control_c, 0, 64, 0
2, 9728, Control_c, 0, 64, 127
2, 9728, Control_c, 1, 64, 0
2, 9728, Control_c, 1, 64, 127
2, 9728, Note_on_c, 1, 50, 83
2, 9792, Note_on_c, 0, 62, 83
2, 9856, Note_on_c, 1, 50, 0
2, 9856, Note_on_c, 1, 57, 83
2, 9920, Note_on_c, 0, 62, 0
2, 9920, Note_on_c, 0, 66, 83
2, 9984, Note_on_c, 1, 57, 0
2, 9984, Note_on_c, 0, 66, 0
2, 9984, Note_on_c, 0, 67, 83
2, 9984, Note_on_c, 1, 62, 83
2, 10048, Note_on_c, 1, 62, 0
2, 10048, Note_on_c, 1, 57, 83
2, 10112, Note_on_c, 0, 67, 0
2, 10112, Note_on_c, 0, 66, 83
2, 10176, Note_on_c, 1, 57, 0
2, 10176, Note_on_c, 1, 55, 83
2, 10240, Note_on_c, 1, 55, 0
2, 10240, Note_on_c, 0, 66, 0
2, 10240, Control_c, 0, 64, 0
2, 10240, Control_c, 0, 64, 127
2, 10240, Control_c, 1, 64, 0
2, 10240, Control_c, 1, 64, 127
2, 10240, Note_on_c, 1, 43, 83
2, 10304, Note_on_c, 0, 55, 83
2, 10368, Note_on_c, 1, 43, 0
2, 10368, Note_on_c, 1, 50, 83
2, 10432, Note_on_c, 0, 55, 0
2, 10432, Note_on_c, 0, 62, 100
2, 10496, Note_on_c, 1, 50, 0
2, 10496, Note_on_c, 1, 59, 83
2, 10560, Note_on_c, 0, 62, 0
2, 10560, Note_on_c, 0, 66, 100
2, 10624, Note_on_c, 0, 66, 0
2, 10624, Note_on_c, 0, 62, 83
2, 10688, Note_on_c, 1, 59, 0
2, 10688, Note_on_c, 1, 50, 83
2, 10752, Note_on_c, 0, 62, 0
2, 10752, Note_on_c, 0, 66, 100
2, 10816, Note_on_c, 1, 50, 0
2, 10816, Note_on_c, 1, 55, 83
2, 10944, Note_on_c, 1, 55, 0
2, 10944, Note_on_c, 1, 50, 83
2, 11008, Note_on_c, 0, 66, 0
2, 11008, Note_on_c, 0, 62, 100
2, 11072, Note_on_c, 1, 50, 0
2, 11072, Note_on_c, 1, 50, 83
2, 11136, Note_on_c, 0, 62, 0
2, 11136, Note_on_c, 0, 55, 83
2, 11200, Note_on_c, 1, 50, 0
2, 11200, Note_on_c, 1, 48, 83
2, 11264, Note_on_c, 1, 48, 0
2, 11264, Note_on_c, 0, 55, 0
2, 11264, Control_c, 0, 64, 0
2, 11264, Control_c, 0, 64, 127
2, 11264, Note_on_c, 0, 52, 83
2, 11264, Note_on_c, 0, 60, 83
2, 11264, Control_c, 1, 64, 0
2, 11264, Control_c, 1, 64, 127
2, 11264, Note_on_c, 1, 36, 83
2, 11328, Note_on_c, 1, 36, 0
2, 11328, Note_on_c, 1, 43, 83
2, 11392, Note_on_c, 0, 60, 0
2, 11392, Note_on_c, 0, 52, 0
2, 11392, Note_on_c, 0, 55, 83
2, 11456, Note_on_c, 0, 55, 0
2, 11456, Note_on_c, 0, 57, 83
2, 11520, Note_on_c, 1, 43, 0
2, 11520, Note_on_c, 1, 48, 83
2, 11584, Note_on_c, 0, 57, 0
2, 11584, Note_on_c, 0, 60, 83
2, 11648, Note_on_c, 1, 48, 0
2, 11648, Note_on_c, 1, 50, 83
2, 11712, Note_on_c, 0, 60, 0
2, 11712, Note_on_c, 0, 54, 83
2, 11712, Note_on_c, 0, 62, 83
2, 11776, Note_on_c, 1, 50, 0
2, 11776, Control_c, 0, 64, 0
2, 11776, Control_c, 0, 64, 127
2, 11776, Control_c, 1, 64, 0
2, 11776, Control_c, 1, 64, 127
2, 11776, Note_on_c, 1, 38, 83
2, 11840, Note_on_c, 0, 62, 0
2, 11840, Note_on_c, 0, 54, 0
2, 11840, Note_on_c, 0, 55, 83
2, 11904, Note_on_c, 1, 38, 0
2, 11904, Note_on_c, 1, 45, 83
2, 11968, Note_on_c, 0, 55, 0
2, 11968, Note_on_c, 0, 57, 83
2, 12032, Note_on_c, 1, 45, 0
2, 12032, Note_on_c, 1, 50, 83
2, 12096, Note_on_c, 0, 57, 0
2, 12096, Note_on_c, 0, 59, 83
2, 12224, Note_on_c, 1, 50, 0
2, 12224, Note_on_c, 1, 50, 83
2, 12288, Note_on_c, 1, 50, 0
2, 12288, Note_on_c, 0, 59, 0
2, 12288, Control_c, 0, 64, 0
2, 12288, Control_c, 0, 64, 127
2, 12288, Control_c, 1, 64, 0
2, 12288, Control_c, 1, 64, 127
2, 12288, Note_on_c, 1, 43, 83
2, 12352, Note_on_c, 0, 55, 83
2, 12416, Note_on_c, 1, 43, 0
2, 12416, Note_on_c, 1, 50, 83
2, 12480, Note_on_c, 0, 55, 0
2, 12480, Note_on_c, 0, 62, 100
2, 12544, Note_on_c, 1, 50, 0
2, 12544, Note_on_c, 1, 59, 83
2, 12608, Note_on_c, 0, 62, 0
2, 12608, Note_on_c, 0, 66, 100
2, 12672, Note_on_c, 0, 66, 0
2, 12672, Note_on_c, 0, 62, 83
2, 12736, Note_on_c, 1, 59, 0
2, 12736, Note_on_c, 1, 59, 83
2, 12800, Note_on_c, 0, 62, 0
2, 12800, Note_on_c, 0, 66, 100
2, 12864, Note_on_c, 1, 59, 0
2, 12864, Note_on_c, 1, 50, 83
2, 12992, Note_on_c, 1, 50, 0
2, 12992, Note_on_c, 1, 43, 83
2, 13056, Note_on_c, 0, 66, 0
2, 13056, Note_on_c, 0, 62, 100
2, 13120, Note_on_c, 1, 43, 0
2, 13120, Note_on_c, 1, 50, 83
2, 13184, Note_on_c, 0, 62, 0
2, 13184, Note_on_c, 0, 55, 83
2, 13248, Note_on_c, 1, 50, 0
2, 13248, Note_on_c, 1, 48, 83
2, 13312, Note_on_c, 1, 48, 0
2, 13312, Note_on_c, 0, 55, 0
2, 13312, Control_c, 0, 64, 0
2, 13312, Control_c, 0, 64, 127
2, 13312, Control_c, 1, 64, 0
2, 13312, Control_c, 1, 64, 127
2, 13312, Note_on_c, 1, 36, 83
2, 13376, Note_on_c, 1, 36, 0
2, 13376, Note_on_c, 1, 50, 83
2, 13440, Note_on_c, 1, 50, 0
2, 13440, Note_on_c, 1, 55, 83
2, 13504, Note_on_c, 0, 59, 83
2, 13568, Note_on_c, 0, 59, 0
2, 13568, Note_on_c, 0, 62, 83
2, 13632, Note_on_c, 0, 62, 0
2, 13632, Note_on_c, 0, 67, 83
2, 13696, Note_on_c, 1, 55, 0
2, 13696, Note_on_c, 0, 67, 0
2, 13696, Note_on_c, 0, 71, 83
2, 13696, Note_on_c, 1, 50, 83
2, 13760, Note_on_c, 1, 50, 0
2, 13760, Note_on_c, 0, 71, 0
2, 13760, Note_on_c, 0, 72, 83
2, 13760, Note_on_c, 1, 38, 83
2, 13824, Note_on_c, 0, 72, 0
2, 13824, Control_c, 0, 64, 0
2, 13824, Control_c, 0, 64, 127
2, 13824, Note_on_c, 0, 71, 83
2, 13824, Control_c, 1, 64, 0
2, 13824, Control_c, 1, 64, 127
2, 13888, Note_on_c, 0, 71, 0
2, 13888, Note_on_c, 0, 69, 83
2, 13952, Note_on_c, 0, 69, 0
2, 13952, Note_on_c, 0, 67, 83
2, 14016, Note_on_c, 1, 38, 0
2, 14016, Note_on_c, 0, 67, 0
2, 14016, Note_on_c, 0, 62, 83
2, 14016, Note_on_c, 1, 45, 83
2, 14080, Note_on_c, 0, 62, 0
2, 14080, Note_on_c, 0, 67, 83
2, 14144, Note_on_c, 1, 45, 0
2, 14144, Note_on_c, 1, 50, 83
2, 14208, Note_on_c, 0, 67, 0
2, 14208, Note_on_c, 0, 62, 83
2, 14272, Note_on_c, 1, 50, 0
2, 14272, Note_on_c, 1, 50, 83
2, 14336, Note_on_c, 1, 50, 0
2, 14336, Note_on_c, 0, 62, 0
2, 14336, Control_c, 0, 64, 0
2, 14336, Control_c, 0, 64, 127
2, 14336, Control_c, 1, 64, 0
2, 14336, Control_c, 1, 64, 127
2, 14336, Note_on_c, 1, 43, 83
2, 14400, Note_on_c, 0, 55, 83
2, 14464, Note_on_c, 1, 43, 0
2, 14464, Note_on_c, 1, 50, 83
2, 14528, Note_on_c, 0, 55, 0
2, 14528, Note_on_c, 0, 62, 100
2, 14592, Note_on_c, 1, 50, 0
2, 14592, Note_on_c, 1, 55, 83
2, 14656, Note_on_c, 0, 62, 0
2, 14656, Note_on_c, 0, 66, 100
2, 14720, Note_on_c, 0, 66, 0
2, 14720, Note_on_c, 0, 62, 83
2, 14784, Note_on_c, 1, 55, 0
2, 14784, Note_on_c, 1, 50, 83
2, 14848, Note_on_c, 0, 62, 0
2, 14848, Note_on_c, 0, 67, 100
2, 14912, Note_on_c, 1, 50, 0
2, 14912, Note_on_c, 1, 55, 83
2, 15040, Note_on_c, 1, 55, 0
2, 15040, Note_on_c, 1, 50, 83
2, 15104, Note_on_c, 0, 67, 0
2, 15104, Note_on_c, 0, 66, 100
2, 15168, Note_on_c, 1, 50, 0
2, 15168, Note_on_c, 1, 55, 83
2, 15232, Note_on_c, 0, 66, 0
2, 15232, Note_on_c, 0, 62, 83
2, 15296, Note_on_c, 1, 55, 0
2, 15296, Note_on_c, 1, 55, 83
2, 15360, Note_on_c, 1, 55, 0
2, 15360, Note_on_c, 0, 62, 0
2, 15360, Control_c, 0, 64, 0
2, 15360, Control_c, 0, 64, 127
2, 15360, Control_c, 1, 64, 0
2, 15360, Control_c, 1, 64, 127
2, 15360, Note_on_c, 1, 48, 83
2, 15424, Note_on_c, 0, 60, 83
2, 15488, Note_on_c, 1, 48, 0
2, 15488, Note_on_c, 1, 55, 83
2, 15552, Note_on_c, 0, 60, 0
2, 15552, Note_on_c, 0, 64, 100
2, 15616, Note_on_c, 1, 55, 0
2, 15616, Note_on_c, 1, 60, 83
2, 15680, Note_on_c, 0, 64, 0
2, 15680, Note_on_c, 0, 67, 100
2, 15744, Note_on_c, 0, 67, 0
2, 15744, Note_on_c, 0, 62, 83
2, 15808, Note_on_c, 1, 60, 0
2, 15808, Note_on_c, 1, 57, 83
2, 15872, Note_on_c, 1, 57, 0
2, 15872, Note_on_c, 0, 62, 0
2, 15872, Control_c, 0, 64, 0
2, 15872, Control_c, 0, 64, 127
2, 15872, Note_on_c, 0, 67, 83
2, 15872, Control_c, 1, 64, 0
2, 15872, Control_c, 1, 64, 127
2, 15872, Note_on_c, 1, 50, 83
2, 15936, Note_on_c, 1, 50, 0
2, 15936, Note_on_c, 1, 57, 83
2, 16000, Note_on_c, 0, 67, 0
2, 16000, Note_on_c, 0, 62, 83
2, 16064, Note_on_c, 1, 57, 0
2, 16064, Note_on_c, 1, 57, 83
2, 16128, Note_on_c, 0, 62, 0
2, 16128, Note_on_c, 0, 67, 83
2, 16192, Note_on_c, 1, 57, 0
2, 16192, Note_on_c, 1, 57, 83
2, 16256, Note_on_c, 0, 67, 0
2, 16256, Note_on_c, 0, 62, 83
2, 16320, Note_on_c, 1, 57, 0
2, 16320, Note_on_c, 1, 48, 83
2, 16384, Note_on_c, 1, 48, 0
2, 16384, Note_on_c, 0, 62, 0
2, 16384, Control_c, 0, 64, 0
2, 16384, Control_c, 0, 64, 127
2, 16384, Control_c, 1, 64, 0
2, 16384, Control_c, 1, 64, 127
2, 16384, Note_on_c, 1, 36, 83
2, 16448, Note_on_c, 0, 52, 83
2, 16512, Note_on_c, 1, 36, 0
2, 16512, Note_on_c, 1, 43, 83
2, 16576, Note_on_c, 0, 52, 0
2, 16576, Note_on_c, 0, 55, 83
2, 16640, Note_on_c, 1, 43, 0
2, 16640, Note_on_c, 1, 48, 83
2, 16704, Note_on_c, 0, 55, 0
2, 16704, Note_on_c, 0, 60, 83
2, 16768, Note_on_c, 0, 60, 0
2, 16768, Note_on_c, 0, 64, 83
2, 16832, Note_on_c, 1, 48, 0
2, 16832, Note_on_c, 1, 48, 83
2, 16896, Note_on_c, 0, 64, 0
2, 16896, Note_on_c, 0, 72, 100
2, 16960, Note_on_c, 1, 48, 0
2, 16960, Note_on_c, 1, 48, 83
2, 17024, Note_on_c, 0, 72, 0
2, 17024, Note_on_c, 0, 67, 83
2, 17088, Note_on_c, 1, 48, 0
2, 17088, Note_on_c, 1, 48, 83
2, 17152, Note_on_c, 0, 67, 0
2, 17152, Note_on_c, 0, 64, 83
2, 17216, Note_on_c, 1, 48, 0
2, 17216, Note_on_c, 1, 48, 83
2, 17280, Note_on_c, 0, 64, 0
2, 17280, Note_on_c, 0, 57, 83
2, 17344, Note_on_c, 1, 48, 0
2, 17344, Note_on_c, 1, 48, 83
2, 17408, Note_on_c, 1, 48, 0
2, 17408, Note_on_c, 0, 57, 0
2, 17408, Control_c, 0, 64, 0
2, 17408, Control_c, 0, 64, 127
2, 17408, Control_c, 1, 64, 0
2, 17408, Control_c, 1, 64, 127
2, 17408, Note_on_c, 1, 41, 83
2, 17472, Note_on_c, 0, 57, 83
2, 17536, Note_on_c, 1, 41, 0
2, 17536, Note_on_c, 1, 48, 83
2, 17600, Note_on_c, 0, 57, 0
2, 17600, Note_on_c, 0, 60, 100
2, 17664, Note_on_c, 1, 48, 0
2, 17664, Note_on_c, 1, 53, 83
2, 17728, Note_on_c, 0, 60, 0
2, 17728, Note_on_c, 0, 57, 83
2, 17792, Note_on_c, 0, 57, 0
2, 17792, Note_on_c, 0, 59, 83
2, 17856, Note_on_c, 1, 53, 0
2, 17856, Note_on_c, 1, 50, 83
2, 17920, Note_on_c, 1, 50, 0
2, 17920, Note_on_c, 0, 59, 0
2, 17920, Control_c, 0, 64, 0
2, 17920, Control_c, 0, 64, 127
2, 17920, Note_on_c, 0, 62, 100
2, 17920, Control_c, 1, 64, 0
2, 17920, Control_c, 1, 64, 127
2, 17920, Note_on_c, 1, 43, 83
2, 17984, Note_on_c, 1, 43, 0
2, 17984, Note_on_c, 1, 50, 83
2, 18112, Note_on_c, 1, 50, 0
2, 18112, Note_on_c, 1, 55, 83
2, 18176, Note_on_c, 0, 62, 0
2, 18176, Note_on_c, 0, 62, 100
2, 18240, Note_on_c, 1, 55, 0
2, 18240, Note_on_c, 1, 55, 83
2, 18304, Note_on_c, 0, 62, 0
2, 18304, Note_on_c, 0, 59, 83
2, 18368, Note_on_c, 1, 55, 0
2, 18368, Note_on_c, 1, 55, 83
2, 18432, Note_on_c, 1, 55, 0
2, 18432, Note_on_c, 0, 59, 0
2, 18432, Control_c, 0, 64, 0
2, 18432, Control_c, 0, 64, 127
2, 18432, Control_c, 1, 64, 0
2, 18432, Control_c, 1, 64, 127
2, 18432, Note_on_c, 1, 48, 83
2, 18496, Note_on_c, 0, 62, 83
2, 18560, Note_on_c, 1, 48, 0
2, 18560, Note_on_c, 1, 55, 83
2, 18624, Note_on_c, 0, 62, 0
2, 18624, Note_on_c, 0, 67, 100
2, 18688, Note_on_c, 1, 55, 0
2, 18688, Note_on_c, 1, 60, 83
2, 18752, Note_on_c, 0, 67, 0
2, 18752, Note_on_c, 0, 71, 100
2, 18816, Note_on_c, 0, 71, 0
2, 18816, Note_on_c, 0, 67, 83
2, 18880, Note_on_c, 1, 60, 0
2, 18880, Note_on_c, 1, 55, 83
2, 18944, Note_on_c, 0, 67, 0
2, 18944, Note_on_c, 0, 71, 100
2, 19008, Note_on_c, 1, 55, 0
2, 19008, Note_on_c, 1, 62, 83
2, 19136, Note_on_c, 1, 62, 0
2, 19136, Note_on_c, 1, 55, 83
2, 19200, Note_on_c, 0, 71, 0
2, 19200, Note_on_c, 0, 67, 100
2, 19264, Note_on_c, 1, 55, 0
2, 19264, Note_on_c, 1, 55, 83
2, 19328, Note_on_c, 0, 67, 0
2, 19328, Note_on_c, 0, 62, 83
2, 19392, Note_on_c, 1, 55, 0
2, 19392, Note_on_c, 1, 53, 83
2, 19456, Note_on_c, 1, 53, 0
2, 19456, Note_on_c, 0, 62, 0
2, 19456, Control_c, 0, 64, 0
2, 19456, Control_c, 0, 64, 127
2, 19456, Control_c, 1, 64, 0
2, 19456, Control_c, 1, 64, 127
2, 19456, Note_on_c, 1, 41, 83
2, 19520, Note_on_c, 0, 57, 83
2, 19584, Note_on_c, 1, 41, 0
2, 19584, Note_on_c, 1, 48, 83
2, 19648, Note_on_c, 0, 57, 0
2, 19648, Note_on_c, 0, 60, 100
2, 19712, Note_on_c, 1, 48, 0
2, 19712, Note_on_c, 0, 60, 0
2, 19712, Note_on_c, 0, 65, 100
2, 19712, Note_on_c, 1, 53, 83
2, 19840, Note_on_c, 0, 65, 0
2, 19840, Note_on_c, 0, 57, 83
2, 19904, Note_on_c, 1, 53, 0
2, 19904, Note_on_c, 1, 50, 83
2, 19968, Note_on_c, 1, 50, 0
2, 19968, Note_on_c, 0, 57, 0
2, 19968, Control_c, 0, 64, 0
2, 19968, Control_c, 0, 64, 127
2, 19968, Control_c, 1, 64, 0
2, 19968, Control_c, 1, 64, 127
2, 19968, Note_on_c, 1, 43, 83
2, 20032, Note_on_c, 0, 55, 83
2, 20096, Note_on_c, 1, 43, 0
2, 20096, Note_on_c, 1, 50, 83
2, 20160, Note_on_c, 0, 55, 0
2, 20160, Note_on_c, 0, 59, 83
2, 20224, Note_on_c, 1, 50, 0
2, 20224, Note_on_c, 0, 59, 0
2, 20224, Note_on_c, 0, 60, 83
2, 20224, Note_on_c, 1, 50, 83
2, 20288, Note_on_c, 0, 60, 0
2, 20288, Note_on_c, 0, 62, 83
2, 20352, Note_on_c, 0, 62, 0
2, 20352, Note_on_c, 0, 59, 83
2, 20416, Note_on_c, 1, 50, 0
2, 20416, Note_on_c, 0, 59, 0
2, 20416, Note_on_c, 0, 55, 83
2, 20416, Note_on_c, 1, 50, 83
2, 20480, Note_on_c, 1, 50, 0
2, 20480, Note_on_c, 0, 55, 0
2, 20480, Control_c, 0, 64, 0
2, 20480, Control_c, 0, 64, 127
2, 20480, Control_c, 1, 64, 0
2, 20480, Control_c, 1, 64, 127
2, 20480, Note_on_c, 1, 48, 83
2, 20544, Note_on_c, 0, 62, 83
2, 20608, Note_on_c, 1, 48, 0
2, 20608, Note_on_c, 1, 55, 83
2, 20672, Note_on_c, 0, 62, 0
2, 20672, Note_on_c, 0, 67, 100
2, 20736, Note_on_c, 1, 55, 0
2, 20736, Note_on_c, 1, 60, 83
2, 20800, Note_on_c, 0, 67, 0
2, 20800, Note_on_c, 0, 71, 100
2, 20864, Note_on_c, 0, 71, 0
2, 20864, Note_on_c, 0, 67, 83
2, 20928, Note_on_c, 1, 60, 0
2, 20928, Note_on_c, 1, 55, 83
2, 20992, Note_on_c, 0, 67, 0
2, 20992, Note_on_c, 0, 71, 100
2, 21056, Note_on_c, 1, 55, 0
2, 21056, Note_on_c, 1, 60, 83
2, 21184, Note_on_c, 1, 60, 0
2, 21184, Note_on_c, 1, 55, 83
2, 21248, Note_on_c, 0, 71, 0
2, 21248, Note_on_c, 0, 67, 100
2, 21312, Note_on_c, 1, 55, 0
2, 21312, Note_on_c, 1, 60, 83
2, 21376, Note_on_c, 0, 67, 0
2, 21376, Note_on_c, 0, 62, 83
2, 21440, Note_on_c, 1, 60, 0
2, 21440, Note_on_c, 1, 53, 83
2, 21504, Note_on_c, 1, 53, 0
2, 21504, Note_on_c, 0, 62, 0
2, 21504, Control_c, 0, 64, 0
2, 21504, Control_c, 0, 64, 127
2, 21504, Control_c, 1, 64, 0
2, 21504, Control_c, 1, 64, 127
2, 21504, Note_on_c, 1, 41, 83
2, 21568, Note_on_c, 0, 57, 83
2, 21632, Note_on_c, 1, 41, 0
2, 21632, Note_on_c, 1, 48, 83
2, 21696, Note_on_c, 0, 57, 0
2, 21696, Note_on_c, 0, 60, 100
2, 21760, Note_on_c, 0, 60, 0
2, 21760, Note_on_c, 0, 65, 100
2, 21824, Note_on_c, 1, 48, 0
2, 21824, Note_on_c, 1, 53, 83
2, 21888, Note_on_c, 0, 65, 0
2, 21888, Note_on_c, 0, 57, 83
2, 21952, Note_on_c, 1, 53, 0
2, 21952, Note_on_c, 1, 50, 83
2, 22016, Note_on_c, 1, 50, 0
2, 22016, Note_on_c, 0, 57, 0
2, 22016, Control_c, 0, 64, 0
2, 22016, Control_c, 0, 64, 127
2, 22016, Note_on_c, 0, 62, 100
2, 22016, Control_c, 1, 64, 0
2, 22016, Control_c, 1, 64, 127
2, 22016, Note_on_c, 1, 43, 83
2, 22080, Note_on_c, 1, 43, 0
2, 22080, Note_on_c, 1, 50, 83
2, 22144, Note_on_c, 0, 62, 0
2, 22144, Note_on_c, 0, 59, 83
2, 22208, Note_on_c, 0, 59, 0
2, 22208, Note_on_c, 0, 55, 83
2, 22272, Note_on_c, 1, 50, 0
2, 22272, Note_on_c, 1, 50, 83
2, 22336, Note_on_c, 0, 55, 0
2, 22336, Note_on_c, 0, 57, 83
2, 22400, Note_on_c, 0, 57, 0
2, 22400, Note_on_c, 0, 62, 83
2, 22464, Note_on_c, 1, 50, 0
2, 22464, Note_on_c, 1, 55, 83
2, 22528, Note_on_c, 1, 55, 0
2, 22528, Note_on_c, 0, 62, 0
2, 22528, Control_c, 0, 64, 0
2, 22528, Control_c, 0, 64, 127
2, 22528, Control_c, 1, 64, 0
2, 22528, Control_c, 1, 64, 127
2, 22528, Note_on_c, 1, 48, 83
2, 22592, Note_on_c, 0, 62, 83
2, 22656, Note_on_c, 1, 48, 0
2, 22656, Note_on_c, 1, 55, 83
2, 22720, Note_on_c, 0, 62, 0
2, 22720, Note_on_c, 0, 67, 100
2, 22784, Note_on_c, 1, 55, 0
2, 22784, Note_on_c, 1, 60, 83
2, 22848, Note_on_c, 0, 67, 0
2, 22848, Note_on_c, 0, 71, 100
2, 22912, Note_on_c, 0, 71, 0
2, 22912, Note_on_c, 0, 67, 83
2, 22976, Note_on_c, 1, 60, 0
2, 22976, Note_on_c, 1, 55, 83
2, 23040, Note_on_c, 0, 67, 0
2, 23040, Note_on_c, 0, 71, 100
2, 23104, Note_on_c, 1, 55, 0
2, 23104, Note_on_c, 1, 62, 83
2, 23232, Note_on_c, 1, 62, 0
2, 23232, Note_on_c, 1, 55, 83
2, 23296, Note_on_c, 0, 71, 0
2, 23296, Note_on_c, 0, 67, 100
2, 23360, Note_on_c, 1, 55, 0
2, 23360, Note_on_c, 1, 55, 83
2, 23424, Note_on_c, 0, 67, 0
2, 23424, Note_on_c, 0, 62, 83
2, 23488, Note_on_c, 1, 55, 0
2, 23488, Note_on_c, 1, 53, 83
2, 23552, Note_on_c, 1, 53, 0
2, 23552, Note_on_c, 0, 62, 0
2, 23552, Control_c, 0, 64, 0
2, 23552, Control_c, 0, 64, 127
2, 23552, Control_c, 1, 64, 0
2, 23552, Control_c, 1, 64, 127
2, 23552, Note_on_c, 1, 41, 83
2, 23616, Note_on_c, 0, 57, 83
2, 23680, Note_on_c, 0, 57, 0
2, 23680, Note_on_c, 0, 60, 83
2, 23744, Note_on_c, 1, 41, 0
2, 23744, Note_on_c, 0, 60, 0
2, 23744, Note_on_c, 0, 65, 83
2, 23744, Note_on_c, 1, 48, 83
2, 23808, Note_on_c, 0, 65, 0
2, 23808, Note_on_c, 0, 69, 83
2, 23872, Note_on_c, 1, 48, 0
2, 23872, Note_on_c, 0, 69, 0
2, 23872, Note_on_c, 0, 72, 83
2, 23872, Note_on_c, 1, 53, 83
2, 23936, Note_on_c, 0, 72, 0
2, 23936, Note_on_c, 0, 76, 83
2, 24000, Note_on_c, 1, 53, 0
2, 24000, Note_on_c, 1, 55, 83
2, 24064, Note_on_c, 1, 55, 0
2, 24064, Note_on_c, 0, 76, 0
2, 24064, Control_c, 0, 64, 0
2, 24064, Control_c, 0, 64, 127
2, 24064, Control_c, 1, 64, 0
2, 24064, Control_c, 1, 64, 127
2, 24064, Note_on_c, 1, 43, 83
2, 24128, Note_on_c, 0, 62, 83
2, 24192, Note_on_c, 1, 43, 0
2, 24192, Note_on_c, 0, 62, 0
2, 24192, Note_on_c, 0, 67, 83
2, 24192, Note_on_c, 1, 50, 83
2, 24256, Note_on_c, 0, 67, 0
2, 24256, Note_on_c, 0, 69, 83
2, 24320, Note_on_c, 1, 50, 0
2, 24320, Note_on_c, 0, 69, 0
2, 24320, Note_on_c, 0, 67, 83
2, 24320, Note_on_c, 1, 55, 83
2, 24384, Note_on_c, 0, 67, 0
2, 24384, Note_on_c, 0, 62, 83
2, 24448, Note_on_c, 0, 62, 0
2, 24448, Note_on_c, 0, 57, 83
2, 24512, Note_on_c, 1, 55, 0
2, 24512, Note_on_c, 1, 53, 83
2, 24576, Note_on_c, 1, 53, 0
2, 24576, Note_on_c, 0, 57, 0
2, 24576, Control_c, 0, 64, 0
2, 24576, Control_c, 0, 64, 127
2, 24576, Note_on_c, 0, 57, 83
2, 24576, Control_c, 1, 64, 0
2, 24576, Control_c, 1, 64, 127
2, 24576, Note_on_c, 1, 41, 83
2, 24768, Note_on_c, 0, 57, 0
2, 24768, Note_on_c, 0, 57, 83
2, 24832, Note_on_c, 1, 41, 0
2, 24832, Note_on_c, 1, 53, 83
2, 24896, Note_on_c, 0, 57, 0
2, 24896, Note_on_c, 0, 60, 100
2, 24960, Note_on_c, 0, 60, 0
2, 24960, Note_on_c, 0, 57, 83
2, 25024, Note_on_c, 1, 53, 0
2, 25024, Note_on_c, 1, 53, 83
2, 25088, Note_on_c, 0, 57, 0
2, 25088, Note_on_c, 0, 64, 100
2, 25152, Note_on_c, 1, 53, 0
2, 25152, Note_on_c, 1, 57, 83
2, 25280, Note_on_c, 1, 57, 0
2, 25280, Note_on_c, 1, 53, 83
2, 25344, Note_on_c, 0, 64, 0
2, 25344, Note_on_c, 0, 60, 100
2, 25408, Note_on_c, 1, 53, 0
2, 25408, Note_on_c, 1, 50, 83
2, 25472, Note_on_c, 0, 60, 0
2, 25472, Note_on_c, 0, 57, 83
2, 25536, Note_on_c, 1, 50, 0
2, 25536, Note_on_c, 1, 46, 83
2, 25600, Note_on_c, 1, 46, 0
2, 25600, Note_on_c, 0, 57, 0
2, 25600, Control_c, 0, 64, 0
2, 25600, Control_c, 0, 64, 127
2, 25600, Control_c, 1, 64, 0
2, 25600, Control_c, 1, 64, 127
2, 25600, Note_on_c, 1, 34, 83
2, 25664, Note_on_c, 0, 50, 83
2, 25728, Note_on_c, 1, 34, 0
2, 25728, Note_on_c, 1, 46, 83
2, 25792, Note_on_c, 0, 50, 0
2, 25792, Note_on_c, 0, 53, 83
2, 25856, Note_on_c, 1, 46, 0
2, 25856, Note_on_c, 1, 46, 83
2, 25920, Note_on_c, 0, 53, 0
2, 25920, Note_on_c, 0, 58, 83
2, 25984, Note_on_c, 1, 46, 0
2, 25984, Note_on_c, 1, 50, 83
2, 26048, Note_on_c, 1, 50, 0
2, 26048, Note_on_c, 1, 48, 83
2, 26112, Note_on_c, 1, 48, 0
2, 26112, Note_on_c, 0, 58, 0
2, 26112, Control_c, 0, 64, 0
2, 26112, Control_c, 0, 64, 127
2, 26112, Note_on_c, 0, 52, 83
2, 26112, Control_c, 1, 64, 0
2, 26112, Control_c, 1, 64, 127
2, 26112, Note_on_c, 1, 36, 83
2, 26176, Note_on_c, 1, 36, 0
2, 26176, Note_on_c, 1, 43, 83
2, 26240, Note_on_c, 0, 52, 0
2, 26240, Note_on_c, 0, 60, 83
2, 26304, Note_on_c, 1, 43, 0
2, 26304, Note_on_c, 1, 48, 83
2, 26368, Note_on_c, 0, 60, 0
2, 26368, Note_on_c, 0, 55, 83
2, 26432, Note_on_c, 1, 48, 0
2, 26432, Note_on_c, 1, 48, 83
2, 26496, Note_on_c, 0, 55, 0
2, 26496, Note_on_c, 0, 60, 83
2, 26560, Note_on_c, 1, 48, 0
2, 26560, Note_on_c, 1, 48, 83
2, 26624, Note_on_c, 1, 48, 0
2, 26624, Note_on_c, 0, 60, 0
2, 26624, Control_c, 0, 64, 0
2, 26624, Control_c, 0, 64, 127
2, 26624, Control_c, 1, 64, 0
2, 26624, Control_c, 1, 64, 127
2, 26624, Note_on_c, 1, 41, 83
2, 26688, Note_on_c, 0, 57, 83
2, 26752, Note_on_c, 1, 41, 0
2, 26752, Note_on_c, 1, 48, 83
2, 26816, Note_on_c, 0, 57, 0
2, 26816, Note_on_c, 0, 60, 100
2, 26880, Note_on_c, 1, 48, 0
2, 26880, Note_on_c, 1, 53, 83
2, 26944, Note_on_c, 0, 60, 0
2, 26944, Note_on_c, 0, 64, 100
2, 27008, Note_on_c, 0, 64, 0
2, 27008, Note_on_c, 0, 60, 83
2, 27072, Note_on_c, 1, 53, 0
2, 27072, Note_on_c, 1, 53, 83
2, 27136, Note_on_c, 0, 60, 0
2, 27136, Note_on_c, 0, 64, 100
2, 27200, Note_on_c, 1, 53, 0
2, 27200, Note_on_c, 1, 48, 83
2, 27328, Note_on_c, 1, 48, 0
2, 27328, Note_on_c, 1, 53, 83
2, 27392, Note_on_c, 0, 64, 0
2, 27392, Note_on_c, 0, 60, 100
2, 27456, Note_on_c, 1, 53, 0
2, 27456, Note_on_c, 1, 53, 83
2, 27520, Note_on_c, 0, 60, 0
2, 27520, Note_on_c, 0, 57, 83
2, 27584, Note_on_c, 1, 53, 0
2, 27584, Note_on_c, 1, 53, 83
2, 27648, Note_on_c, 1, 53, 0
2, 27648, Note_on_c, 0, 57, 0
2, 27648, Control_c, 0, 64, 0
2, 27648, Control_c, 0, 64, 127
2, 27648, Control_c, 1, 64, 0
2, 27648, Control_c, 1, 64, 127
2, 27648, Note_on_c, 1, 46, 83
2, 27712, Note_on_c, 0, 58, 83
2, 27776, Note_on_c, 1, 46, 0
2, 27776, Note_on_c, 1, 53, 83
2, 27840, Note_on_c, 0, 58, 0
2, 27840, Note_on_c, 0, 65, 100
2, 27904, Note_on_c, 1, 53, 0
2, 27904, Note_on_c, 1, 53, 83
2, 27968, Note_on_c, 0, 65, 0
2, 27968, Note_on_c, 0, 62, 83
2, 28032, Note_on_c, 0, 62, 0
2, 28032, Note_on_c, 0, 58, 83
2, 28096, Note_on_c, 1, 53, 0
2, 28096, Note_on_c, 1, 48, 83
2, 28160, Note_on_c, 0, 58, 0
2, 28160, Control_c, 0, 64, 0
2, 28160, Control_c, 0, 64, 127
2, 28160, Note_on_c, 0, 60, 83
2, 28160, Control_c, 1, 64, 0
2, 28160, Control_c, 1, 64, 127
2, 28224, Note_on_c, 1, 48, 0
2, 28224, Note_on_c, 1, 55, 83
2, 28288, Note_on_c, 0, 60, 0
2, 28288, Note_on_c, 0, 64, 83
2, 28352, Note_on_c, 1, 55, 0
2, 28352, Note_on_c, 1, 55, 83
2, 28416, Note_on_c, 0, 64, 0
2, 28416, Note_on_c, 0, 60, 83
2, 28480, Note_on_c, 1, 55, 0
2, 28480, Note_on_c, 1, 55, 83
2, 28544, Note_on_c, 0, 60, 0
2, 28544, Note_on_c, 0, 64, 83
2, 28608, Note_on_c, 1, 55, 0
2, 28608, Note_on_c, 1, 53, 83
2, 28672, Note_on_c, 1, 53, 0
2, 28672, Note_on_c, 0, 64, 0
2, 28672, Control_c, 0, 64, 0
2, 28672, Control_c, 0, 64, 127
2, 28672, Control_c, 1, 64, 0
2, 28672, Control_c, 1, 64, 127
2, 28672, Note_on_c, 1, 41, 83
2, 28736, Note_on_c, 0, 53, 83
2, 28800, Note_on_c, 1, 41, 0
2, 28800, Note_on_c, 1, 48, 83
2, 28864, Note_on_c, 0, 53, 0
2, 28864, Note_on_c, 0, 60, 100
2, 28928, Note_on_c, 1, 48, 0
2, 28928, Note_on_c, 1, 53, 83
2, 28992, Note_on_c, 0, 60, 0
2, 28992, Note_on_c, 0, 64, 100
2, 29056, Note_on_c, 0, 64, 0
2, 29056, Note_on_c, 0, 60, 83
2, 29120, Note_on_c, 1, 53, 0
2, 29120, Note_on_c, 1, 48, 83
2, 29184, Note_on_c, 0, 60, 0
2, 29184, Note_on_c, 0, 64, 100
2, 29248, Note_on_c, 1, 48, 0
2, 29248, Note_on_c, 1, 53, 83
2, 29376, Note_on_c, 1, 53, 0
2, 29376, Note_on_c, 1, 48, 83
2, 29440, Note_on_c, 0, 64, 0
2, 29440, Note_on_c, 0, 60, 100
2, 29504, Note_on_c, 1, 48, 0
2, 29504, Note_on_c, 1, 53, 83
2, 29568, Note_on_c, 0, 60, 0
2, 29568, Note_on_c, 0, 53, 83
2, 29632, Note_on_c, 1, 53, 0
2, 29632, Note_on_c, 1, 46, 83
2, 29696, Note_on_c, 1, 46, 0
2, 29696, Note_on_c, 0, 53, 0
2, 29696, Control_c, 0, 64, 0
2, 29696, Control_c, 0, 64, 127
2, 29696, Control_c, 1, 64, 0
2, 29696, Control_c, 1, 64, 127
2, 29696, Note_on_c, 1, 34, 83
2, 29760, Note_on_c, 0, 53, 83
2, 29824, Note_on_c, 1, 34, 0
2, 29824, Note_on_c, 1, 46, 83
2, 29888, Note_on_c, 0, 53, 0
2, 29888, Note_on_c, 0, 58, 83
2, 29952, Note_on_c, 1, 46, 0
2, 29952, Note_on_c, 1, 46, 83
2, 30016, Note_on_c, 0, 58, 0
2, 30016, Note_on_c, 0, 62, 100
2, 30080, Note_on_c, 0, 62, 0
2, 30080, Note_on_c, 0, 58, 83
2, 30144, Note_on_c, 1, 46, 0
2, 30144, Note_on_c, 1, 48, 83
2, 30208, Note_on_c, 1, 48, 0
2, 30208, Note_on_c, 0, 58, 0
2, 30208, Control_c, 0, 64, 0
2, 30208, Control_c, 0, 64, 127
2, 30208, Note_on_c, 0, 60, 100
2, 30208, Control_c, 1, 64, 0
2, 30208, Control_c, 1, 64, 127
2, 30208, Note_on_c, 1, 36, 83
2, 30272, Note_on_c, 1, 36, 0
2, 30272, Note_on_c, 1, 48, 83
2, 30336, Note_on_c, 0, 60, 0
2, 30336, Note_on_c, 0, 52, 83
2, 30400, Note_on_c, 1, 48, 0
2, 30400, Note_on_c, 1, 48, 83
2, 30464, Note_on_c, 0, 52, 0
2, 30464, Note_on_c, 0, 55, 83
2, 30528, Note_on_c, 1, 48, 0
2, 30528, Note_on_c, 1, 48, 83
2, 30592, Note_on_c, 0, 55, 0
2, 30592, Note_on_c, 0, 60, 83
2, 30656, Note_on_c, 1, 48, 0
2, 30656, Note_on_c, 1, 52, 83
2, 30720, Note_on_c, 1, 52, 0
2, 30720, Note_on_c, 0, 60, 0
2, 30720, Control_c, 0, 64, 0
2, 30720, Control_c, 0, 64, 127
2, 30720, Control_c, 1, 64, 0
2, 30720, Control_c, 1, 64, 127
2, 30720, Note_on_c, 1, 41, 83
2, 30784, Note_on_c, 0, 52, 83
2, 30848, Note_on_c, 1, 41, 0
2, 30848, Note_on_c, 1, 48, 83
2, 30912, Note_on_c, 0, 52, 0
2, 30912, Note_on_c, 0, 57, 100
2, 30976, Note_on_c, 1, 48, 0
2, 30976, Note_on_c, 1, 53, 83
2, 31040, Note_on_c, 0, 57, 0
2, 31040, Note_on_c, 0, 60, 100
2, 31104, Note_on_c, 1, 53, 0
2, 31104, Note_on_c, 1, 53, 83
2, 31168, Note_on_c, 1, 53, 0
2, 31168, Note_on_c, 1, 48, 83
2, 31232, Note_on_c, 0, 60, 0
2, 31232, Note_on_c, 0, 64, 100
2, 31296, Note_on_c, 1, 48, 0
2, 31296, Note_on_c, 1, 53, 83
2, 31360, Note_on_c, 0, 64, 0
2, 31360, Note_on_c, 0, 57, 83
2, 31424, Note_on_c, 1, 53, 0
2, 31424, Note_on_c, 1, 48, 83
2, 31488, Note_on_c, 0, 57, 0
2, 31488, Note_on_c, 0, 60, 83
2, 31552, Note_on_c, 1, 48, 0
2, 31552, Note_on_c, 1, 53, 83
2, 31616, Note_on_c, 0, 60, 0
2, 31616, Note_on_c, 0, 62, 83
2, 31680, Note_on_c, 1, 53, 0
2, 31680, Note_on_c, 1, 58, 83
2, 31744, Note_on_c, 1, 58, 0
2, 31744, Note_on_c, 0, 62, 0
2, 31744, Control_c, 0, 64, 0
2, 31744, Control_c, 0, 64, 127
2, 31744, Note_on_c, 0, 65, 100
2, 31744, Control_c, 1, 64, 0
2, 31744, Control_c, 1, 64, 127
2, 31744, Note_on_c, 1, 46, 83
2, 31808, Note_on_c, 1, 46, 0
2, 31808, Note_on_c, 1, 53, 83
2, 31872, Note_on_c, 0, 65, 0
2, 31872, Note_on_c, 0, 70, 83
2, 31936, Note_on_c, 0, 70, 0
2, 31936, Note_on_c, 0, 62, 83
2, 32000, Note_on_c, 1, 53, 0
2, 32000, Note_on_c, 1, 58, 83
2, 32064, Note_on_c, 0, 62, 0
2, 32064, Note_on_c, 0, 65, 83
2, 32192, Note_on_c, 0, 65, 0
2, 32192, Note_on_c, 0, 60, 83
2, 32192, Note_on_c, 0, 64, 83
2, 32256, Note_on_c, 1, 58, 0
2, 32256, Control_c, 0, 64, 0
2, 32256, Control_c, 0, 64, 127
2, 32256, Control_c, 1, 64, 0
2, 32256, Control_c, 1, 64, 127
2, 32256, Note_on_c, 1, 48, 83
2, 32320, Note_on_c, 0, 64, 0
2, 32320, Note_on_c, 0, 60, 0
2, 32320, Note_on_c, 0, 65, 83
2, 32384, Note_on_c, 1, 48, 0
2, 32384, Note_on_c, 1, 55, 83
2, 32448, Note_on_c, 0, 65, 0
2, 32448, Note_on_c, 0, 64, 83
2, 32512, Note_on_c, 1, 55, 0
2, 32512, Note_on_c, 1, 60, 83
2, 32576, Note_on_c, 0, 64, 0
2, 32576, Note_on_c, 0, 64, 83
2, 32704, Note_on_c, 1, 60, 0
2, 32704, Note_on_c, 1, 46, 83
2, 32768, Note_on_c, 1, 46, 0
2, 32768, Note_on_c, 0, 64, 0
2, 32768, Control_c, 0, 64, 0
2, 32768, Control_c, 0, 64, 127
2, 32768, Control_c, 1, 64, 0
2, 32768, Control_c, 1, 64, 127
2, 32768, Note_on_c, 1, 34, 83
2, 32960, Note_on_c, 0, 50, 85
2, 33024, Note_on_c, 1, 34, 0
2, 33024, Note_on_c, 1, 34, 83
2, 33088, Note_on_c, 0, 50, 0
2, 33088, Note_on_c, 0, 53, 85
2, 33152, Note_on_c, 0, 53, 0
2, 33152, Note_on_c, 0, 50, 83
2, 33216, Note_on_c, 1, 34, 0
2, 33216, Note_on_c, 1, 46, 83
2, 33280, Note_on_c, 0, 50, 0
2, 33280, Note_on_c, 0, 57, 85
2, 33344, Note_on_c, 1, 46, 0
2, 33344, Note_on_c, 1, 46, 83
2, 33472, Note_on_c, 1, 46, 0
2, 33472, Note_on_c, 1, 46, 83
2, 33536, Note_on_c, 0, 57, 0
2, 33536, Note_on_c, 0, 53, 85
2, 33600, Note_on_c, 1, 46, 0
2, 33600, Note_on_c, 1, 46, 83
2, 33664, Note_on_c, 0, 53, 0
2, 33664, Note_on_c, 0, 57, 83
2, 33728, Note_on_c, 1, 46, 0
2, 33728, Note_on_c, 1, 46, 83
2, 33792, Note_on_c, 1, 46, 0
2, 33792, Note_on_c, 0, 57, 0
2, 33792, Control_c, 0, 64, 0
2, 33792, Control_c, 0, 64, 127
2, 33792, Control_c, 1, 64, 0
2, 33792, Control_c, 1, 64, 127
2, 33792, Note_on_c, 1, 39, 83
2, 33856, Note_on_c, 0, 51, 83
2, 33920, Note_on_c, 1, 39, 0
2, 33920, Note_on_c, 1, 46, 83
2, 33984, Note_on_c, 0, 51, 0
2, 33984, Note_on_c, 0, 62, 85
2, 34048, Note_on_c, 0, 62, 0
2, 34048, Note_on_c, 0, 58, 83
2, 34112, Note_on_c, 1, 46, 0
2, 34112, Note_on_c, 1, 53, 83
2, 34176, Note_on_c, 0, 58, 0
2, 34176, Note_on_c, 0, 55, 83
2, 34240, Note_on_c, 1, 53, 0
2, 34240, Note_on_c, 1, 48, 83
2, 34304, Note_on_c, 1, 48, 0
2, 34304, Note_on_c, 0, 55, 0
2, 34304, Control_c, 0, 64, 0
2, 34304, Control_c, 0, 64, 127
2, 34304, Control_c, 1, 64, 0
2, 34304, Control_c, 1, 64, 127
2, 34304, Note_on_c, 1, 41, 83
2, 34368, Note_on_c, 0, 53, 83
2, 34432, Note_on_c, 1, 41, 0
2, 34432, Note_on_c, 1, 48, 83
2, 34496, Note_on_c, 0, 53, 0
2, 34496, Note_on_c, 0, 60, 85
2, 34560, Note_on_c, 0, 60, 0
2, 34560, Note_on_c, 0, 57, 83
2, 34624, Note_on_c, 1, 48, 0
2, 34624, Note_on_c, 1, 48, 83
2, 34688, Note_on_c, 0, 57, 0
2, 34688, Note_on_c, 0, 55, 83
2, 34752, Note_on_c, 1, 48, 0
2, 34752, Note_on_c, 1, 46, 83
2, 34816, Note_on_c, 1, 46, 0
2, 34816, Note_on_c, 0, 55, 0
2, 34816, Control_c, 0, 64, 0
2, 34816, Control_c, 0, 64, 127
2, 34816, Control_c, 1, 64, 0
2, 34816, Control_c, 1, 64, 127
2, 34816, Note_on_c, 1, 34, 83
2, 34880, Note_on_c, 0, 50, 83
2, 34944, Note_on_c, 1, 34, 0
2, 34944, Note_on_c, 1, 46, 83
2, 35008, Note_on_c, 0, 50, 0
2, 35008, Note_on_c, 0, 53, 100
2, 35072, Note_on_c, 1, 46, 0
2, 35072, Note_on_c, 1, 50, 83
2, 35136, Note_on_c, 0, 53, 0
2, 35136, Note_on_c, 0, 57, 100
2, 35200, Note_on_c, 0, 57, 0
2, 35200, Note_on_c, 0, 53, 83
2, 35264, Note_on_c, 1, 50, 0
2, 35264, Note_on_c, 1, 50, 83
2, 35328, Note_on_c, 0, 53, 0
2, 35328, Note_on_c, 0, 57, 100
2, 35392, Note_on_c, 1, 50, 0
2, 35392, Note_on_c, 1, 50, 83
2, 35456, Note_on_c, 0, 57, 0
2, 35456, Note_on_c, 0, 53, 83
2, 35520, Note_on_c, 1, 50, 0
2, 35520, Note_on_c, 1, 50, 83
2, 35584, Note_on_c, 0, 53, 0
2, 35584, Note_on_c, 0, 57, 100
2, 35648, Note_on_c, 1, 50, 0
2, 35648, Note_on_c, 1, 50, 83
2, 35712, Note_on_c, 0, 57, 0
2, 35712, Note_on_c, 0, 53, 83
2, 35776, Note_on_c, 1, 50, 0
2, 35776, Note_on_c, 1, 51, 83
2, 35840, Note_on_c, 1, 51, 0
2, 35840, Note_on_c, 0, 53, 0
2, 35840, Control_c, 0, 64, 0
2, 35840, Control_c, 0, 64, 127
2, 35840, Control_c, 1, 64, 0
2, 35840, Control_c, 1, 64, 127
2, 35840, Note_on_c, 1, 39, 83
2, 35904, Note_on_c, 0, 55, 83
2, 35968, Note_on_c, 0, 55, 0
2, 35968, Note_on_c, 0, 58, 83
2, 36032, Note_on_c, 0, 58, 0
2, 36032, Note_on_c, 0, 63, 83
2, 36096, Note_on_c, 0, 63, 0
2, 36096, Note_on_c, 0, 67, 83
2, 36160, Note_on_c, 0, 67, 0
2, 36160, Note_on_c, 0, 70, 83
2, 36224, Note_on_c, 0, 70, 0
2, 36224, Note_on_c, 0, 75, 83
2, 36288, Note_on_c, 1, 39, 0
2, 36288, Note_on_c, 0, 75, 0
2, 36288, Note_on_c, 0, 79, 83
2, 36288, Note_on_c, 1, 53, 83
2, 36352, Note_on_c, 1, 53, 0
2, 36352, Note_on_c, 0, 79, 0
2, 36352, Control_c, 0, 64, 0
2, 36352, Control_c, 0, 64, 127
2, 36352, Note_on_c, 0, 74, 83
2, 36352, Control_c, 1, 64, 0
2, 36352, Control_c, 1, 64, 127
2, 36352, Note_on_c, 1, 41, 83
2, 36416, Note_on_c, 0, 74, 0
2, 36416, Note_on_c, 0, 77, 83
2, 36480, Note_on_c, 0, 77, 0
2, 36480, Note_on_c, 0, 75, 83
2, 36544, Note_on_c, 0, 75, 0
2, 36544, Note_on_c, 0, 74, 83
2, 36608, Note_on_c, 1, 41, 0
2, 36608, Note_on_c, 0, 74, 0
2, 36608, Note_on_c, 0, 72, 83
2, 36608, Note_on_c, 1, 48, 83
2, 36672, Note_on_c, 0, 72, 0
2, 36672, Note_on_c, 0, 70, 83
2, 36736, Note_on_c, 0, 70, 0
2, 36736, Note_on_c, 0, 72, 83
2, 36800, Note_on_c, 1, 48, 0
2, 36800, Note_on_c, 0, 72, 0
2, 36800, Note_on_c, 0, 74, 83
2, 36800, Note_on_c, 1, 46, 83
2, 36864, Note_on_c, 1, 46, 0
2, 36864, Note_on_c, 0, 74, 0
2, 36864, Control_c, 0, 64, 0
2, 36864, Control_c, 0, 64, 127
2, 36864, Note_on_c, 0, 70, 83
2, 36864, Control_c, 1, 64, 0
2, 36864, Control_c, 1, 64, 127
2, 36864, Note_on_c, 1, 34, 83
2, 36928, Note_on_c, 1, 34, 0
2, 36928, Note_on_c, 1, 46, 83
2, 37056, Note_on_c, 0, 70, 0
2, 37056, Note_on_c, 0, 70, 100
2, 37120, Note_on_c, 1, 46, 0
2, 37120, Note_on_c, 1, 46, 83
2, 37184, Note_on_c, 0, 70, 0
2, 37184, Note_on_c, 0, 74, 100
2, 37248, Note_on_c, 0, 74, 0
2, 37248, Note_on_c, 0, 70, 83
2, 37312, Note_on_c, 1, 46, 0
2, 37312, Note_on_c, 1, 46, 83
2, 37376, Note_on_c, 0, 70, 0
2, 37376, Note_on_c, 0, 81, 100
2, 37440, Note_on_c, 1, 46, 0
2, 37440, Note_on_c, 1, 46, 83
2, 37568, Note_on_c, 1, 46, 0
2, 37568, Note_on_c, 1, 46, 83
2, 37632, Note_on_c, 0, 81, 0
2, 37632, Note_on_c, 0, 77, 100
2, 37696, Note_on_c, 1, 46, 0
2, 37696, Note_on_c, 1, 46, 83
2, 37824, Note_on_c, 1, 46, 0
2, 37824, Note_on_c, 1, 51, 83
2, 37888, Note_on_c, 1, 51, 0
2, 37888, Note_on_c, 0, 77, 0
2, 37888, Control_c, 0, 64, 0
2, 37888, Control_c, 0, 64, 127
2, 37888, Control_c, 1, 64, 0
2, 37888, Control_c, 1, 64, 127
2, 37888, Note_on_c, 1, 39, 83
2, 37952, Note_on_c, 0, 51, 83
2, 38016, Note_on_c, 1, 39, 0
2, 38016, Note_on_c, 1, 46, 83
2, 38080, Note_on_c, 0, 51, 0
2, 38080, Note_on_c, 0, 55, 100
2, 38144, Note_on_c, 1, 46, 0
2, 38144, Note_on_c, 1, 51, 83
2, 38208, Note_on_c, 0, 55, 0
2, 38208, Note_on_c, 0, 58, 100
2, 38272, Note_on_c, 0, 58, 0
2, 38272, Note_on_c, 0, 55, 83
2, 38336, Note_on_c, 1, 51, 0
2, 38336, Note_on_c, 1, 53, 83
2, 38400, Note_on_c, 1, 53, 0
2, 38400, Note_on_c, 0, 55, 0
2, 38400, Control_c, 0, 64, 0
2, 38400, Control_c, 0, 64, 127
2, 38400, Note_on_c, 0, 60, 100
2, 38400, Control_c, 1, 64, 0
2, 38400, Control_c, 1, 64, 127
2, 38400, Note_on_c, 1, 41, 83
2, 38464, Note_on_c, 1, 41, 0
2, 38464, Note_on_c, 1, 48, 83
2, 38528, Note_on_c, 0, 60, 0
2, 38528, Note_on_c, 0, 53, 83
2, 38592, Note_on_c, 1, 48, 0
2, 38592, Note_on_c, 1, 48, 83
2, 38656, Note_on_c, 0, 53, 0
2, 38656, Note_on_c, 0, 57, 83
2, 38720, Note_on_c, 1, 48, 0
2, 38720, Note_on_c, 1, 53, 83
2, 38784, Note_on_c, 0, 57, 0
2, 38784, Note_on_c, 0, 57, 83
2, 38848, Note_on_c, 1, 53, 0
2, 38848, Note_on_c, 1, 53, 83
2, 38912, Note_on_c, 1, 53, 0
2, 38912, Note_on_c, 0, 57, 0
2, 38912, Control_c, 0, 64, 0
2, 38912, Control_c, 0, 64, 127
2, 38912, Control_c, 1, 64, 0
2, 38912, Control_c, 1, 64, 127
2, 38912, Note_on_c, 1, 46, 83
2, 38976, Note_on_c, 0, 58, 83
2, 39040, Note_on_c, 1, 46, 0
2, 39040, Note_on_c, 1, 53, 83
2, 39104, Note_on_c, 0, 58, 0
2, 39104, Note_on_c, 0, 62, 100
2, 39168, Note_on_c, 1, 53, 0
2, 39168, Note_on_c, 1, 53, 83
2, 39232, Note_on_c, 0, 62, 0
2, 39232, Note_on_c, 0, 65, 100
2, 39296, Note_on_c, 0, 65, 0
2, 39296, Note_on_c, 0, 62, 83
2, 39360, Note_on_c, 1, 53, 0
2, 39360, Note_on_c, 1, 57, 83
2, 39424, Note_on_c, 0, 62, 0
2, 39424, Note_on_c, 0, 69, 100
2, 39488, Note_on_c, 1, 57, 0
2, 39488, Note_on_c, 1, 53, 83
2, 39616, Note_on_c, 1, 53, 0
2, 39616, Note_on_c, 1, 57, 83
2, 39680, Note_on_c, 0, 69, 0
2, 39680, Note_on_c, 0, 65, 100
2, 39744, Note_on_c, 1, 57, 0
2, 39744, Note_on_c, 1, 53, 83
2, 39808, Note_on_c, 0, 65, 0
2, 39808, Note_on_c, 0, 62, 83
2, 39872, Note_on_c, 1, 53, 0
2, 39872, Note_on_c, 1, 51, 83
2, 39936, Note_on_c, 1, 51, 0
2, 39936, Note_on_c, 0, 62, 0
2, 39936, Control_c, 0, 64, 0
2, 39936, Control_c, 0, 64, 127
2, 39936, Control_c, 1, 64, 0
2, 39936, Control_c, 1, 64, 127
2, 39936, Note_on_c, 1, 39, 83
2, 40000, Note_on_c, 0, 55, 83
2, 40064, Note_on_c, 1, 39, 0
2, 40064, Note_on_c, 1, 51, 83
2, 40128, Note_on_c, 0, 55, 0
2, 40128, Note_on_c, 0, 58, 100
2, 40192, Note_on_c, 1, 51, 0
2, 40192, Note_on_c, 1, 51, 83
2, 40256, Note_on_c, 0, 58, 0
2, 40256, Note_on_c, 0, 63, 100
2, 40320, Note_on_c, 0, 63, 0
2, 40320, Note_on_c, 0, 58, 83
2, 40384, Note_on_c, 1, 51, 0
2, 40384, Note_on_c, 1, 53, 83
2, 40448, Note_on_c, 1, 53, 0
2, 40448, Note_on_c, 0, 58, 0
2, 40448, Control_c, 0, 64, 0
2, 40448, Control_c, 0, 64, 127
2, 40448, Note_on_c, 0, 65, 100
2, 40448, Control_c, 1, 64, 0
2, 40448, Control_c, 1, 64, 127
2, 40448, Note_on_c, 1, 41, 83
2, 40512, Note_on_c, 1, 41, 0
2, 40512, Note_on_c, 1, 48, 83
2, 40576, Note_on_c, 0, 65, 0
2, 40576, Note_on_c, 0, 57, 83
2, 40640, Note_on_c, 1, 48, 0
2, 40640, Note_on_c, 1, 53, 83
2, 40704, Note_on_c, 0, 57, 0
2, 40704, Note_on_c, 0, 60, 100
2, 40768, Note_on_c, 1, 53, 0
2, 40768, Note_on_c, 1, 53, 83
2, 40832, Note_on_c, 0, 60, 0
2, 40832, Note_on_c, 0, 57, 83
2, 40896, Note_on_c, 1, 53, 0
2, 40896, Note_on_c, 1, 50, 83
2, 40960, Note_on_c, 1, 50, 0
2, 40960, Note_on_c, 0, 57, 0
2, 40960, Control_c, 0, 64, 0
2, 40960, Control_c, 0, 64, 127
2, 40960, Note_on_c, 0, 59, 83
2, 40960, Control_c, 1, 64, 0
2, 40960, Control_c, 1, 64, 127
2, 40960, Note_on_c, 1, 43, 83
2, 41024, Note_on_c, 1, 43, 0
2, 41024, Note_on_c, 1, 50, 83
2, 41088, Note_on_c, 1, 50, 0
2, 41088, Note_on_c, 1, 55, 83
2, 41152, Note_on_c, 0, 59, 0
2, 41152, Note_on_c, 0, 55, 83
2, 41216, Note_on_c, 1, 55, 0
2, 41216, Note_on_c, 1, 50, 83
2, 41280, Note_on_c, 0, 55, 0
2, 41280, Note_on_c, 0, 62, 100
2, 41344, Note_on_c, 1, 50, 0
2, 41344, Note_on_c, 1, 55, 83
2, 41408, Note_on_c, 1, 55, 0
2, 41408, Note_on_c, 1, 50, 83
2, 41472, Note_on_c, 0, 62, 0
2, 41472, Note_on_c, 0, 66, 100
2, 41536, Note_on_c, 1, 50, 0
2, 41536, Note_on_c, 1, 55, 83
2, 41664, Note_on_c, 1, 55, 0
2, 41664, Note_on_c, 1, 50, 83
2, 41728, Note_on_c, 0, 66, 0
2, 41728, Note_on_c, 0, 62, 100
2, 41792, Note_on_c, 1, 50, 0
2, 41792, Note_on_c, 1, 55, 83
2, 41856, Note_on_c, 0, 62, 0
2, 41856, Note_on_c, 0, 55, 83
2, 41920, Note_on_c, 1, 55, 0
2, 41920, Note_on_c, 1, 48, 83
2, 41984, Note_on_c, 1, 48, 0
2, 41984, Note_on_c, 0, 55, 0
2, 41984, Control_c, 0, 64, 0
2, 41984, Control_c, 0, 64, 127
2, 41984, Control_c, 1, 64, 0
2, 41984, Control_c, 1, 64, 127
2, 41984, Note_on_c, 1, 36, 83
2, 42048, Note_on_c, 0, 52, 83
2, 42112, Note_on_c, 1, 36, 0
2, 42112, Note_on_c, 1, 36, 83
2, 42176, Note_on_c, 0, 52, 0
2, 42176, Note_on_c, 0, 55, 83
2, 42240, Note_on_c, 1, 36, 0
2, 42240, Note_on_c, 1, 48, 83
2, 42304, Note_on_c, 0, 55, 0
2, 42304, Note_on_c, 0, 60, 83
2, 42368, Note_on_c, 0, 60, 0
2, 42368, Note_on_c, 0, 52, 83
2, 42432, Note_on_c, 1, 48, 0
2, 42432, Note_on_c, 1, 50, 83
2, 42496, Note_on_c, 1, 50, 0
2, 42496, Note_on_c, 0, 52, 0
2, 42496, Control_c, 0, 64, 0
2, 42496, Control_c, 0, 64, 127
2, 42496, Note_on_c, 0, 54, 83
2, 42496, Control_c, 1, 64, 0
2, 42496, Control_c, 1, 64, 127
2, 42496, Note_on_c, 1, 38, 83
2, 42560, Note_on_c, 1, 38, 0
2, 42560, Note_on_c, 1, 45, 83
2, 42624, Note_on_c, 0, 54, 0
2, 42624, Note_on_c, 0, 55, 83
2, 42688, Note_on_c, 1, 45, 0
2, 42688, Note_on_c, 1, 50, 83
2, 42752, Note_on_c, 0, 55, 0
2, 42752, Note_on_c, 0, 57, 83
2, 42816, Note_on_c, 1, 50, 0
2, 42816, Note_on_c, 1, 50, 83
2, 42880, Note_on_c, 0, 57, 0
2, 42880, Note_on_c, 0, 59, 83
2, 42944, Note_on_c, 1, 50, 0
2, 42944, Note_on_c, 1, 50, 83
2, 43008, Note_on_c, 1, 50, 0
2, 43008, Note_on_c, 0, 59, 0
2, 43008, Control_c, 0, 64, 0
2, 43008, Control_c, 0, 64, 127
2, 43008, Control_c, 1, 64, 0
2, 43008, Control_c, 1, 64, 127
2, 43008, Note_on_c, 1, 43, 83
2, 43072, Note_on_c, 0, 55, 83
2, 43136, Note_on_c, 1, 43, 0
2, 43136, Note_on_c, 1, 50, 83
2, 43200, Note_on_c, 0, 55, 0
2, 43200, Note_on_c, 0, 62, 100
2, 43264, Note_on_c, 1, 50, 0
2, 43264, Note_on_c, 1, 59, 83
2, 43328, Note_on_c, 0, 62, 0
2, 43328, Note_on_c, 0, 66, 100
2, 43392, Note_on_c, 0, 66, 0
2, 43392, Note_on_c, 0, 62, 83
2, 43456, Note_on_c, 1, 59, 0
2, 43456, Note_on_c, 1, 59, 83
2, 43520, Note_on_c, 0, 62, 0
2, 43520, Note_on_c, 0, 66, 100
2, 43584, Note_on_c, 1, 59, 0
2, 43584, Note_on_c, 1, 55, 83
2, 43712, Note_on_c, 1, 55, 0
2, 43712, Note_on_c, 1, 50, 83
2, 43776, Note_on_c, 0, 66, 0
2, 43776, Note_on_c, 0, 62, 100
2, 43840, Note_on_c, 1, 50, 0
2, 43840, Note_on_c, 1, 52, 83
2, 43904, Note_on_c, 0, 62, 0
2, 43904, Note_on_c, 0, 55, 83
2, 43968, Note_on_c, 1, 52, 0
2, 43968, Note_on_c, 1, 55, 83
2, 44032, Note_on_c, 1, 55, 0
2, 44032, Note_on_c, 0, 55, 0
2, 44032, Control_c, 0, 64, 0
2, 44032, Control_c, 0, 64, 127
2, 44032, Control_c, 1, 64, 0
2, 44032, Control_c, 1, 64, 127
2, 44032, Note_on_c, 1, 48, 83
2, 44096, Note_on_c, 0, 62, 83
2, 44160, Note_on_c, 1, 48, 0
2, 44160, Note_on_c, 0, 62, 0
2, 44160, Note_on_c, 0, 67, 83
2, 44160, Note_on_c, 1, 55, 83
2, 44224, Note_on_c, 0, 67, 0
2, 44224, Note_on_c, 0, 71, 83
2, 44288, Note_on_c, 1, 55, 0
2, 44288, Note_on_c, 0, 71, 0
2, 44288, Note_on_c, 0, 72, 83
2, 44288, Note_on_c, 1, 60, 83
2, 44352, Note_on_c, 0, 72, 0
2, 44352, Note_on_c, 0, 71, 83
2, 44416, Note_on_c, 0, 71, 0
2, 44416, Note_on_c, 0, 69, 83
2, 44480, Note_on_c, 1, 60, 0
2, 44480, Note_on_c, 0, 69, 0
2, 44480, Note_on_c, 0, 67, 83
2, 44480, Note_on_c, 1, 57, 83
2, 44544, Note_on_c, 1, 57, 0
2, 44544, Note_on_c, 0, 67, 0
2, 44544, Control_c, 0, 64, 0
2, 44544, Control_c, 0, 64, 127
2, 44544, Note_on_c, 0, 62, 83
2, 44544, Control_c, 1, 64, 0
2, 44544, Control_c, 1, 64, 127
2, 44544, Note_on_c, 1, 50, 83
2, 44608, Note_on_c, 0, 62, 0
2, 44608, Note_on_c, 0, 64, 83
2, 44672, Note_on_c, 0, 64, 0
2, 44672, Note_on_c, 0, 66, 83
2, 44736, Note_on_c, 0, 66, 0
2, 44736, Note_on_c, 0, 67, 83
2, 44800, Note_on_c, 1, 50, 0
2, 44800, Note_on_c, 0, 67, 0
2, 44800, Note_on_c, 0, 69, 83
2, 44800, Note_on_c, 1, 57, 83
2, 44864, Note_on_c, 0, 69, 0
2, 44864, Note_on_c, 0, 64, 83
2, 44928, Note_on_c, 0, 64, 0
2, 44928, Note_on_c, 0, 62, 83
2, 44992, Note_on_c, 1, 57, 0
2, 44992, Note_on_c, 0, 62, 0
2, 44992, Note_on_c, 0, 59, 83
2, 44992, Note_on_c, 1, 55, 83
2, 45056, Note_on_c, 1, 55, 0
2, 45056, Note_on_c, 0, 59, 0
2, 45056, Control_c, 0, 64, 0
2, 45056, Control_c, 0, 64, 127
2, 45056, Control_c, 1, 64, 0
2, 45056, Control_c, 1, 64, 127
2, 45056, Note_on_c, 1, 43, 83
2, 45120, Note_on_c, 0, 55, 83
2, 45184, Note_on_c, 1, 43, 0
2, 45184, Note_on_c, 1, 50, 83
2, 45248, Note_on_c, 0, 55, 0
2, 45248, Note_on_c, 0, 62, 100
2, 45312, Note_on_c, 1, 50, 0
2, 45312, Note_on_c, 1, 50, 83
2, 45376, Note_on_c, 0, 62, 0
2, 45376, Note_on_c, 0, 66, 100
2, 45440, Note_on_c, 0, 66, 0
2, 45440, Note_on_c, 0, 62, 83
2, 45504, Note_on_c, 1, 50, 0
2, 45504, Note_on_c, 1, 57, 83
2, 45568, Note_on_c, 0, 62, 0
2, 45568, Note_on_c, 0, 67, 100
2, 45632, Note_on_c, 1, 57, 0
2, 45632, Note_on_c, 1, 50, 83
2, 45760, Note_on_c, 1, 50, 0
2, 45760, Note_on_c, 1, 59, 83
2, 45824, Note_on_c, 0, 67, 0
2, 45824, Note_on_c, 0, 66, 100
2, 45888, Note_on_c, 1, 59, 0
2, 45888, Note_on_c, 1, 50, 83
2, 45952, Note_on_c, 0, 66, 0
2, 45952, Note_on_c, 0, 62, 83
2, 46016, Note_on_c, 1, 50, 0
2, 46016, Note_on_c, 1, 48, 83
2, 46080, Note_on_c, 1, 48, 0
2, 46080, Note_on_c, 0, 62, 0
2, 46080, Control_c, 0, 64, 0
2, 46080, Control_c, 0, 64, 127
2, 46080, Control_c, 1, 64, 0
2, 46080, Control_c, 1, 64, 127
2, 46080, Note_on_c, 1, 36, 83
2, 46144, Note_on_c, 0, 52, 83
2, 46208, Note_on_c, 1, 36, 0
2, 46208, Note_on_c, 1, 43, 83
2, 46272, Note_on_c, 0, 52, 0
2, 46272, Note_on_c, 0, 55, 83
2, 46336, Note_on_c, 1, 43, 0
2, 46336, Note_on_c, 1, 48, 83
2, 46400, Note_on_c, 0, 55, 0
2, 46400, Note_on_c, 0, 60, 83
2, 46464, Note_on_c, 0, 60, 0
2, 46464, Note_on_c, 0, 55, 83
2, 46528, Note_on_c, 1, 48, 0
2, 46528, Note_on_c, 1, 50, 83
2, 46592, Note_on_c, 1, 50, 0
2, 46592, Note_on_c, 0, 55, 0
2, 46592, Control_c, 0, 64, 0
2, 46592, Control_c, 0, 64, 127
2, 46592, Control_c, 1, 64, 0
2, 46592, Control_c, 1, 64, 127
2, 46592, Note_on_c, 1, 38, 83
2, 46656, Note_on_c, 0, 54, 83
2, 46720, Note_on_c, 1, 38, 0
2, 46720, Note_on_c, 1, 45, 83
2, 46784, Note_on_c, 0, 54, 0
2, 46784, Note_on_c, 0, 55, 83
2, 46848, Note_on_c, 0, 55, 0
2, 46848, Note_on_c, 0, 57, 83
2, 46912, Note_on_c, 1, 45, 0
2, 46912, Note_on_c, 1, 50, 83
2, 46976, Note_on_c, 0, 57, 0
2, 46976, Note_on_c, 0, 59, 83
2, 47040, Note_on_c, 1, 50, 0
2, 47040, Note_on_c, 1, 50, 83
2, 47104, Note_on_c, 1, 50, 0
2, 47104, Note_on_c, 0, 59, 0
2, 47104, Control_c, 0, 64, 0
2, 47104, Control_c, 0, 64, 127
2, 47104, Control_c, 1, 64, 0
2, 47104, Control_c, 1, 64, 127
2, 47104, Note_on_c, 1, 43, 83
2, 47168, Note_on_c, 0, 55, 83
2, 47232, Note_on_c, 1, 43, 0
2, 47232, Note_on_c, 1, 50, 83
2, 47296, Note_on_c, 0, 55, 0
2, 47296, Note_on_c, 0, 62, 100
2, 47360, Note_on_c, 1, 50, 0
2, 47360, Note_on_c, 1, 59, 83
2, 47424, Note_on_c, 0, 62, 0
2, 47424, Note_on_c, 0, 66, 100
2, 47488, Note_on_c, 0, 66, 0
2, 47488, Note_on_c, 0, 62, 83
2, 47552, Note_on_c, 1, 59, 0
2, 47552, Note_on_c, 1, 59, 83
2, 47616, Note_on_c, 0, 62, 0
2, 47616, Note_on_c, 0, 66, 100
2, 47680, Note_on_c, 1, 59, 0
2, 47680, Note_on_c, 1, 55, 83
2, 47808, Note_on_c, 1, 55, 0
2, 47808, Note_on_c, 1, 59, 83
2, 47872, Note_on_c, 0, 66, 0
2, 47872, Note_on_c, 0, 62, 100
2, 47936, Note_on_c, 1, 59, 0
2, 47936, Note_on_c, 1, 59, 83
2, 48000, Note_on_c, 0, 62, 0
2, 48000, Note_on_c, 0, 67, 83
2, 48064, Note_on_c, 1, 59, 0
2, 48064, Note_on_c, 1, 55, 83
2, 48128, Note_on_c, 1, 55, 0
2, 48128, Note_on_c, 0, 67, 0
2, 48128, Control_c, 0, 64, 0
2, 48128, Control_c, 0, 64, 127
2, 48128, Control_c, 1, 64, 0
2, 48128, Control_c, 1, 64, 127
2, 48128, Note_on_c, 1, 48, 83
2, 48192, Note_on_c, 0, 64, 83
2, 48256, Note_on_c, 1, 48, 0
2, 48256, Note_on_c, 1, 55, 83
2, 48320, Note_on_c, 0, 64, 0
2, 48320, Note_on_c, 0, 60, 83
2, 48384, Note_on_c, 1, 55, 0
2, 48384, Note_on_c, 1, 55, 83
2, 48448, Note_on_c, 0, 60, 0
2, 48448, Note_on_c, 0, 67, 83
2, 48512, Note_on_c, 0, 67, 0
2, 48512, Note_on_c, 0, 62, 83
2, 48576, Note_on_c, 1, 55, 0
2, 48576, Note_on_c, 1, 57, 83
2, 48640, Note_on_c, 1, 57, 0
2, 48640, Note_on_c, 0, 62, 0
2, 48640, Control_c, 0, 64, 0
2, 48640, Control_c, 0, 64, 127
2, 48640, Note_on_c, 0, 66, 83
2, 48640, Control_c, 1, 64, 0
2, 48640, Control_c, 1, 64, 127
2, 48640, Note_on_c, 1, 50, 83
2, 48704, Note_on_c, 1, 50, 0
2, 48704, Note_on_c, 1, 57, 83
2, 48768, Note_on_c, 0, 66, 0
2, 48768, Note_on_c, 0, 62, 83
2, 48832, Note_on_c, 1, 57, 0
2, 48832, Note_on_c, 1, 57, 83
2, 48896, Note_on_c, 0, 62, 0
2, 48896, Note_on_c, 0, 67, 83
2, 48960, Note_on_c, 1, 57, 0
2, 48960, Note_on_c, 1, 57, 83
2, 49024, Note_on_c, 0, 67, 0
2, 49024, Note_on_c, 0, 62, 83
2, 49088, Note_on_c, 1, 57, 0
2, 49088, Note_on_c, 1, 60, 83
2, 49152, Note_on_c, 1, 60, 0
2, 49152, Note_on_c, 0, 62, 0
2, 49152, Control_c, 0, 64, 0
2, 49152, Control_c, 0, 64, 127
2, 49152, Control_c, 1, 64, 0
2, 49152, Control_c, 1, 64, 127
2, 49152, Note_on_c, 1, 48, 83
2, 49216, Note_on_c, 0, 62, 83
2, 49280, Note_on_c, 1, 48, 0
2, 49280, Note_on_c, 1, 55, 83
2, 49344, Note_on_c, 0, 62, 0
2, 49344, Note_on_c, 0, 67, 100
2, 49408, Note_on_c, 1, 55, 0
2, 49408, Note_on_c, 1, 60, 83
2, 49472, Note_on_c, 0, 67, 0
2, 49472, Note_on_c, 0, 71, 100
2, 49536, Note_on_c, 0, 71, 0
2, 49536, Note_on_c, 0, 67, 83
2, 49600, Note_on_c, 1, 60, 0
2, 49600, Note_on_c, 1, 55, 83
2, 49664, Note_on_c, 0, 67, 0
2, 49664, Note_on_c, 0, 71, 100
2, 49728, Note_on_c, 1, 55, 0
2, 49728, Note_on_c, 1, 60, 83
2, 49856, Note_on_c, 1, 60, 0
2, 49856, Note_on_c, 1, 55, 83
2, 49920, Note_on_c, 0, 71, 0
2, 49920, Note_on_c, 0, 67, 100
2, 49984, Note_on_c, 1, 55, 0
2, 49984, Note_on_c, 1, 55, 83
2, 50048, Note_on_c, 0, 67, 0
2, 50048, Note_on_c, 0, 62, 83
2, 50112, Note_on_c, 1, 55, 0
2, 50112, Note_on_c, 1, 53, 83
2, 50176, Note_on_c, 1, 53, 0
2, 50176, Note_on_c, 0, 62, 0
2, 50176, Control_c, 0, 64, 0
2, 50176, Control_c, 0, 64, 127
2, 50176, Control_c, 1, 64, 0
2, 50176, Control_c, 1, 64, 127
2, 50176, Note_on_c, 1, 41, 83
2, 50240, Note_on_c, 0, 57, 83
2, 50304, Note_on_c, 1, 41, 0
2, 50304, Note_on_c, 1, 48, 83
2, 50368, Note_on_c, 0, 57, 0
2, 50368, Note_on_c, 0, 60, 83
2, 50432, Note_on_c, 1, 48, 0
2, 50432, Note_on_c, 1, 53, 83
2, 50496, Note_on_c, 0, 60, 0
2, 50496, Note_on_c, 0, 57, 83
2, 50560, Note_on_c, 0, 57, 0
2, 50560, Note_on_c, 0, 55, 83
2, 50624, Note_on_c, 1, 53, 0
2, 50624, Note_on_c, 1, 50, 83
2, 50688, Note_on_c, 1, 50, 0
2, 50688, Note_on_c, 0, 55, 0
2, 50688, Control_c, 0, 64, 0
2, 50688, Control_c, 0, 64, 127
2, 50688, Control_c, 1, 64, 0
2, 50688, Control_c, 1, 64, 127
2, 50688, Note_on_c, 1, 43, 83
2, 50752, Note_on_c, 0, 55, 83
2, 50816, Note_on_c, 1, 43, 0
2, 50816, Note_on_c, 1, 50, 83
2, 50880, Note_on_c, 0, 55, 0
2, 50880, Note_on_c, 0, 62, 100
2, 50944, Note_on_c, 0, 62, 0
2, 50944, Note_on_c, 0, 59, 83
2, 51008, Note_on_c, 1, 50, 0
2, 51008, Note_on_c, 1, 50, 83
2, 51072, Note_on_c, 0, 59, 0
2, 51072, Note_on_c, 0, 55, 83
2, 51136, Note_on_c, 1, 50, 0
2, 51136, Note_on_c, 1, 50, 83
2, 51200, Note_on_c, 1, 50, 0
2, 51200, Note_on_c, 0, 55, 0
2, 51200, Control_c, 0, 64, 0
2, 51200, Control_c, 0, 64, 127
2, 51200, Control_c, 1, 64, 0
2, 51200, Control_c, 1, 64, 127
2, 51200, Note_on_c, 1, 48, 83
2, 51264, Note_on_c, 0, 62, 83
2, 51328, Note_on_c, 1, 48, 0
2, 51328, Note_on_c, 1, 55, 83
2, 51392, Note_on_c, 0, 62, 0
2, 51392, Note_on_c, 0, 67, 100
2, 51456, Note_on_c, 1, 55, 0
2, 51456, Note_on_c, 1, 59, 83
2, 51520, Note_on_c, 0, 67, 0
2, 51520, Note_on_c, 0, 71, 100
2, 51584, Note_on_c, 0, 71, 0
2, 51584, Note_on_c, 0, 67, 83
2, 51648, Note_on_c, 1, 59, 0
2, 51648, Note_on_c, 1, 55, 83
2, 51712, Note_on_c, 0, 67, 0
2, 51712, Note_on_c, 0, 71, 100
2, 51776, Note_on_c, 1, 55, 0
2, 51776, Note_on_c, 1, 59, 83
2, 51904, Note_on_c, 1, 59, 0
2, 51904, Note_on_c, 1, 55, 83
2, 51968, Note_on_c, 0, 71, 0
2, 51968, Note_on_c, 0, 67, 100
2, 52032, Note_on_c, 1, 55, 0
2, 52032, Note_on_c, 1, 55, 83
2, 52096, Note_on_c, 0, 67, 0
2, 52096, Note_on_c, 0, 60, 83
2, 52160, Note_on_c, 1, 55, 0
2, 52160, Note_on_c, 1, 53, 83
2, 52224, Note_on_c, 1, 53, 0
2, 52224, Note_on_c, 0, 60, 0
2, 52224, Control_c, 0, 64, 0
2, 52224, Control_c, 0, 64, 127
2, 52224, Control_c, 1, 64, 0
2, 52224, Control_c, 1, 64, 127
2, 52224, Note_on_c, 1, 41, 83
2, 52288, Note_on_c, 0, 60, 83
2, 52352, Note_on_c, 0, 60, 0
2, 52352, Note_on_c, 0, 65, 83
2, 52416, Note_on_c, 0, 65, 0
2, 52416, Note_on_c, 0, 69, 83
2, 52480, Note_on_c, 1, 41, 0
2, 52480, Note_on_c, 0, 69, 0
2, 52480, Note_on_c, 0, 72, 83
2, 52480, Note_on_c, 1, 53, 83
2, 52544, Note_on_c, 0, 72, 0
2, 52544, Note_on_c, 0, 77, 83
2, 52608, Note_on_c, 0, 77, 0
2, 52608, Note_on_c, 0, 79, 83
2, 52672, Note_on_c, 1, 53, 0
2, 52672, Note_on_c, 0, 79, 0
2, 52672, Note_on_c, 0, 81, 83
2, 52672, Note_on_c, 1, 55, 83
2, 52736, Note_on_c, 1, 55, 0
2, 52736, Note_on_c, 0, 81, 0
2, 52736, Control_c, 0, 64, 0
2, 52736, Control_c, 0, 64, 127
2, 52736, Note_on_c, 0, 79, 83
2, 52736, Control_c, 1, 64, 0
2, 52736, Control_c, 1, 64, 127
2, 52736, Note_on_c, 1, 43, 83
2, 52800, Note_on_c, 0, 79, 0
2, 52800, Note_on_c, 0, 77, 83
2, 52864, Note_on_c, 0, 77, 0
2, 52864, Note_on_c, 0, 76, 83
2, 52928, Note_on_c, 0, 76, 0
2, 52928, Note_on_c, 0, 74, 83
2, 52992, Note_on_c, 1, 43, 0
2, 52992, Note_on_c, 0, 74, 0
2, 52992, Note_on_c, 0, 72, 83
2, 52992, Note_on_c, 1, 50, 83
2, 53056, Note_on_c, 0, 72, 0
2, 53056, Note_on_c, 0, 74, 83
2, 53120, Note_on_c, 0, 74, 0
2, 53120, Note_on_c, 0, 76, 83
2, 53184, Note_on_c, 1, 50, 0
2, 53184, Note_on_c, 0, 76, 0
2, 53184, Note_on_c, 0, 72, 83
2, 53184, Note_on_c, 1, 55, 83
2, 53248, Note_on_c, 1, 55, 0
2, 53248, Note_on_c, 0, 72, 0
2, 53248, Control_c, 0, 64, 0
2, 53248, Control_c, 0, 64, 127
2, 53248, Control_c, 1, 64, 0
2, 53248, Control_c, 1, 64, 127
2, 53248, Note_on_c, 1, 48, 83
2, 53312, Note_on_c, 0, 62, 83
2, 53376, Note_on_c, 1, 48, 0
2, 53376, Note_on_c, 1, 55, 83
2, 53440, Note_on_c, 0, 62, 0
2, 53440, Note_on_c, 0, 67, 100
2, 53504, Note_on_c, 1, 55, 0
2, 53504, Note_on_c, 1, 60, 83
2, 53568, Note_on_c, 0, 67, 0
2, 53568, Note_on_c, 0, 71, 100
2, 53632, Note_on_c, 0, 71, 0
2, 53632, Note_on_c, 0, 67, 83
2, 53696, Note_on_c, 1, 60, 0
2, 53696, Note_on_c, 1, 55, 83
2, 53760, Note_on_c, 0, 67, 0
2, 53760, Note_on_c, 0, 71, 100
2, 53824, Note_on_c, 1, 55, 0
2, 53824, Note_on_c, 1, 60, 83
2, 53952, Note_on_c, 1, 60, 0
2, 53952, Note_on_c, 1, 55, 83
2, 54016, Note_on_c, 0, 71, 0
2, 54016, Note_on_c, 0, 67, 100
2, 54080, Note_on_c, 1, 55, 0
2, 54080, Note_on_c, 1, 60, 83
2, 54144, Note_on_c, 0, 67, 0
2, 54144, Note_on_c, 0, 62, 83
2, 54208, Note_on_c, 1, 60, 0
2, 54208, Note_on_c, 1, 53, 83
2, 54272, Note_on_c, 1, 53, 0
2, 54272, Note_on_c, 0, 62, 0
2, 54272, Control_c, 0, 64, 0
2, 54272, Control_c, 0, 64, 127
2, 54272, Control_c, 1, 64, 0
2, 54272, Control_c, 1, 64, 127
2, 54272, Note_on_c, 1, 41, 83
2, 54336, Note_on_c, 0, 57, 83
2, 54400, Note_on_c, 1, 41, 0
2, 54400, Note_on_c, 1, 48, 83
2, 54464, Note_on_c, 0, 57, 0
2, 54464, Note_on_c, 0, 60, 100
2, 54528, Note_on_c, 1, 48, 0
2, 54528, Note_on_c, 1, 53, 83
2, 54592, Note_on_c, 0, 60, 0
2, 54592, Note_on_c, 0, 65, 100
2, 54656, Note_on_c, 0, 65, 0
2, 54656, Note_on_c, 0, 57, 83
2, 54720, Note_on_c, 1, 53, 0
2, 54720, Note_on_c, 1, 55, 83
2, 54784, Note_on_c, 1, 55, 0
2, 54784, Note_on_c, 0, 57, 0
2, 54784, Control_c, 0, 64, 0
2, 54784, Control_c, 0, 64, 127
2, 54784, Note_on_c, 0, 59, 100
2, 54784, Control_c, 1, 64, 0
2, 54784, Control_c, 1, 64, 127
2, 54784, Note_on_c, 1, 43, 83
2, 54848, Note_on_c, 1, 43, 0
2, 54848, Note_on_c, 1, 50, 83
2, 54912, Note_on_c, 0, 59, 0
2, 54912, Note_on_c, 0, 62, 100
2, 54976, Note_on_c, 1, 50, 0
2, 54976, Note_on_c, 1, 55, 83
2, 55040, Note_on_c, 0, 62, 0
2, 55040, Note_on_c, 0, 67, 100
2, 55104, Note_on_c, 1, 55, 0
2, 55104, Note_on_c, 1, 55, 83
2, 55168, Note_on_c, 0, 67, 0
2, 55168, Note_on_c, 0, 62, 83
2, 55232, Note_on_c, 1, 55, 0
2, 55232, Note_on_c, 1, 55, 83
2, 55296, Note_on_c, 1, 55, 0
2, 55296, Note_on_c, 0, 62, 0
2, 55296, Control_c, 0, 64, 0
2, 55296, Control_c, 0, 64, 127
2, 55296, Control_c, 1, 64, 0
2, 55296, Control_c, 1, 64, 127
2, 55296, Note_on_c, 1, 48, 83
2, 55360, Note_on_c, 0, 62, 83
2, 55424, Note_on_c, 1, 48, 0
2, 55424, Note_on_c, 1, 55, 83
2, 55488, Note_on_c, 1, 55, 0
2, 55488, Note_on_c, 0, 62, 0
2, 55488, Note_on_c, 0, 67, 100
2, 55488, Note_on_c, 1, 59, 83
2, 55616, Note_on_c, 0, 67, 0
2, 55616, Note_on_c, 0, 71, 100
2, 55680, Note_on_c, 0, 71, 0
2, 55680, Note_on_c, 0, 67, 83
2, 55744, Note_on_c, 1, 59, 0
2, 55744, Note_on_c, 1, 59, 83
2, 55808, Note_on_c, 0, 67, 0
2, 55808, Note_on_c, 0, 71, 100
2, 55872, Note_on_c, 1, 59, 0
2, 55872, Note_on_c, 1, 55, 83
2, 56000, Note_on_c, 1, 55, 0
2, 56000, Note_on_c, 1, 59, 83
2, 56064, Note_on_c, 0, 71, 0
2, 56064, Note_on_c, 0, 67, 100
2, 56128, Note_on_c, 1, 59, 0
2, 56128, Note_on_c, 1, 55, 83
2, 56192, Note_on_c, 0, 67, 0
2, 56192, Note_on_c, 0, 62, 83
2, 56256, Note_on_c, 1, 55, 0
2, 56256, Note_on_c, 1, 53, 83
2, 56320, Note_on_c, 1, 53, 0
2, 56320, Note_on_c, 0, 62, 0
2, 56320, Control_c, 0, 64, 0
2, 56320, Control_c, 0, 64, 127
2, 56320, Control_c, 1, 64, 0
2, 56320, Control_c, 1, 64, 127
2, 56320, Note_on_c, 1, 41, 83
2, 56384, Note_on_c, 0, 65, 83
2, 56448, Note_on_c, 0, 65, 0
2, 56448, Note_on_c, 0, 69, 83
2, 56512, Note_on_c, 0, 69, 0
2, 56512, Note_on_c, 0, 72, 83
2, 56576, Note_on_c, 1, 41, 0
2, 56576, Note_on_c, 0, 72, 0
2, 56576, Note_on_c, 0, 71, 83
2, 56576, Note_on_c, 1, 53, 83
2, 56640, Note_on_c, 0, 71, 0
2, 56640, Note_on_c, 0, 69, 83
2, 56704, Note_on_c, 0, 69, 0
2, 56704, Note_on_c, 0, 65, 83
2, 56768, Note_on_c, 1, 53, 0
2, 56768, Note_on_c, 0, 65, 0
2, 56768, Note_on_c, 0, 67, 83
2, 56768, Note_on_c, 1, 55, 83
2, 56832, Note_on_c, 1, 55, 0
2, 56832, Note_on_c, 0, 67, 0
2, 56832, Control_c, 0, 64, 0
2, 56832, Control_c, 0, 64, 127
2, 56832, Note_on_c, 0, 71, 83
2, 56832, Control_c, 1, 64, 0
2, 56832, Control_c, 1, 64, 127
2, 56832, Note_on_c, 1, 43, 83
2, 56896, Note_on_c, 0, 71, 0
2, 56896, Note_on_c, 0, 67, 83
2, 56960, Note_on_c, 1, 43, 0
2, 56960, Note_on_c, 0, 67, 0
2, 56960, Note_on_c, 0, 62, 83
2, 56960, Note_on_c, 1, 50, 83
2, 57024, Note_on_c, 0, 62, 0
2, 57024, Note_on_c, 0, 69, 83
2, 57088, Note_on_c, 1, 50, 0
2, 57088, Note_on_c, 1, 55, 83
2, 57152, Note_on_c, 0, 69, 0
2, 57152, Note_on_c, 0, 67, 83
2, 57216, Note_on_c, 0, 67, 0
2, 57216, Note_on_c, 0, 62, 83
2, 57280, Note_on_c, 1, 55, 0
2, 57280, Note_on_c, 1, 52, 83
2, 57408, Note_on_c, 1, 52, 0
2, 57408, Note_on_c, 1, 53, 83
2, 57472, Note_on_c, 1, 53, 0
2, 57472, Control_c, 1, 64, 0
2, 57472, Control_c, 1, 64, 127
2, 57472, Note_on_c, 1, 46, 83
2, 57536, Note_on_c, 0, 62, 0
2, 57536, Control_c, 0, 64, 0
2, 57536, Control_c, 0, 64, 127
2, 57536, Note_on_c, 0, 58, 100
2, 57600, Note_on_c, 1, 46, 0
2, 57600, Note_on_c, 1, 46, 83
2, 57664, Note_on_c, 0, 58, 0
2, 57664, Note_on_c, 0, 62, 100
2, 57728, Note_on_c, 0, 62, 0
2, 57728, Note_on_c, 0, 58, 83
2, 57792, Note_on_c, 1, 46, 0
2, 57792, Note_on_c, 1, 46, 83
2, 57856, Note_on_c, 1, 46, 0
2, 57856, Note_on_c, 0, 58, 0
2, 57856, Note_on_c, 0, 69, 100
2, 57856, Note_on_c, 1, 34, 83
2, 57920, Note_on_c, 1, 34, 0
2, 57920, Note_on_c, 1, 46, 83
2, 58048, Note_on_c, 1, 46, 0
2, 58048, Note_on_c, 1, 46, 83
2, 58112, Note_on_c, 0, 69, 0
2, 58112, Note_on_c, 0, 62, 100
2, 58176, Note_on_c, 1, 46, 0
2, 58176, Note_on_c, 1, 46, 83
2, 58240, Note_on_c, 0, 62, 0
2, 58240, Note_on_c, 0, 58, 83
2, 58304, Note_on_c, 1, 46, 0
2, 58304, Note_on_c, 1, 51, 83
2, 58368, Note_on_c, 1, 51, 0
2, 58368, Note_on_c, 0, 58, 0
2, 58368, Control_c, 0, 64, 0
2, 58368, Control_c, 0, 64, 127
2, 58368, Control_c, 1, 64, 0
2, 58368, Control_c, 1, 64, 127
2, 58368, Note_on_c, 1, 39, 83
2, 58432, Note_on_c, 0, 51, 83
2, 58496, Note_on_c, 1, 39, 0
2, 58496, Note_on_c, 1, 46, 83
2, 58560, Note_on_c, 0, 51, 0
2, 58560, Note_on_c, 0, 55, 100
2, 58624, Note_on_c, 1, 46, 0
2, 58624, Note_on_c, 1, 51, 83
2, 58688, Note_on_c, 0, 55, 0
2, 58688, Note_on_c, 0, 58, 100
2, 58752, Note_on_c, 0, 58, 0
2, 58752, Note_on_c, 0, 55, 83
2, 58816, Note_on_c, 1, 51, 0
2, 58816, Note_on_c, 1, 48, 83
2, 58880, Note_on_c, 1, 48, 0
2, 58880, Note_on_c, 0, 55, 0
2, 58880, Control_c, 0, 64, 0
2, 58880, Control_c, 0, 64, 127
2, 58880, Note_on_c, 0, 60, 100
2, 58880, Control_c, 1, 64, 0
2, 58880, Control_c, 1, 64, 127
2, 58880, Note_on_c, 1, 41, 83
2, 58944, Note_on_c, 1, 41, 0
2, 58944, Note_on_c, 1, 48, 83
2, 59008, Note_on_c, 0, 60, 0
2, 59008, Note_on_c, 0, 53, 83
2, 59072, Note_on_c, 1, 48, 0
2, 59072, Note_on_c, 1, 48, 83
2, 59136, Note_on_c, 0, 53, 0
2, 59136, Note_on_c, 0, 55, 83
2, 59200, Note_on_c, 1, 48, 0
2, 59200, Note_on_c, 1, 48, 83
2, 59264, Note_on_c, 0, 55, 0
2, 59264, Note_on_c, 0, 60, 83
2, 59328, Note_on_c, 1, 48, 0
2, 59328, Note_on_c, 1, 46, 83
2, 59392, Note_on_c, 1, 46, 0
2, 59392, Note_on_c, 0, 60, 0
2, 59392, Control_c, 0, 64, 0
2, 59392, Control_c, 0, 64, 127
2, 59392, Control_c, 1, 64, 0
2, 59392, Control_c, 1, 64, 127
2, 59392, Note_on_c, 1, 34, 83
2, 59456, Note_on_c, 0, 46, 83
2, 59520, Note_on_c, 1, 34, 0
2, 59520, Note_on_c, 1, 41, 83
2, 59584, Note_on_c, 0, 46, 0
2, 59584, Note_on_c, 0, 50, 100
2, 59648, Note_on_c, 1, 41, 0
2, 59648, Note_on_c, 1, 46, 83
2, 59712, Note_on_c, 0, 50, 0
2, 59712, Note_on_c, 0, 53, 100
2, 59776, Note_on_c, 0, 53, 0
2, 59776, Note_on_c, 0, 50, 83
2, 59840, Note_on_c, 1, 46, 0
2, 59840, Note_on_c, 1, 41, 83
2, 59904, Note_on_c, 0, 50, 0
2, 59904, Note_on_c, 0, 57, 100
2, 59968, Note_on_c, 1, 41, 0
2, 59968, Note_on_c, 1, 46, 83
2, 60032, Note_on_c, 0, 57, 0
2, 60032, Note_on_c, 0, 53, 83
2, 60096, Note_on_c, 1, 46, 0
2, 60096, Note_on_c, 1, 41, 83
2, 60160, Note_on_c, 0, 53, 0
2, 60160, Note_on_c, 0, 57, 100
2, 60224, Note_on_c, 1, 41, 0
2, 60224, Note_on_c, 1, 46, 83
2, 60288, Note_on_c, 0, 57, 0
2, 60288, Note_on_c, 0, 53, 83
2, 60352, Note_on_c, 1, 46, 0
2, 60352, Note_on_c, 1, 51, 83
2, 60416, Note_on_c, 1, 51, 0
2, 60416, Note_on_c, 0, 53, 0
2, 60416, Control_c, 0, 64, 0
2, 60416, Control_c, 0, 64, 127
2, 60416, Control_c, 1, 64, 0
2, 60416, Control_c, 1, 64, 127
2, 60416, Note_on_c, 1, 39, 83
2, 60480, Note_on_c, 0, 55, 83
2, 60544, Note_on_c, 0, 55, 0
2, 60544, Note_on_c, 0, 58, 83
2, 60608, Note_on_c, 0, 58, 0
2, 60608, Note_on_c, 0, 63, 83
2, 60672, Note_on_c, 1, 39, 0
2, 60672, Note_on_c, 0, 63, 0
2, 60672, Note_on_c, 0, 67, 83
2, 60672, Note_on_c, 1, 51, 83
2, 60736, Note_on_c, 0, 67, 0
2, 60736, Note_on_c, 0, 70, 83
2, 60800, Note_on_c, 0, 70, 0
2, 60800, Note_on_c, 0, 75, 83
2, 60864, Note_on_c, 1, 51, 0
2, 60864, Note_on_c, 0, 75, 0
2, 60864, Note_on_c, 0, 77, 83
2, 60864, Note_on_c, 1, 53, 83
2, 60928, Note_on_c, 1, 53, 0
2, 60928, Note_on_c, 0, 77, 0
2, 60928, Control_c, 0, 64, 0
2, 60928, Control_c, 0, 64, 127
2, 60928, Note_on_c, 0, 75, 83
2, 60928, Control_c, 1, 64, 0
2, 60928, Control_c, 1, 64, 127
2, 60928, Note_on_c, 1, 41, 83
2, 60992, Note_on_c, 1, 41, 0
2, 60992, Note_on_c, 1, 48, 83
2, 61024, Note_on_c, 0, 75, 0
2, 61024, Note_on_c, 0, 74, 83
2, 61024, Note_on_c, 0, 77, 83
2, 61120, Note_on_c, 0, 77, 0
2, 61120, Note_on_c, 0, 74, 0
2, 61120, Note_on_c, 0, 72, 83
2, 61120, Note_on_c, 0, 77, 83
2, 61184, Note_on_c, 1, 48, 0
2, 61184, Note_on_c, 1, 53, 83
2, 61248, Note_on_c, 0, 77, 0
2, 61248, Note_on_c, 0, 72, 0
2, 61248, Note_on_c, 0, 70, 83
2, 61248, Note_on_c, 0, 77, 83
2, 61376, Note_on_c, 1, 53, 0
2, 61376, Note_on_c, 1, 58, 83
2, 61440, Note_on_c, 1, 58, 0
2, 61440, Note_on_c, 0, 77, 0
2, 61440, Note_on_c, 0, 70, 0
2, 61440, Control_c, 0, 64, 0
2, 61440, Control_c, 0, 64, 127
2, 61440, Control_c, 1, 64, 0
2, 61440, Control_c, 1, 64, 127
2, 61440, Note_on_c, 1, 46, 83
2, 61504, Note_on_c, 0, 58, 83
2, 61568, Note_on_c, 1, 46, 0
2, 61568, Note_on_c, 1, 53, 83
2, 61632, Note_on_c, 0, 58, 0
2, 61632, Note_on_c, 0, 62, 100
2, 61696, Note_on_c, 1, 53, 0
2, 61696, Note_on_c, 1, 58, 83
2, 61760, Note_on_c, 0, 62, 0
2, 61760, Note_on_c, 0, 65, 100
2, 61824, Note_on_c, 0, 65, 0
2, 61824, Note_on_c, 0, 62, 83
2, 61888, Note_on_c, 1, 58, 0
2, 61888, Note_on_c, 1, 53, 83
2, 61952, Note_on_c, 0, 62, 0
2, 61952, Note_on_c, 0, 69, 100
2, 62016, Note_on_c, 1, 53, 0
2, 62016, Note_on_c, 1, 58, 83
2, 62144, Note_on_c, 1, 58, 0
2, 62144, Note_on_c, 1, 53, 83
2, 62208, Note_on_c, 0, 69, 0
2, 62208, Note_on_c, 0, 65, 100
2, 62272, Note_on_c, 1, 53, 0
2, 62272, Note_on_c, 1, 51, 83
2, 62336, Note_on_c, 0, 65, 0
2, 62336, Note_on_c, 0, 62, 83
2, 62400, Note_on_c, 1, 51, 0
2, 62400, Note_on_c, 1, 46, 83
2, 62464, Note_on_c, 1, 46, 0
2, 62464, Note_on_c, 0, 62, 0
2, 62464, Control_c, 0, 64, 0
2, 62464, Control_c, 0, 64, 127
2, 62464, Control_c, 1, 64, 0
2, 62464, Control_c, 1, 64, 127
2, 62464, Note_on_c, 1, 39, 83
2, 62528, Note_on_c, 0, 55, 83
2, 62592, Note_on_c, 1, 39, 0
2, 62592, Note_on_c, 1, 46, 83
2, 62656, Note_on_c, 0, 55, 0
2, 62656, Note_on_c, 0, 58, 100
2, 62720, Note_on_c, 1, 46, 0
2, 62720, Note_on_c, 1, 53, 83
2, 62784, Note_on_c, 0, 58, 0
2, 62784, Note_on_c, 0, 63, 100
2, 62848, Note_on_c, 0, 63, 0
2, 62848, Note_on_c, 0, 58, 83
2, 62912, Note_on_c, 1, 53, 0
2, 62912, Note_on_c, 1, 48, 83
2, 62976, Note_on_c, 1, 48, 0
2, 62976, Note_on_c, 0, 58, 0
2, 62976, Control_c, 0, 64, 0
2, 62976, Control_c, 0, 64, 127
2, 62976, Note_on_c, 0, 60, 100
2, 62976, Note_on_c, 0, 65, 100
2, 62976, Note_on_c, 0, 57, 71
2, 62976, Control_c, 1, 64, 0
2, 62976, Control_c, 1, 64, 127
2, 62976, Note_on_c, 1, 41, 83
2, 63040, Note_on_c, 1, 41, 0
2, 63040, Note_on_c, 1, 48, 83
2, 63104, Note_on_c, 0, 57, 0
2, 63104, Note_on_c, 0, 58, 71
2, 63168, Note_on_c, 1, 48, 0
2, 63168, Note_on_c, 1, 53, 83
2, 63232, Note_on_c, 0, 58, 0
2, 63232, Note_on_c, 0, 65, 0
2, 63232, Note_on_c, 0, 60, 0
2, 63232, Note_on_c, 0, 60, 100
2, 63232, Note_on_c, 0, 65, 100
2, 63232, Note_on_c, 0, 57, 71
2, 63296, Note_on_c, 1, 53, 0
2, 63296, Note_on_c, 1, 48, 83
2, 63360, Note_on_c, 0, 57, 0
2, 63360, Note_on_c, 0, 58, 71
2, 63424, Note_on_c, 1, 48, 0
2, 63424, Note_on_c, 1, 46, 83
2, 63488, Note_on_c, 1, 46, 0
2, 63488, Note_on_c, 0, 58, 0
2, 63488, Note_on_c, 0, 65, 0
2, 63488, Note_on_c, 0, 60, 0
2, 63488, Control_c, 0, 64, 0
2, 63488, Control_c, 0, 64, 127
2, 63488, Control_c, 1, 64, 0
2, 63488, Control_c, 1, 64, 127
2, 63488, Note_on_c, 1, 34, 83
2, 63552, Note_on_c, 0, 50, 83
2, 63616, Note_on_c, 1, 34, 0
2, 63616, Note_on_c, 1, 46, 83
2, 63680, Note_on_c, 0, 50, 0
2, 63680, Note_on_c, 0, 53, 100
2, 63744, Note_on_c, 1, 46, 0
2, 63744, Note_on_c, 1, 46, 83
2, 63808, Note_on_c, 0, 53, 0
2, 63808, Note_on_c, 0, 58, 100
2, 63872, Note_on_c, 0, 58, 0
2, 63872, Note_on_c, 0, 53, 83
2, 63936, Note_on_c, 1, 46, 0
2, 63936, Note_on_c, 1, 46, 83
2, 64000, Note_on_c, 1, 46, 0
2, 64000, Note_on_c, 0, 53, 0
2, 64000, Note_on_c, 0, 62, 100
2, 64000, Note_on_c, 1, 34, 83
2, 64064, Note_on_c, 1, 34, 0
2, 64064, Note_on_c, 1, 41, 83
2, 64128, Note_on_c, 0, 62, 0
2, 64128, Note_on_c, 0, 58, 83
2, 64192, Note_on_c, 1, 41, 0
2, 64192, Note_on_c, 1, 46, 83
2, 64256, Note_on_c, 0, 58, 0
2, 64256, Note_on_c, 0, 53, 83
2, 64320, Note_on_c, 1, 46, 0
2, 64320, Note_on_c, 1, 46, 83
2, 64384, Note_on_c, 0, 53, 0
2, 64384, Note_on_c, 0, 58, 83
2, 64448, Note_on_c, 1, 46, 0
2, 64448, Note_on_c, 1, 51, 83
2, 64512, Note_on_c, 1, 51, 0
2, 64512, Note_on_c, 0, 58, 0
2, 64512, Control_c, 0, 64, 0
2, 64512, Control_c, 0, 64, 127
2, 64512, Control_c, 1, 64, 0
2, 64512, Control_c, 1, 64, 127
2, 64512, Note_on_c, 1, 39, 83
2, 64576, Note_on_c, 0, 55, 83
2, 64640, Note_on_c, 1, 39, 0
2, 64640, Note_on_c, 1, 46, 83
2, 64704, Note_on_c, 0, 55, 0
2, 64704, Note_on_c, 0, 58, 83
2, 64768, Note_on_c, 1, 46, 0
2, 64768, Note_on_c, 1, 51, 83
2, 64832, Note_on_c, 0, 58, 0
2, 64832, Note_on_c, 0, 63, 83
2, 64896, Note_on_c, 0, 63, 0
2, 64896, Note_on_c, 0, 55, 83
2, 64960, Note_on_c, 1, 51, 0
2, 64960, Note_on_c, 1, 53, 83
2, 65024, Note_on_c, 1, 53, 0
2, 65024, Note_on_c, 0, 55, 0
2, 65024, Control_c, 0, 64, 0
2, 65024, Control_c, 0, 64, 127
2, 65024, Note_on_c, 0, 57, 83
2, 65024, Control_c, 1, 64, 0
2, 65024, Control_c, 1, 64, 127
2, 65024, Note_on_c, 1, 41, 83
2, 65088, Note_on_c, 1, 41, 0
2, 65088, Note_on_c, 1, 48, 83
2, 65152, Note_on_c, 0, 57, 0
2, 65152, Note_on_c, 0, 60, 83
2, 65216, Note_on_c, 1, 48, 0
2, 65216, Note_on_c, 1, 53, 83
2, 65280, Note_on_c, 1, 53, 0
2, 65280, Note_on_c, 0, 60, 0
2, 65280, Note_on_c, 0, 60, 100
2, 65280, Note_on_c, 0, 65, 100
2, 65280, Note_on_c, 1, 57, 83
2, 65408, Note_on_c, 0, 65, 0
2, 65408, Note_on_c, 0, 60, 0
2, 65408, Note_on_c, 0, 62, 83
2, 65472, Note_on_c, 1, 57, 0
2, 65472, Note_on_c, 1, 50, 83
2, 65536, Note_on_c, 1, 50, 0
2, 65536, Note_on_c, 0, 62, 0
2, 65536, Control_c, 0, 64, 0
2, 65536, Control_c, 0, 64, 127
2, 65536, Note_on_c, 0, 55, 83
2, 65536, Note_on_c, 0, 62, 83
2, 65536, Control_c, 1, 64, 0
2, 65536, Control_c, 1, 64, 127
2, 65536, Note_on_c, 1, 43, 83
2, 65600, Note_on_c, 1, 43, 0
2, 65600, Note_on_c, 1, 50, 83
2, 65664, Note_on_c, 1, 50, 0
2, 65664, Note_on_c, 1, 55, 83
2, 65792, Note_on_c, 1, 55, 0
2, 65792, Note_on_c, 0, 62, 0
2, 65792, Note_on_c, 0, 55, 0
2, 65792, Note_on_c, 1, 50, 83
2, 65856, Note_on_c, 0, 62, 100
2, 65920, Note_on_c, 1, 50, 0
2, 65920, Note_on_c, 1, 55, 83
2, 66048, Note_on_c, 0, 62, 0
2, 66048, Note_on_c, 0, 66, 100
2, 66112, Note_on_c, 1, 55, 0
2, 66112, Note_on_c, 1, 55, 83
2, 66240, Note_on_c, 1, 55, 0
2, 66240, Note_on_c, 1, 50, 83
2, 66304, Note_on_c, 0, 66, 0
2, 66304, Note_on_c, 0, 62, 100
2, 66368, Note_on_c, 1, 50, 0
2, 66368, Note_on_c, 1, 50, 83
2, 66432, Note_on_c, 0, 62, 0
2, 66432, Note_on_c, 0, 55, 83
2, 66496, Note_on_c, 1, 50, 0
2, 66496, Note_on_c, 1, 52, 83
2, 66560, Note_on_c, 1, 52, 0
2, 66560, Note_on_c, 0, 55, 0
2, 66560, Control_c, 0, 64, 0
2, 66560, Control_c, 0, 64, 127
2, 66560, Control_c, 1, 64, 0
2, 66560, Control_c, 1, 64, 127
2, 66560, Note_on_c, 1, 36, 83
2, 66624, Note_on_c, 0, 55, 83
2, 66688, Note_on_c, 1, 36, 0
2, 66688, Note_on_c, 1, 43, 83
2, 66752, Note_on_c, 0, 55, 0
2, 66752, Note_on_c, 0, 62, 83
2, 66816, Note_on_c, 1, 43, 0
2, 66816, Note_on_c, 1, 52, 83
2, 66880, Note_on_c, 0, 62, 0
2, 66880, Note_on_c, 0, 55, 83
2, 66944, Note_on_c, 0, 55, 0
2, 66944, Note_on_c, 0, 62, 83
2, 67008, Note_on_c, 1, 52, 0
2, 67008, Note_on_c, 1, 52, 83
2, 67072, Note_on_c, 1, 52, 0
2, 67072, Note_on_c, 0, 62, 0
2, 67072, Control_c, 0, 64, 0
2, 67072, Control_c, 0, 64, 127
2, 67072, Control_c, 1, 64, 0
2, 67072, Control_c, 1, 64, 127
2, 67072, Note_on_c, 1, 38, 83
2, 67136, Note_on_c, 0, 55, 83
2, 67200, Note_on_c, 1, 38, 0
2, 67200, Note_on_c, 1, 45, 83
2, 67264, Note_on_c, 0, 55, 0
2, 67264, Note_on_c, 0, 55, 83
2, 67328, Note_on_c, 0, 55, 0
2, 67328, Note_on_c, 0, 62, 83
2, 67392, Note_on_c, 1, 45, 0
2, 67392, Note_on_c, 1, 52, 83
2, 67456, Note_on_c, 0, 62, 0
2, 67456, Note_on_c, 0, 55, 83
2, 67520, Note_on_c, 1, 52, 0
2, 67520, Note_on_c, 1, 50, 83
2, 67584, Note_on_c, 1, 50, 0
2, 67584, Note_on_c, 0, 55, 0
2, 67584, Control_c, 0, 64, 0
2, 67584, Control_c, 0, 64, 127
2, 67584, Control_c, 1, 64, 0
2, 67584, Control_c, 1, 64, 127
2, 67584, Note_on_c, 1, 43, 83
2, 67648, Note_on_c, 0, 55, 83
2, 67712, Note_on_c, 1, 43, 0
2, 67712, Note_on_c, 1, 50, 83
2, 67776, Note_on_c, 0, 55, 0
2, 67776, Note_on_c, 0, 62, 100
2, 67840, Note_on_c, 1, 50, 0
2, 67840, Note_on_c, 1, 50, 83
2, 67904, Note_on_c, 0, 62, 0
2, 67904, Note_on_c, 0, 66, 100
2, 67968, Note_on_c, 0, 66, 0
2, 67968, Note_on_c, 0, 62, 83
2, 68032, Note_on_c, 1, 50, 0
2, 68032, Note_on_c, 1, 50, 83
2, 68096, Note_on_c, 1, 50, 0
2, 68096, Note_on_c, 0, 62, 0
2, 68096, Note_on_c, 0, 66, 100
2, 68096, Note_on_c, 1, 55, 83
2, 68160, Note_on_c, 1, 55, 0
2, 68160, Note_on_c, 1, 50, 83
2, 68288, Note_on_c, 1, 50, 0
2, 68288, Note_on_c, 1, 50, 83
2, 68352, Note_on_c, 0, 66, 0
2, 68352, Note_on_c, 0, 62, 100
2, 68416, Note_on_c, 1, 50, 0
2, 68416, Note_on_c, 1, 50, 83
2, 68480, Note_on_c, 0, 62, 0
2, 68480, Note_on_c, 0, 55, 83
2, 68544, Note_on_c, 1, 50, 0
2, 68544, Note_on_c, 1, 52, 83
2, 68608, Note_on_c, 1, 52, 0
2, 68608, Note_on_c, 0, 55, 0
2, 68608, Control_c, 0, 64, 0
2, 68608, Control_c, 0, 64, 127
2, 68608, Control_c, 1, 64, 0
2, 68608, Control_c, 1, 64, 127
2, 68608, Note_on_c, 1, 36, 83
2, 68672, Note_on_c, 0, 55, 83
2, 68736, Note_on_c, 1, 36, 0
2, 68736, Note_on_c, 1, 43, 83
2, 68800, Note_on_c, 0, 55, 0
2, 68800, Note_on_c, 0, 62, 100
2, 68864, Note_on_c, 1, 43, 0
2, 68864, Note_on_c, 1, 52, 83
2, 68928, Note_on_c, 0, 62, 0
2, 68928, Note_on_c, 0, 66, 100
2, 68992, Note_on_c, 0, 66, 0
2, 68992, Note_on_c, 0, 55, 83
2, 69056, Note_on_c, 1, 52, 0
2, 69056, Note_on_c, 1, 50, 83
2, 69120, Note_on_c, 1, 50, 0
2, 69120, Note_on_c, 0, 55, 0
2, 69120, Control_c, 1, 64, 0
2, 69120, Control_c, 1, 64, 127
2, 69120, Note_on_c, 1, 38, 83
2, 69184, Note_on_c, 1, 38, 0
2, 69184, Note_on_c, 1, 43, 83
2, 69248, Note_on_c, 1, 43, 0
2, 69248, Note_on_c, 1, 45, 83
2, 69312, Note_on_c, 0, 62, 100
2, 69312, Note_on_c, 0, 67, 100
2, 69376, Note_on_c, 0, 67, 0
2, 69376, Note_on_c, 0, 62, 0
2, 69376, Note_on_c, 0, 66, 83
2, 69440, Note_on_c, 1, 45, 0
2, 69440, Note_on_c, 1, 50, 83
2, 69504, Note_on_c, 0, 66, 0
2, 69504, Note_on_c, 0, 62, 83
2, 69568, Note_on_c, 1, 50, 0
2, 69568, Note_on_c, 1, 50, 83
2, 69632, Note_on_c, 1, 50, 0
2, 69632, Note_on_c, 0, 62, 0
2, 69632, Control_c, 0, 64, 0
2, 69632, Control_c, 0, 64, 127
2, 69632, Control_c, 1, 64, 0
2, 69632, Control_c, 1, 64, 127
2, 69632, Note_on_c, 1, 43, 83
2, 69696, Note_on_c, 0, 55, 83
2, 69760, Note_on_c, 1, 43, 0
2, 69760, Note_on_c, 1, 50, 83
2, 69824, Note_on_c, 0, 55, 0
2, 69824, Note_on_c, 0, 62, 100
2, 69888, Note_on_c, 1, 50, 0
2, 69888, Note_on_c, 1, 50, 83
2, 69952, Note_on_c, 1, 50, 0
2, 69952, Note_on_c, 0, 62, 0
2, 69952, Note_on_c, 0, 66, 100
2, 69952, Note_on_c, 1, 55, 83
2, 70016, Note_on_c, 0, 66, 0
2, 70016, Note_on_c, 0, 62, 83
2, 70080, Note_on_c, 1, 55, 0
2, 70080, Note_on_c, 1, 50, 83
2, 70144, Note_on_c, 1, 50, 0
2, 70144, Note_on_c, 0, 62, 0
2, 70144, Note_on_c, 0, 62, 100
2, 70144, Note_on_c, 0, 66, 100
2, 70144, Note_on_c, 1, 55, 83
2, 70208, Note_on_c, 1, 55, 0
2, 70208, Note_on_c, 1, 50, 83
2, 70336, Note_on_c, 1, 50, 0
2, 70336, Note_on_c, 1, 50, 83
2, 70400, Note_on_c, 0, 66, 0
2, 70400, Note_on_c, 0, 62, 0
2, 70400, Note_on_c, 0, 62, 100
2, 70464, Note_on_c, 1, 50, 0
2, 70464, Note_on_c, 1, 50, 83
2, 70528, Note_on_c, 0, 62, 0
2, 70528, Note_on_c, 0, 55, 83
2, 70592, Note_on_c, 1, 50, 0
2, 70592, Note_on_c, 1, 52, 83
2, 70656, Note_on_c, 1, 52, 0
2, 70656, Note_on_c, 0, 55, 0
2, 70656, Control_c, 0, 64, 0
2, 70656, Control_c, 0, 64, 127
2, 70656, Control_c, 1, 64, 0
2, 70656, Control_c, 1, 64, 127
2, 70656, Note_on_c, 1, 36, 83
2, 70720, Note_on_c, 0, 55, 83
2, 70784, Note_on_c, 1, 36, 0
2, 70784, Note_on_c, 1, 43, 83
2, 70848, Note_on_c, 0, 55, 0
2, 70848, Note_on_c, 0, 55, 100
2, 70848, Note_on_c, 0, 62, 100
2, 70912, Note_on_c, 1, 43, 0
2, 70912, Note_on_c, 1, 52, 83
2, 70976, Note_on_c, 1, 52, 0
2, 70976, Note_on_c, 0, 62, 0
2, 70976, Note_on_c, 0, 55, 0
2, 70976, Note_on_c, 0, 67, 100
2, 70976, Note_on_c, 1, 55, 83
2, 71040, Note_on_c, 0, 67, 0
2, 71040, Note_on_c, 0, 62, 83
2, 71104, Note_on_c, 1, 55, 0
2, 71104, Note_on_c, 1, 50, 83
2, 71168, Note_on_c, 1, 50, 0
2, 71168, Note_on_c, 0, 62, 0
2, 71168, Control_c, 0, 64, 0
2, 71168, Control_c, 0, 64, 127
2, 71168, Note_on_c, 0, 62, 100
2, 71168, Note_on_c, 0, 55, 71
2, 71168, Control_c, 1, 64, 0
2, 71168, Control_c, 1, 64, 127
2, 71168, Note_on_c, 1, 38, 83
2, 71232, Note_on_c, 1, 38, 0
2, 71232, Note_on_c, 1, 45, 83
2, 71296, Note_on_c, 0, 55, 0
2, 71296, Note_on_c, 0, 55, 71
2, 71360, Note_on_c, 1, 45, 0
2, 71360, Note_on_c, 1, 50, 83
2, 71424, Note_on_c, 0, 55, 0
2, 71424, Note_on_c, 0, 62, 0
2, 71424, Note_on_c, 0, 62, 100
2, 71424, Note_on_c, 0, 55, 71
2, 71488, Note_on_c, 1, 50, 0
2, 71488, Note_on_c, 1, 50, 83
2, 71552, Note_on_c, 0, 62, 0
2, 71552, Note_on_c, 0, 64, 83
2, 71616, Note_on_c, 1, 50, 0
2, 71616, Note_on_c, 1, 50, 83
2, 71680, Note_on_c, 1, 50, 0
2, 71680, Note_on_c, 0, 64, 0
2, 71680, Note_on_c, 0, 55, 0
2, 71680, Control_c, 0, 64, 0
2, 71680, Control_c, 0, 64, 127
2, 71680, Control_c, 1, 64, 0
2, 71680, Control_c, 1, 64, 127
2, 71680, Note_on_c, 1, 43, 83
2, 71744, Note_on_c, 0, 55, 83
2, 71808, Note_on_c, 1, 43, 0
2, 71808, Note_on_c, 1, 50, 83
2, 71872, Note_on_c, 0, 55, 0
2, 71872, Note_on_c, 0, 55, 100
2, 71872, Note_on_c, 0, 62, 100
2, 71936, Note_on_c, 1, 50, 0
2, 71936, Note_on_c, 1, 50, 83
2, 72000, Note_on_c, 0, 62, 0
2, 72000, Note_on_c, 0, 55, 0
2, 72000, Note_on_c, 0, 55, 100
2, 72000, Note_on_c, 0, 64, 100
2, 72064, Note_on_c, 0, 64, 0
2, 72064, Note_on_c, 0, 55, 0
2, 72064, Note_on_c, 0, 62, 83
2, 72128, Note_on_c, 1, 50, 0
2, 72128, Note_on_c, 1, 50, 83
2, 72192, Note_on_c, 1, 50, 0
2, 72192, Note_on_c, 0, 62, 0
2, 72192, Note_on_c, 0, 55, 100
2, 72192, Note_on_c, 0, 64, 100
2, 72192, Note_on_c, 1, 43, 83
2, 72256, Note_on_c, 1, 43, 0
2, 72256, Note_on_c, 0, 64, 0
2, 72256, Note_on_c, 0, 55, 0
2, 72256, Note_on_c, 0, 66, 100
2, 72256, Note_on_c, 1, 50, 83
2, 72384, Note_on_c, 1, 50, 0
2, 72384, Note_on_c, 1, 50, 83
2, 72448, Note_on_c, 0, 66, 0
2, 72448, Note_on_c, 0, 55, 100
2, 72448, Note_on_c, 0, 62, 100
2, 72512, Note_on_c, 1, 50, 0
2, 72512, Note_on_c, 1, 50, 83
2, 72576, Note_on_c, 0, 62, 0
2, 72576, Note_on_c, 0, 55, 0
2, 72576, Note_on_c, 0, 55, 83
2, 72640, Note_on_c, 1, 50, 0
2, 72640, Note_on_c, 0, 55, 0
2, 72640, Note_on_c, 0, 67, 83
2, 72640, Note_on_c, 1, 52, 83
2, 72704, Note_on_c, 1, 52, 0
2, 72704, Note_on_c, 0, 67, 0
2, 72704, Control_c, 0, 64, 0
2, 72704, Control_c, 0, 64, 127
2, 72704, Note_on_c, 0, 62, 83
2, 72704, Note_on_c, 0, 67, 83
2, 72704, Control_c, 1, 64, 0
2, 72704, Control_c, 1, 64, 127
2, 72704, Note_on_c, 1, 36, 83
2, 72832, Note_on_c, 1, 36, 0
2, 72832, Note_on_c, 1, 43, 83
2, 72896, Note_on_c, 0, 67, 0
2, 72896, Note_on_c, 0, 62, 0
2, 72896, Note_on_c, 0, 55, 83
2, 72896, Note_on_c, 0, 62, 83
2, 72960, Note_on_c, 1, 43, 0
2, 72960, Note_on_c, 1, 52, 83
2, 73024, Note_on_c, 0, 62, 0
2, 73024, Note_on_c, 0, 55, 0
2, 73024, Note_on_c, 0, 55, 83
2, 73024, Note_on_c, 0, 62, 83
2, 73152, Note_on_c, 1, 52, 0
2, 73152, Note_on_c, 1, 50, 83
2, 73216, Note_on_c, 1, 50, 0
2, 73216, Note_on_c, 0, 62, 0
2, 73216, Note_on_c, 0, 55, 0
2, 73216, Control_c, 0, 64, 0
2, 73216, Control_c, 0, 64, 127
2, 73216, Note_on_c, 0, 55, 83
2, 73216, Note_on_c, 0, 62, 83
2, 73216, Control_c, 1, 64, 0
2, 73216, Control_c, 1, 64, 127
2, 73216, Note_on_c, 1, 38, 83
2, 73280, Note_on_c, 1, 38, 0
2, 73280, Note_on_c, 1, 50, 83
2, 73408, Note_on_c, 1, 50, 0
2, 73408, Note_on_c, 1, 50, 83
2, 73472, Note_on_c, 0, 62, 0
2, 73472, Note_on_c, 0, 55, 0
2, 73472, Note_on_c, 0, 55, 83
2, 73472, Note_on_c, 0, 62, 83
2, 73536, Note_on_c, 1, 50, 0
2, 73536, Note_on_c, 1, 50, 83
2, 73664, Note_on_c, 1, 50, 0
2, 73664, Note_on_c, 1, 50, 83
2, 73728, Note_on_c, 1, 50, 0
2, 73728, Note_on_c, 0, 62, 0
2, 73728, Note_on_c, 0, 55, 0
2, 73728, Control_c, 0, 64, 0
2, 73728, Control_c, 0, 64, 127
2, 73728, Control_c, 1, 64, 0
2, 73728, Control_c, 1, 64, 127
2, 73728, Note_on_c, 1, 43, 83
2, 73792, Note_on_c, 0, 55, 83
2, 73856, Note_on_c, 1, 43, 0
2, 73856, Note_on_c, 1, 50, 83
2, 73920, Note_on_c, 0, 55, 0
2, 73920, Note_on_c, 0, 57, 83
2, 73984, Note_on_c, 0, 57, 0
2, 73984, Note_on_c, 0, 59, 83
2, 74048, Note_on_c, 0, 59, 0
2, 74048, Note_on_c, 0, 62, 110
2, 74112, Note_on_c, 0, 62, 0
2, 74112, Note_on_c, 0, 59, 83
2, 74176, Note_on_c, 1, 50, 0
2, 74176, Note_on_c, 1, 55, 83
2, 74240, Note_on_c, 1, 55, 0
2, 74240, Note_on_c, 0, 59, 0
2, 74240, Note_on_c, 1, 43, 83
2, 74282, Note_on_c, 0, 64, 83
2, 74325, Note_on_c, 0, 64, 0
2, 74325, Note_on_c, 0, 67, 83
2, 74368, Note_on_c, 1, 43, 0
2, 74368, Note_on_c, 1, 50, 83
2, 74432, Note_on_c, 1, 50, 0
2, 74432, Note_on_c, 1, 55, 83
2, 74496, Note_on_c, 0, 67, 0
2, 74496, Note_on_c, 0, 67, 108
2, 74496, Note_on_c, 0, 71, 110
2, 74496, Note_on_c, 0, 74, 108
2, 74560, Note_on_c, 1, 55, 0
2, 74560, Note_on_c, 1, 50, 83
2, 74624, Note_on_c, 0, 74, 0
2, 74624, Note_on_c, 0, 71, 0
2, 74624, Note_on_c, 0, 67, 0
2, 74624, Note_on_c, 0, 74, 83
2, 74688, Note_on_c, 1, 50, 0
2, 74688, Note_on_c, 0, 74, 0
2, 74688, Note_on_c, 0, 62, 83
2, 74688, Note_on_c, 0, 67, 83
2, 74688, Note_on_c, 1, 50, 83
2, 74752, Note_on_c, 1, 50, 0
2, 74752, Control_c, 0, 64, 0
2, 74752, Control_c, 0, 64, 127
2, 74752, Control_c, 1, 64, 0
2, 74752, Control_c, 1, 64, 127
2, 74752, Note_on_c, 1, 36, 83
2, 74816, Note_on_c, 0, 67, 0
2, 74816, Note_on_c, 0, 62, 0
2, 74816, Note_on_c, 0, 62, 83
2, 74880, Note_on_c, 1, 36, 0
2, 74880, Note_on_c, 1, 43, 83
2, 74944, Note_on_c, 0, 62, 0
2, 74944, Note_on_c, 0, 55, 83
2, 75008, Note_on_c, 1, 43, 0
2, 75008, Note_on_c, 1, 52, 83
2, 75072, Note_on_c, 0, 55, 0
2, 75072, Note_on_c, 0, 67, 100
2, 75136, Note_on_c, 0, 67, 0
2, 75136, Note_on_c, 0, 55, 83
2, 75200, Note_on_c, 1, 52, 0
2, 75200, Note_on_c, 1, 50, 83
2, 75264, Note_on_c, 1, 50, 0
2, 75264, Note_on_c, 0, 55, 0
2, 75264, Control_c, 0, 64, 0
2, 75264, Control_c, 0, 64, 127
2, 75264, Note_on_c, 0, 55, 83
2, 75264, Note_on_c, 0, 62, 83
2, 75264, Control_c, 1, 64, 0
2, 75264, Control_c, 1, 64, 127
2, 75264, Note_on_c, 1, 38, 83
2, 75328, Note_on_c, 1, 38, 0
2, 75328, Note_on_c, 1, 45, 83
2, 75392, Note_on_c, 0, 62, 0
2, 75392, Note_on_c, 0, 55, 0
2, 75392, Note_on_c, 0, 55, 83
2, 75456, Note_on_c, 1, 45, 0
2, 75456, Note_on_c, 1, 50, 83
2, 75520, Note_on_c, 0, 55, 0
2, 75520, Note_on_c, 0, 57, 83
2, 75584, Note_on_c, 1, 50, 0
2, 75584, Note_on_c, 0, 57, 0
2, 75584, Note_on_c, 0, 59, 83
2, 75584, Note_on_c, 1, 50, 83
2, 75648, Note_on_c, 0, 59, 0
2, 75648, Note_on_c, 0, 62, 83
2, 75712, Note_on_c, 1, 50, 0
2, 75712, Note_on_c, 0, 62, 0
2, 75712, Note_on_c, 0, 64, 83
2, 75712, Note_on_c, 1, 55, 83
2, 75776, Note_on_c, 1, 55, 0
2, 75776, Note_on_c, 0, 64, 0
2, 75776, Control_c, 0, 64, 0
2, 75776, Control_c, 0, 64, 127
2, 75776, Control_c, 1, 64, 0
2, 75776, Control_c, 1, 64, 127
2, 75776, Note_on_c, 1, 43, 83
2, 75904, Note_on_c, 1, 43, 0
2, 75904, Note_on_c, 1, 50, 83
2, 75968, Note_on_c, 0, 62, 100
2, 76032, Note_on_c, 1, 50, 0
2, 76032, Note_on_c, 1, 55, 83
2, 76096, Note_on_c, 0, 62, 0
2, 76096, Note_on_c, 0, 62, 100
2, 76160, Note_on_c, 0, 62, 0
2, 76160, Note_on_c, 0, 62, 83
2, 76224, Note_on_c, 1, 55, 0
2, 76224, Note_on_c, 1, 55, 83
2, 76288, Note_on_c, 1, 55, 0
2, 76288, Note_on_c, 0, 62, 0
2, 76288, Note_on_c, 0, 62, 100
2, 76288, Note_on_c, 0, 66, 100
2, 76288, Note_on_c, 1, 43, 83
2, 76352, Note_on_c, 1, 43, 0
2, 76352, Note_on_c, 1, 50, 83
2, 76480, Note_on_c, 1, 50, 0
2, 76480, Note_on_c, 1, 55, 83
2, 76544, Note_on_c, 1, 55, 0
2, 76544, Note_on_c, 1, 50, 83
2, 76608, Note_on_c, 0, 66, 0
2, 76608, Note_on_c, 0, 62, 0
2, 76608, Note_on_c, 0, 62, 83
2, 76672, Note_on_c, 1, 50, 0
2, 76672, Note_on_c, 0, 62, 0
2, 76672, Note_on_c, 0, 67, 83
2, 76672, Note_on_c, 1, 50, 83
2, 76736, Note_on_c, 1, 50, 0
2, 76736, Note_on_c, 0, 67, 0
2, 76736, Note_on_c, 0, 71, 83
2, 76736, Note_on_c, 1, 52, 83
2, 76800, Note_on_c, 1, 52, 0
2, 76800, Note_on_c, 0, 71, 0
2, 76800, Control_c, 0, 64, 0
2, 76800, Control_c, 0, 64, 127
2, 76800, Note_on_c, 0, 72, 83
2, 76800, Control_c, 1, 64, 0
2, 76800, Control_c, 1, 64, 127
2, 76800, Note_on_c, 1, 36, 83
2, 76864, Note_on_c, 0, 72, 0
2, 76864, Note_on_c, 0, 71, 83
2, 76928, Note_on_c, 1, 36, 0
2, 76928, Note_on_c, 0, 71, 0
2, 76928, Note_on_c, 0, 67, 83
2, 76928, Note_on_c, 1, 43, 83
2, 76992, Note_on_c, 0, 67, 0
2, 76992, Note_on_c, 0, 62, 83
2, 77056, Note_on_c, 1, 43, 0
2, 77056, Note_on_c, 0, 62, 0
2, 77056, Note_on_c, 0, 64, 83
2, 77056, Note_on_c, 1, 52, 83
2, 77120, Note_on_c, 0, 64, 0
2, 77120, Note_on_c, 0, 67, 83
2, 77184, Note_on_c, 0, 67, 0
2, 77184, Note_on_c, 0, 62, 83
2, 77248, Note_on_c, 1, 52, 0
2, 77248, Note_on_c, 1, 50, 83
2, 77312, Note_on_c, 1, 50, 0
2, 77312, Note_on_c, 0, 62, 0
2, 77312, Control_c, 0, 64, 0
2, 77312, Control_c, 0, 64, 127
2, 77312, Note_on_c, 0, 57, 83
2, 77312, Note_on_c, 0, 66, 83
2, 77312, Control_c, 1, 64, 0
2, 77312, Control_c, 1, 64, 127
2, 77312, Note_on_c, 1, 38, 83
2, 77376, Note_on_c, 1, 38, 0
2, 77376, Note_on_c, 1, 45, 83
2, 77504, Note_on_c, 1, 45, 0
2, 77504, Note_on_c, 1, 50, 83
2, 77568, Note_on_c, 0, 66, 0
2, 77568, Note_on_c, 0, 57, 0
2, 77568, Note_on_c, 0, 55, 83
2, 77568, Note_on_c, 0, 62, 83
2, 77632, Note_on_c, 1, 50, 0
2, 77632, Note_on_c, 1, 50, 83
2, 77696, Note_on_c, 0, 62, 0
2, 77696, Note_on_c, 0, 55, 0
2, 77696, Note_on_c, 0, 55, 83
2, 77760, Note_on_c, 1, 50, 0
2, 77760, Note_on_c, 1, 50, 83
2, 77824, Note_on_c, 1, 50, 0
2, 77824, Note_on_c, 0, 55, 0
2, 77824, Control_c, 0, 64, 0
2, 77824, Control_c, 0, 64, 127
2, 77824, Control_c, 1, 64, 0
2, 77824, Control_c, 1, 64, 127
2, 77824, Note_on_c, 1, 43, 83
2, 77888, Note_on_c, 0, 62, 83
2, 77952, Note_on_c, 1, 43, 0
2, 77952, Note_on_c, 1, 50, 83
2, 78016, Note_on_c, 0, 62, 0
2, 78016, Note_on_c, 0, 62, 108
2, 78016, Note_on_c, 0, 67, 108
2, 78016, Note_on_c, 0, 71, 108
2, 78016, Note_on_c, 0, 74, 108
2, 78080, Note_on_c, 1, 50, 0
2, 78080, Note_on_c, 1, 55, 83
2, 78144, Note_on_c, 0, 74, 0
2, 78144, Note_on_c, 0, 71, 0
2, 78144, Note_on_c, 0, 67, 0
2, 78144, Note_on_c, 0, 62, 0
2, 78144, Note_on_c, 0, 64, 108
2, 78144, Note_on_c, 0, 69, 108
2, 78144, Note_on_c, 0, 72, 108
2, 78144, Note_on_c, 0, 76, 108
2, 78272, Note_on_c, 1, 55, 0
2, 78272, Note_on_c, 1, 55, 83
2, 78336, Note_on_c, 1, 55, 0
2, 78336, Note_on_c, 0, 76, 0
2, 78336, Note_on_c, 0, 72, 0
2, 78336, Note_on_c, 0, 69, 0
2, 78336, Note_on_c, 0, 64, 0
2, 78336, Note_on_c, 0, 62, 83
2, 78336, Note_on_c, 0, 71, 83
2, 78336, Note_on_c, 1, 43, 83
2, 78400, Note_on_c, 1, 43, 0
2, 78400, Note_on_c, 1, 50, 83
2, 78528, Note_on_c, 1, 50, 0
2, 78528, Note_on_c, 1, 55, 83
2, 78592, Note_on_c, 0, 71, 0
2, 78592, Note_on_c, 0, 62, 0
2, 78592, Note_on_c, 0, 59, 110
2, 78592, Note_on_c, 0, 62, 108
2, 78656, Note_on_c, 1, 55, 0
2, 78656, Note_on_c, 1, 50, 83
2, 78720, Note_on_c, 0, 62, 0
2, 78720, Note_on_c, 0, 59, 0
2, 78720, Note_on_c, 0, 57, 83
2, 78784, Note_on_c, 1, 50, 0
2, 78784, Note_on_c, 0, 57, 0
2, 78784, Note_on_c, 0, 55, 83
2, 78784, Note_on_c, 1, 48, 83
2, 78848, Note_on_c, 1, 48, 0
2, 78848, Control_c, 0, 64, 0
2, 78848, Control_c, 0, 64, 127
2, 78848, Control_c, 1, 64, 0
2, 78848, Control_c, 1, 64, 127
2, 78848, Note_on_c, 1, 36, 83
2, 78912, Note_on_c, 0, 55, 0
2, 78912, Note_on_c, 0, 55, 83
2, 78976, Note_on_c, 1, 36, 0
2, 78976, Note_on_c, 1, 43, 83
2, 79040, Note_on_c, 0, 55, 0
2, 79040, Note_on_c, 0, 50, 83
2, 79104, Note_on_c, 1, 43, 0
2, 79104, Note_on_c, 1, 48, 83
2, 79168, Note_on_c, 0, 50, 0
2, 79168, Note_on_c, 0, 55, 83
2, 79232, Note_on_c, 0, 55, 0
2, 79232, Note_on_c, 0, 50, 83
2, 79296, Note_on_c, 1, 48, 0
2, 79296, Note_on_c, 1, 38, 83
2, 79360, Note_on_c, 0, 50, 0
2, 79360, Control_c, 0, 64, 0
2, 79360, Control_c, 0, 64, 127
2, 79360, Note_on_c, 0, 54, 83
2, 79360, Control_c, 1, 64, 0
2, 79360, Control_c, 1, 64, 127
2, 79424, Note_on_c, 1, 38, 0
2, 79424, Note_on_c, 1, 45, 83
2, 79488, Note_on_c, 0, 54, 0
2, 79488, Note_on_c, 0, 57, 83
2, 79552, Note_on_c, 1, 45, 0
2, 79552, Note_on_c, 1, 50, 83
2, 79616, Note_on_c, 0, 57, 0
2, 79616, Note_on_c, 0, 62, 83
2, 79680, Note_on_c, 1, 50, 0
2, 79680, Note_on_c, 1, 50, 83
2, 79744, Note_on_c, 0, 62, 0
2, 79744, Note_on_c, 0, 66, 83
2, 79808, Note_on_c, 1, 50, 0
2, 79808, Note_on_c, 1, 50, 83
2, 79872, Note_on_c, 1, 50, 0
2, 79872, Note_on_c, 0, 66, 0
2, 79872, Control_c, 0, 64, 0
2, 79872, Control_c, 0, 64, 127
2, 79872, Control_c, 1, 64, 0
2, 79872, Control_c, 1, 64, 127
2, 79872, Note_on_c, 1, 43, 83
2, 80000, Note_on_c, 1, 43, 0
2, 80000, Note_on_c, 1, 50, 83
2, 80064, Note_on_c, 0, 62, 100
2, 80128, Note_on_c, 1, 50, 0
2, 80128, Note_on_c, 1, 55, 83
2, 80192, Note_on_c, 0, 62, 0
2, 80192, Note_on_c, 0, 62, 100
2, 80256, Note_on_c, 1, 55, 0
2, 80256, Note_on_c, 1, 55, 83
2, 80320, Note_on_c, 1, 55, 0
2, 80320, Note_on_c, 1, 50, 83
2, 80384, Note_on_c, 0, 62, 0
2, 80384, Note_on_c, 0, 66, 100
2, 80448, Note_on_c, 1, 50, 0
2, 80448, Note_on_c, 1, 55, 83
2, 80512, Note_on_c, 0, 66, 0
2, 80512, Note_on_c, 0, 62, 83
2, 80576, Note_on_c, 1, 55, 0
2, 80576, Note_on_c, 1, 50, 83
2, 80640, Note_on_c, 0, 62, 0
2, 80640, Note_on_c, 0, 66, 100
2, 80704, Note_on_c, 1, 50, 0
2, 80704, Note_on_c, 1, 55, 83
2, 80832, Note_on_c, 1, 55, 0
2, 80832, Note_on_c, 1, 55, 83
2, 80896, Note_on_c, 1, 55, 0
2, 80896, Note_on_c, 0, 66, 0
2, 80896, Control_c, 0, 64, 0
2, 80896, Control_c, 0, 64, 127
2, 80896, Control_c, 1, 64, 0
2, 80896, Control_c, 1, 64, 127
2, 80896, Note_on_c, 1, 48, 83
2, 80960, Note_on_c, 0, 79, 83
2, 81024, Note_on_c, 1, 48, 0
2, 81024, Note_on_c, 1, 55, 83
2, 81088, Note_on_c, 0, 79, 0
2, 81088, Note_on_c, 0, 78, 83
2, 81152, Note_on_c, 0, 78, 0
2, 81152, Note_on_c, 0, 74, 83
2, 81216, Note_on_c, 1, 55, 0
2, 81216, Note_on_c, 0, 74, 0
2, 81216, Note_on_c, 0, 69, 83
2, 81216, Note_on_c, 1, 60, 83
2, 81280, Note_on_c, 0, 69, 0
2, 81280, Note_on_c, 0, 72, 83
2, 81344, Note_on_c, 1, 60, 0
2, 81344, Note_on_c, 0, 72, 0
2, 81344, Note_on_c, 0, 76, 83
2, 81344, Note_on_c, 1, 62, 83
2, 81408, Note_on_c, 1, 62, 0
2, 81408, Note_on_c, 0, 76, 0
2, 81408, Control_c, 0, 64, 0
2, 81408, Control_c, 0, 64, 127
2, 81408, Note_on_c, 0, 69, 83
2, 81408, Control_c, 1, 64, 0
2, 81408, Control_c, 1, 64, 127
2, 81408, Note_on_c, 1, 50, 83
2, 81472, Note_on_c, 0, 69, 0
2, 81472, Note_on_c, 0, 71, 83
2, 81536, Note_on_c, 1, 50, 0
2, 81536, Note_on_c, 0, 71, 0
2, 81536, Note_on_c, 0, 74, 83
2, 81536, Note_on_c, 1, 57, 83
2, 81600, Note_on_c, 0, 74, 0
2, 81600, Note_on_c, 0, 69, 83
2, 81664, Note_on_c, 1, 57, 0
2, 81664, Note_on_c, 1, 62, 83
2, 81728, Note_on_c, 0, 69, 0
2, 81728, Note_on_c, 0, 67, 83
2, 81856, Note_on_c, 1, 62, 0
2, 81856, Note_on_c, 1, 53, 83
2, 81920, Note_on_c, 1, 53, 0
2, 81920, Note_on_c, 0, 67, 0
2, 81920, Control_c, 0, 64, 0
2, 81920, Control_c, 0, 64, 127
2, 81920, Control_c, 1, 64, 0
2, 81920, Control_c, 1, 64, 127
2, 81920, Note_on_c, 1, 36, 83
2, 81984, Note_on_c, 0, 55, 83
2, 82048, Note_on_c, 1, 36, 0
2, 82048, Note_on_c, 1, 43, 83
2, 82112, Note_on_c, 0, 55, 0
2, 82112, Note_on_c, 0, 60, 100
2, 82176, Note_on_c, 1, 43, 0
2, 82176, Note_on_c, 1, 48, 83
2, 82240, Note_on_c, 0, 60, 0
2, 82240, Note_on_c, 0, 64, 100
2, 82304, Note_on_c, 0, 64, 0
2, 82304, Note_on_c, 0, 55, 83
2, 82368, Note_on_c, 1, 48, 0
2, 82368, Note_on_c, 1, 48, 83
2, 82432, Note_on_c, 0, 55, 0
2, 82432, Note_on_c, 0, 60, 100
2, 82496, Note_on_c, 1, 48, 0
2, 82496, Note_on_c, 1, 48, 83
2, 82560, Note_on_c, 0, 60, 0
2, 82560, Note_on_c, 0, 55, 83
2, 82624, Note_on_c, 1, 48, 0
2, 82624, Note_on_c, 1, 43, 83
2, 82688, Note_on_c, 0, 55, 0
2, 82688, Note_on_c, 0, 60, 100
2, 82752, Note_on_c, 1, 43, 0
2, 82752, Note_on_c, 1, 48, 83
2, 82816, Note_on_c, 0, 60, 0
2, 82816, Note_on_c, 0, 55, 83
2, 82880, Note_on_c, 1, 48, 0
2, 82880, Note_on_c, 1, 53, 83
2, 82944, Note_on_c, 1, 53, 0
2, 82944, Note_on_c, 0, 55, 0
2, 82944, Control_c, 0, 64, 0
2, 82944, Control_c, 0, 64, 127
2, 82944, Control_c, 1, 64, 0
2, 82944, Control_c, 1, 64, 127
2, 82944, Note_on_c, 1, 41, 83
2, 83008, Note_on_c, 0, 57, 83
2, 83072, Note_on_c, 1, 41, 0
2, 83072, Note_on_c, 1, 48, 83
2, 83136, Note_on_c, 0, 57, 0
2, 83136, Note_on_c, 0, 60, 100
2, 83200, Note_on_c, 1, 48, 0
2, 83200, Note_on_c, 1, 53, 83
2, 83264, Note_on_c, 0, 60, 0
2, 83264, Note_on_c, 0, 65, 100
2, 83328, Note_on_c, 0, 65, 0
2, 83328, Note_on_c, 0, 57, 83
2, 83392, Note_on_c, 1, 53, 0
2, 83392, Note_on_c, 1, 55, 83
2, 83456, Note_on_c, 1, 55, 0
2, 83456, Note_on_c, 0, 57, 0
2, 83456, Control_c, 0, 64, 0
2, 83456, Control_c, 0, 64, 127
2, 83456, Note_on_c, 0, 62, 100
2, 83456, Control_c, 1, 64, 0
2, 83456, Control_c, 1, 64, 127
2, 83456, Note_on_c, 1, 43, 83
2, 83520, Note_on_c, 1, 43, 0
2, 83520, Note_on_c, 1, 50, 83
2, 83584, Note_on_c, 0, 62, 0
2, 83584, Note_on_c, 0, 59, 83
2, 83648, Note_on_c, 1, 50, 0
2, 83648, Note_on_c, 1, 55, 83
2, 83712, Note_on_c, 0, 59, 0
2, 83712, Note_on_c, 0, 62, 100
2, 83776, Note_on_c, 1, 55, 0
2, 83776, Note_on_c, 1, 55, 83
2, 83840, Note_on_c, 0, 62, 0
2, 83840, Note_on_c, 0, 59, 83
2, 83904, Note_on_c, 1, 55, 0
2, 83904, Note_on_c, 1, 55, 83
2, 83968, Note_on_c, 1, 55, 0
2, 83968, Note_on_c, 0, 59, 0
2, 83968, Control_c, 0, 64, 0
2, 83968, Control_c, 0, 64, 127
2, 83968, Control_c, 1, 64, 0
2, 83968, Control_c, 1, 64, 127
2, 83968, Note_on_c, 1, 48, 83
2, 84032, Note_on_c, 0, 62, 83
2, 84096, Note_on_c, 1, 48, 0
2, 84096, Note_on_c, 1, 55, 83
2, 84160, Note_on_c, 1, 55, 0
2, 84160, Note_on_c, 0, 62, 0
2, 84160, Note_on_c, 0, 67, 100
2, 84160, Note_on_c, 1, 59, 83
2, 84288, Note_on_c, 0, 67, 0
2, 84288, Note_on_c, 0, 71, 100
2, 84352, Note_on_c, 0, 71, 0
2, 84352, Note_on_c, 0, 67, 83
2, 84416, Note_on_c, 1, 59, 0
2, 84416, Note_on_c, 1, 60, 83
2, 84480, Note_on_c, 0, 67, 0
2, 84480, Note_on_c, 0, 62, 100
2, 84480, Note_on_c, 0, 71, 100
2, 84544, Note_on_c, 1, 60, 0
2, 84544, Note_on_c, 1, 55, 83
2, 84672, Note_on_c, 1, 55, 0
2, 84672, Note_on_c, 1, 60, 83
2, 84736, Note_on_c, 0, 71, 0
2, 84736, Note_on_c, 0, 62, 0
2, 84736, Note_on_c, 0, 67, 100
2, 84800, Note_on_c, 1, 60, 0
2, 84800, Note_on_c, 1, 55, 83
2, 84864, Note_on_c, 0, 67, 0
2, 84864, Note_on_c, 0, 62, 83
2, 84928, Note_on_c, 1, 55, 0
2, 84928, Note_on_c, 1, 53, 83
2, 84992, Note_on_c, 1, 53, 0
2, 84992, Note_on_c, 0, 62, 0
2, 84992, Control_c, 0, 64, 0
2, 84992, Control_c, 0, 64, 127
2, 84992, Control_c, 1, 64, 0
2, 84992, Control_c, 1, 64, 127
2, 84992, Note_on_c, 1, 41, 83
2, 85061, Note_on_c, 0, 67, 83
2, 85083, Note_on_c, 0, 67, 0
2, 85083, Note_on_c, 0, 68, 83
2, 85102, Note_on_c, 0, 68, 0
2, 85102, Note_on_c, 0, 69, 83
2, 85120, Note_on_c, 1, 41, 0
2, 85120, Note_on_c, 0, 69, 0
2, 85120, Note_on_c, 0, 72, 83
2, 85120, Note_on_c, 1, 48, 83
2, 85184, Note_on_c, 0, 72, 0
2, 85184, Note_on_c, 0, 65, 83
2, 85248, Note_on_c, 1, 48, 0
2, 85248, Note_on_c, 1, 53, 83
2, 85312, Note_on_c, 0, 65, 0
2, 85312, Note_on_c, 0, 60, 83
2, 85440, Note_on_c, 1, 53, 0
2, 85440, Note_on_c, 0, 60, 0
2, 85440, Note_on_c, 0, 57, 83
2, 85440, Note_on_c, 1, 50, 83
2, 85504, Note_on_c, 1, 50, 0
2, 85504, Note_on_c, 0, 57, 0
2, 85504, Control_c, 0, 64, 0
2, 85504, Control_c, 0, 64, 127
2, 85504, Note_on_c, 0, 59, 83
2, 85504, Control_c, 1, 64, 0
2, 85504, Control_c, 1, 64, 127
2, 85504, Note_on_c, 1, 43, 83
2, 85568, Note_on_c, 0, 59, 0
2, 85568, Note_on_c, 0, 62, 83
2, 85632, Note_on_c, 1, 43, 0
2, 85632, Note_on_c, 1, 55, 83
2, 85696, Note_on_c, 1, 55, 0
2, 85696, Note_on_c, 1, 50, 83
2, 85760, Note_on_c, 0, 62, 0
2, 85760, Note_on_c, 0, 55, 83
2, 85824, Note_on_c, 1, 50, 0
2, 85824, Note_on_c, 1, 50, 83
2, 85952, Note_on_c, 1, 50, 0
2, 85952, Note_on_c, 1, 48, 83
2, 86016, Note_on_c, 1, 48, 0
2, 86016, Note_on_c, 0, 55, 0
2, 86016, Control_c, 0, 64, 0
2, 86016, Control_c, 0, 64, 127
2, 86016, Control_c, 1, 64, 0
2, 86016, Control_c, 1, 64, 127
2, 86016, Note_on_c, 1, 36, 83
2, 86080, Note_on_c, 1, 36, 0
2, 86080, Note_on_c, 1, 50, 83
2, 86144, Note_on_c, 1, 50, 0
2, 86144, Note_on_c, 1, 48, 83
2, 86208, Note_on_c, 0, 62, 100
2, 86272, Note_on_c, 0, 62, 0
2, 86272, Note_on_c, 0, 60, 83
2, 86336, Note_on_c, 0, 60, 0
2, 86336, Note_on_c, 0, 71, 100
2, 86400, Note_on_c, 0, 71, 0
2, 86400, Note_on_c, 0, 67, 83
2, 86464, Note_on_c, 1, 48, 0
2, 86464, Note_on_c, 1, 48, 83
2, 86528, Note_on_c, 0, 67, 0
2, 86528, Note_on_c, 0, 62, 100
2, 86528, Note_on_c, 0, 71, 100
2, 86592, Note_on_c, 1, 48, 0
2, 86592, Note_on_c, 1, 55, 83
2, 86720, Note_on_c, 1, 55, 0
2, 86720, Note_on_c, 1, 60, 83
2, 86784, Note_on_c, 0, 71, 0
2, 86784, Note_on_c, 0, 62, 0
2, 86784, Note_on_c, 0, 62, 100
2, 86784, Note_on_c, 0, 71, 100
2, 86848, Note_on_c, 1, 60, 0
2, 86848, Note_on_c, 1, 55, 83
2, 86912, Note_on_c, 0, 71, 0
2, 86912, Note_on_c, 0, 62, 0
2, 86912, Note_on_c, 0, 67, 83
2, 86976, Note_on_c, 1, 55, 0
2, 86976, Note_on_c, 1, 53, 83
2, 87040, Note_on_c, 1, 53, 0
2, 87040, Note_on_c, 0, 67, 0
2, 87040, Control_c, 0, 64, 0
2, 87040, Control_c, 0, 64, 127
2, 87040, Control_c, 1, 64, 0
2, 87040, Control_c, 1, 64, 127
2, 87040, Note_on_c, 1, 41, 83
2, 87104, Note_on_c, 0, 77, 100
2, 87168, Note_on_c, 1, 41, 0
2, 87168, Note_on_c, 1, 48, 83
2, 87232, Note_on_c, 0, 77, 0
2, 87232, Note_on_c, 0, 72, 83
2, 87296, Note_on_c, 1, 48, 0
2, 87296, Note_on_c, 0, 72, 0
2, 87296, Note_on_c, 0, 69, 83
2, 87296, Note_on_c, 1, 53, 83
2, 87360, Note_on_c, 0, 69, 0
2, 87360, Note_on_c, 0, 65, 83
2, 87424, Note_on_c, 0, 65, 0
2, 87424, Note_on_c, 0, 67, 83
2, 87488, Note_on_c, 1, 53, 0
2, 87488, Note_on_c, 0, 67, 0
2, 87488, Note_on_c, 0, 74, 100
2, 87488, Note_on_c, 1, 55, 83
2, 87552, Note_on_c, 1, 55, 0
2, 87552, Note_on_c, 0, 74, 0
2, 87552, Control_c, 0, 64, 0
2, 87552, Control_c, 0, 64, 127
2, 87552, Note_on_c, 0, 71, 100
2, 87552, Control_c, 1, 64, 0
2, 87552, Control_c, 1, 64, 127
2, 87552, Note_on_c, 1, 43, 83
2, 87616, Note_on_c, 1, 43, 0
2, 87616, Note_on_c, 1, 50, 83
2, 87680, Note_on_c, 0, 71, 0
2, 87680, Note_on_c, 0, 67, 83
2, 87744, Note_on_c, 0, 67, 0
2, 87744, Note_on_c, 0, 62, 83
2, 87808, Note_on_c, 1, 50, 0
2, 87808, Note_on_c, 1, 55, 83
2, 87872, Note_on_c, 0, 62, 0
2, 87872, Note_on_c, 0, 64, 83
2, 87936, Note_on_c, 0, 64, 0
2, 87936, Note_on_c, 0, 67, 83
2, 88000, Note_on_c, 1, 55, 0
2, 88000, Note_on_c, 1, 55, 83
2, 88064, Note_on_c, 1, 55, 0
2, 88064, Note_on_c, 0, 67, 0
2, 88064, Control_c, 0, 64, 0
2, 88064, Control_c, 0, 64, 127
2, 88064, Control_c, 1, 64, 0
2, 88064, Control_c, 1, 64, 127
2, 88064, Note_on_c, 1, 48, 83
2, 88128, Note_on_c, 0, 62, 83
2, 88192, Note_on_c, 1, 48, 0
2, 88192, Note_on_c, 1, 55, 83
2, 88256, Note_on_c, 0, 62, 0
2, 88256, Note_on_c, 0, 60, 100
2, 88320, Note_on_c, 1, 55, 0
2, 88320, Note_on_c, 1, 55, 83
2, 88384, Note_on_c, 0, 60, 0
2, 88384, Note_on_c, 0, 67, 100
2, 88448, Note_on_c, 0, 67, 0
2, 88448, Note_on_c, 0, 60, 83
2, 88512, Note_on_c, 1, 55, 0
2, 88512, Note_on_c, 1, 55, 83
2, 88576, Note_on_c, 0, 60, 0
2, 88576, Note_on_c, 0, 71, 100
2, 88640, Note_on_c, 1, 55, 0
2, 88640, Note_on_c, 1, 60, 83
2, 88768, Note_on_c, 1, 60, 0
2, 88768, Note_on_c, 1, 55, 83
2, 88832, Note_on_c, 0, 71, 0
2, 88832, Note_on_c, 0, 67, 100
2, 88896, Note_on_c, 1, 55, 0
2, 88896, Note_on_c, 1, 60, 83
2, 88960, Note_on_c, 0, 67, 0
2, 88960, Note_on_c, 0, 69, 83
2, 89024, Note_on_c, 1, 60, 0
2, 89024, Note_on_c, 1, 53, 83
2, 89088, Note_on_c, 1, 53, 0
2, 89088, Note_on_c, 0, 69, 0
2, 89088, Control_c, 0, 64, 0
2, 89088, Control_c, 0, 64, 127
2, 89088, Control_c, 1, 64, 0
2, 89088, Control_c, 1, 64, 127
2, 89088, Note_on_c, 1, 41, 83
2, 89152, Note_on_c, 0, 81, 100
2, 89216, Note_on_c, 1, 41, 0
2, 89216, Note_on_c, 1, 48, 83
2, 89280, Note_on_c, 0, 81, 0
2, 89280, Note_on_c, 0, 84, 100
2, 89344, Note_on_c, 1, 48, 0
2, 89344, Note_on_c, 0, 84, 0
2, 89344, Note_on_c, 0, 81, 100
2, 89344, Note_on_c, 1, 53, 83
2, 89408, Note_on_c, 0, 81, 0
2, 89408, Note_on_c, 0, 77, 83
2, 89472, Note_on_c, 0, 77, 0
2, 89472, Note_on_c, 0, 72, 83
2, 89536, Note_on_c, 1, 53, 0
2, 89536, Note_on_c, 1, 55, 83
2, 89600, Note_on_c, 1, 55, 0
2, 89600, Control_c, 0, 64, 0
2, 89600, Control_c, 0, 64, 127
2, 89600, Control_c, 1, 64, 0
2, 89600, Control_c, 1, 64, 127
2, 89600, Note_on_c, 1, 43, 83
2, 89696, Note_on_c, 0, 72, 0
2, 89696, Note_on_c, 0, 69, 83
2, 89728, Note_on_c, 1, 43, 0
2, 89728, Note_on_c, 0, 69, 0
2, 89728, Note_on_c, 0, 71, 83
2, 89728, Note_on_c, 1, 50, 83
2, 89792, Note_on_c, 0, 71, 0
2, 89792, Note_on_c, 0, 74, 100
2, 89856, Note_on_c, 1, 50, 0
2, 89856, Note_on_c, 0, 74, 0
2, 89856, Note_on_c, 0, 69, 83
2, 89856, Note_on_c, 1, 55, 83
2, 89920, Note_on_c, 1, 55, 0
2, 89920, Note_on_c, 1, 50, 83
2, 89984, Note_on_c, 0, 69, 0
2, 89984, Note_on_c, 0, 67, 83
2, 90112, Note_on_c, 1, 50, 0
2, 90112, Note_on_c, 0, 67, 0
2, 90112, Control_c, 0, 64, 0
2, 90112, Control_c, 0, 64, 127
2, 90112, Control_c, 1, 64, 0
2, 90112, Control_c, 1, 64, 127
2, 90112, Note_on_c, 1, 29, 83
2, 90176, Note_on_c, 1, 29, 0
2, 90176, Note_on_c, 1, 41, 83
2, 90304, Note_on_c, 0, 60, 100
2, 90432, Note_on_c, 0, 60, 0
2, 90432, Note_on_c, 0, 65, 100
2, 90496, Note_on_c, 0, 65, 0
2, 90496, Note_on_c, 0, 53, 83
2, 90560, Note_on_c, 1, 41, 0
2, 90560, Note_on_c, 1, 41, 83
2, 90624, Note_on_c, 1, 41, 0
2, 90624, Note_on_c, 0, 53, 0
2, 90624, Note_on_c, 0, 60, 100
2, 90624, Note_on_c, 0, 65, 100
2, 90624, Note_on_c, 1, 29, 83
2, 90816, Note_on_c, 1, 29, 0
2, 90816, Note_on_c, 1, 41, 83
2, 90880, Note_on_c, 0, 65, 0
2, 90880, Note_on_c, 0, 60, 0
2, 90880, Note_on_c, 0, 53, 100
2, 90880, Note_on_c, 0, 60, 100
2, 91072, Note_on_c, 1, 41, 0
2, 91072, Note_on_c, 1, 46, 83
2, 91136, Note_on_c, 1, 46, 0
2, 91136, Note_on_c, 0, 60, 0
2, 91136, Note_on_c, 0, 53, 0
2, 91136, Control_c, 0, 64, 0
2, 91136, Control_c, 0, 64, 127
2, 91136, Control_c, 1, 64, 0
2, 91136, Control_c, 1, 64, 127
2, 91136, Note_on_c, 1, 34, 83
2, 91200, Note_on_c, 0, 53, 83
2, 91264, Note_on_c, 1, 34, 0
2, 91264, Note_on_c, 1, 46, 83
2, 91328, Note_on_c, 0, 53, 0
2, 91328, Note_on_c, 0, 50, 83
2, 91392, Note_on_c, 1, 46, 0
2, 91392, Note_on_c, 1, 46, 83
2, 91456, Note_on_c, 0, 50, 0
2, 91456, Note_on_c, 0, 53, 83
2, 91520, Note_on_c, 0, 53, 0
2, 91520, Note_on_c, 0, 50, 83
2, 91584, Note_on_c, 1, 46, 0
2, 91584, Note_on_c, 1, 48, 83
2, 91648, Note_on_c, 1, 48, 0
2, 91648, Note_on_c, 0, 50, 0
2, 91648, Control_c, 0, 64, 0
2, 91648, Control_c, 0, 64, 127
2, 91648, Note_on_c, 0, 52, 100
2, 91648, Control_c, 1, 64, 0
2, 91648, Control_c, 1, 64, 127
2, 91648, Note_on_c, 1, 36, 83
2, 91712, Note_on_c, 1, 36, 0
2, 91712, Note_on_c, 1, 43, 83
2, 91776, Note_on_c, 0, 52, 0
2, 91776, Note_on_c, 0, 55, 83
2, 91840, Note_on_c, 1, 43, 0
2, 91840, Note_on_c, 1, 48, 83
2, 91904, Note_on_c, 0, 55, 0
2, 91904, Note_on_c, 0, 60, 100
2, 91968, Note_on_c, 1, 48, 0
2, 91968, Note_on_c, 1, 48, 83
2, 92032, Note_on_c, 0, 60, 0
2, 92032, Note_on_c, 0, 57, 83
2, 92096, Note_on_c, 1, 48, 0
2, 92096, Note_on_c, 1, 53, 83
2, 92160, Note_on_c, 1, 53, 0
2, 92160, Note_on_c, 0, 57, 0
2, 92160, Control_c, 0, 64, 0
2, 92160, Control_c, 0, 64, 127
2, 92160, Control_c, 1, 64, 0
2, 92160, Control_c, 1, 64, 127
2, 92160, Note_on_c, 1, 41, 83
2, 92224, Note_on_c, 0, 60, 83
2, 92288, Note_on_c, 1, 41, 0
2, 92288, Note_on_c, 1, 48, 83
2, 92352, Note_on_c, 0, 60, 0
2, 92352, Note_on_c, 0, 60, 108
2, 92352, Note_on_c, 0, 65, 108
2, 92352, Note_on_c, 0, 69, 108
2, 92416, Note_on_c, 1, 48, 0
2, 92416, Note_on_c, 1, 53, 83
2, 92480, Note_on_c, 0, 69, 0
2, 92480, Note_on_c, 0, 65, 0
2, 92480, Note_on_c, 0, 60, 0
2, 92480, Note_on_c, 0, 62, 108
2, 92480, Note_on_c, 0, 67, 108
2, 92480, Note_on_c, 0, 70, 108
2, 92544, Note_on_c, 1, 53, 0
2, 92544, Note_on_c, 0, 70, 0
2, 92544, Note_on_c, 0, 67, 0
2, 92544, Note_on_c, 0, 62, 0
2, 92544, Note_on_c, 0, 60, 83
2, 92544, Note_on_c, 0, 65, 83
2, 92544, Note_on_c, 0, 69, 83
2, 92544, Note_on_c, 1, 53, 83
2, 92608, Note_on_c, 1, 53, 0
2, 92608, Note_on_c, 1, 41, 83
2, 92672, Note_on_c, 1, 41, 0
2, 92672, Note_on_c, 0, 69, 0
2, 92672, Note_on_c, 0, 65, 0
2, 92672, Note_on_c, 0, 60, 0
2, 92672, Note_on_c, 1, 48, 83
2, 92736, Note_on_c, 0, 57, 83
2, 92800, Note_on_c, 1, 48, 0
2, 92800, Note_on_c, 1, 53, 83
2, 92864, Note_on_c, 0, 57, 0
2, 92864, Note_on_c, 0, 65, 100
2, 92928, Note_on_c, 0, 65, 0
2, 92928, Note_on_c, 0, 60, 83
2, 92992, Note_on_c, 1, 53, 0
2, 92992, Note_on_c, 1, 53, 83
2, 93056, Note_on_c, 0, 60, 0
2, 93056, Note_on_c, 0, 65, 83
2, 93184, Note_on_c, 1, 53, 0
2, 93184, Note_on_c, 0, 65, 0
2, 93184, Control_c, 0, 64, 0
2, 93184, Control_c, 0, 64, 127
2, 93184, Note_on_c, 0, 58, 83
2, 93184, Note_on_c, 0, 62, 83
2, 93184, Control_c, 1, 64, 0
2, 93184, Control_c, 1, 64, 127
2, 93184, Note_on_c, 1, 46, 83
2, 93248, Note_on_c, 1, 46, 0
2, 93248, Note_on_c, 1, 53, 83
2, 93376, Note_on_c, 0, 62, 0
2, 93376, Note_on_c, 0, 58, 0
2, 93376, Note_on_c, 0, 58, 100
2, 93440, Note_on_c, 1, 53, 0
2, 93440, Note_on_c, 1, 53, 83
2, 93504, Note_on_c, 0, 58, 0
2, 93504, Note_on_c, 0, 62, 100
2, 93568, Note_on_c, 0, 62, 0
2, 93568, Note_on_c, 0, 65, 83
2, 93632, Note_on_c, 1, 53, 0
2, 93632, Note_on_c, 1, 48, 83
2, 93696, Note_on_c, 0, 65, 0
2, 93696, Control_c, 0, 64, 0
2, 93696, Control_c, 0, 64, 127
2, 93696, Note_on_c, 0, 72, 83
2, 93696, Note_on_c, 0, 64, 71
2, 93696, Control_c, 1, 64, 0
2, 93696, Control_c, 1, 64, 127
2, 93760, Note_on_c, 1, 48, 0
2, 93760, Note_on_c, 1, 55, 83
2, 93824, Note_on_c, 0, 64, 0
2, 93824, Note_on_c, 0, 72, 0
2, 93824, Note_on_c, 0, 72, 83
2, 93824, Note_on_c, 0, 65, 71
2, 93888, Note_on_c, 1, 55, 0
2, 93888, Note_on_c, 1, 60, 83
2, 93952, Note_on_c, 0, 65, 0
2, 93952, Note_on_c, 0, 72, 0
2, 93952, Note_on_c, 0, 72, 83
2, 93952, Note_on_c, 0, 64, 71
2, 94016, Note_on_c, 1, 60, 0
2, 94016, Note_on_c, 1, 55, 83
2, 94080, Note_on_c, 0, 64, 0
2, 94080, Note_on_c, 0, 65, 71
2, 94144, Note_on_c, 1, 55, 0
2, 94144, Note_on_c, 1, 53, 83
2, 94208, Note_on_c, 1, 53, 0
2, 94208, Note_on_c, 0, 65, 0
2, 94208, Note_on_c, 0, 72, 0
2, 94208, Control_c, 0, 64, 0
2, 94208, Control_c, 0, 64, 127
2, 94208, Control_c, 1, 64, 0
2, 94208, Control_c, 1, 64, 127
2, 94208, Note_on_c, 1, 41, 83
2, 94272, Note_on_c, 0, 57, 83
2, 94336, Note_on_c, 1, 41, 0
2, 94336, Note_on_c, 1, 48, 83
2, 94400, Note_on_c, 0, 57, 0
2, 94400, Note_on_c, 0, 57, 100
2, 94464, Note_on_c, 1, 48, 0
2, 94464, Note_on_c, 1, 53, 83
2, 94528, Note_on_c, 0, 57, 0
2, 94528, Note_on_c, 0, 60, 100
2, 94592, Note_on_c, 0, 60, 0
2, 94592, Note_on_c, 0, 57, 83
2, 94656, Note_on_c, 1, 53, 0
2, 94656, Note_on_c, 1, 53, 83
2, 94720, Note_on_c, 1, 53, 0
2, 94720, Note_on_c, 0, 57, 0
2, 94720, Note_on_c, 0, 64, 100
2, 94720, Note_on_c, 1, 41, 83
2, 94784, Note_on_c, 1, 41, 0
2, 94784, Note_on_c, 1, 48, 83
2, 94912, Note_on_c, 1, 48, 0
2, 94912, Note_on_c, 1, 53, 83
2, 94976, Note_on_c, 0, 64, 0
2, 94976, Note_on_c, 0, 60, 100
2, 95040, Note_on_c, 1, 53, 0
2, 95040, Note_on_c, 1, 53, 83
2, 95104, Note_on_c, 0, 60, 0
2, 95104, Note_on_c, 0, 64, 83
2, 95168, Note_on_c, 1, 53, 0
2, 95168, Note_on_c, 1, 58, 83
2, 95232, Note_on_c, 1, 58, 0
2, 95232, Note_on_c, 0, 64, 0
2, 95232, Control_c, 0, 64, 0
2, 95232, Control_c, 0, 64, 127
2, 95232, Control_c, 1, 64, 0
2, 95232, Control_c, 1, 64, 127
2, 95232, Note_on_c, 1, 46, 83
2, 95296, Note_on_c, 0, 65, 83
2, 95360, Note_on_c, 0, 65, 0
2, 95360, Note_on_c, 0, 70, 83
2, 95424, Note_on_c, 1, 46, 0
2, 95424, Note_on_c, 0, 70, 0
2, 95424, Note_on_c, 0, 72, 83
2, 95424, Note_on_c, 1, 53, 83
2, 95488, Note_on_c, 1, 53, 0
2, 95488, Note_on_c, 0, 72, 0
2, 95488, Note_on_c, 0, 74, 83
2, 95488, Note_on_c, 1, 58, 83
2, 95552, Note_on_c, 0, 74, 0
2, 95552, Note_on_c, 0, 70, 83
2, 95616, Note_on_c, 0, 70, 0
2, 95616, Note_on_c, 0, 65, 83
2, 95680, Note_on_c, 1, 58, 0
2, 95680, Note_on_c, 0, 65, 0
2, 95680, Note_on_c, 0, 64, 83
2, 95680, Note_on_c, 1, 55, 83
2, 95744, Note_on_c, 1, 55, 0
2, 95744, Note_on_c, 0, 64, 0
2, 95744, Control_c, 0, 64, 0
2, 95744, Control_c, 0, 64, 127
2, 95744, Note_on_c, 0, 62, 83
2, 95744, Control_c, 1, 64, 0
2, 95744, Control_c, 1, 64, 127
2, 95744, Note_on_c, 1, 48, 83
2, 95808, Note_on_c, 0, 62, 0
2, 95808, Note_on_c, 0, 64, 83
2, 95872, Note_on_c, 0, 64, 0
2, 95872, Note_on_c, 0, 65, 83
2, 95936, Note_on_c, 0, 65, 0
2, 95936, Note_on_c, 0, 67, 83
2, 96000, Note_on_c, 0, 67, 0
2, 96000, Note_on_c, 0, 65, 83
2, 96064, Note_on_c, 1, 48, 0
2, 96064, Note_on_c, 1, 55, 83
2, 96128, Note_on_c, 0, 65, 0
2, 96128, Note_on_c, 0, 62, 83
2, 96192, Note_on_c, 1, 55, 0
2, 96192, Note_on_c, 1, 53, 83
2, 96256, Note_on_c, 1, 53, 0
2, 96256, Note_on_c, 0, 62, 0
2, 96256, Control_c, 0, 64, 0
2, 96256, Control_c, 0, 64, 127
2, 96256, Control_c, 1, 64, 0
2, 96256, Control_c, 1, 64, 127
2, 96256, Note_on_c, 1, 41, 83
2, 96320, Note_on_c, 0, 57, 83
2, 96384, Note_on_c, 1, 41, 0
2, 96384, Note_on_c, 1, 48, 83
2, 96448, Note_on_c, 0, 57, 0
2, 96448, Note_on_c, 0, 60, 100
2, 96512, Note_on_c, 1, 48, 0
2, 96512, Note_on_c, 1, 53, 83
2, 96576, Note_on_c, 0, 60, 0
2, 96576, Note_on_c, 0, 64, 100
2, 96640, Note_on_c, 0, 64, 0
2, 96640, Note_on_c, 0, 60, 83
2, 96704, Note_on_c, 1, 53, 0
2, 96704, Note_on_c, 1, 48, 83
2, 96768, Note_on_c, 0, 60, 0
2, 96768, Note_on_c, 0, 64, 100
2, 96768, Note_on_c, 0, 69, 100
2, 96832, Note_on_c, 1, 48, 0
2, 96832, Note_on_c, 1, 53, 83
2, 96896, Note_on_c, 0, 69, 0
2, 96896, Note_on_c, 0, 64, 0
2, 96896, Note_on_c, 0, 62, 100
2, 96896, Note_on_c, 0, 69, 100
2, 96960, Note_on_c, 1, 53, 0
2, 96960, Note_on_c, 1, 48, 83
2, 97024, Note_on_c, 0, 69, 0
2, 97024, Note_on_c, 0, 62, 0
2, 97024, Note_on_c, 0, 60, 100
2, 97088, Note_on_c, 1, 48, 0
2, 97088, Note_on_c, 1, 53, 83
2, 97152, Note_on_c, 0, 60, 0
2, 97152, Note_on_c, 0, 62, 83
2, 97216, Note_on_c, 1, 53, 0
2, 97216, Note_on_c, 1, 58, 83
2, 97280, Note_on_c, 1, 58, 0
2, 97280, Note_on_c, 0, 62, 0
2, 97280, Control_c, 0, 64, 0
2, 97280, Control_c, 0, 64, 127
2, 97280, Control_c, 1, 64, 0
2, 97280, Control_c, 1, 64, 127
2, 97280, Note_on_c, 1, 46, 83
2, 97344, Note_on_c, 0, 60, 83
2, 97408, Note_on_c, 1, 46, 0
2, 97408, Note_on_c, 1, 53, 83
2, 97472, Note_on_c, 0, 60, 0
2, 97472, Note_on_c, 0, 62, 100
2, 97472, Note_on_c, 0, 65, 100
2, 97472, Note_on_c, 0, 69, 100
2, 97536, Note_on_c, 1, 53, 0
2, 97536, Note_on_c, 1, 58, 83
2, 97600, Note_on_c, 0, 69, 0
2, 97600, Note_on_c, 0, 65, 0
2, 97600, Note_on_c, 0, 62, 0
2, 97600, Note_on_c, 0, 62, 100
2, 97600, Note_on_c, 0, 65, 100
2, 97600, Note_on_c, 0, 69, 100
2, 97664, Note_on_c, 1, 58, 0
2, 97664, Note_on_c, 1, 60, 83
2, 97728, Note_on_c, 1, 60, 0
2, 97728, Note_on_c, 1, 55, 83
2, 97792, Note_on_c, 1, 55, 0
2, 97792, Note_on_c, 0, 69, 0
2, 97792, Note_on_c, 0, 65, 0
2, 97792, Note_on_c, 0, 62, 0
2, 97792, Control_c, 0, 64, 0
2, 97792, Control_c, 0, 64, 127
2, 97792, Note_on_c, 0, 62, 100
2, 97792, Note_on_c, 0, 65, 100
2, 97792, Note_on_c, 0, 69, 100
2, 97792, Control_c, 1, 64, 0
2, 97792, Control_c, 1, 64, 127
2, 97792, Note_on_c, 1, 48, 83
2, 97856, Note_on_c, 1, 48, 0
2, 97856, Note_on_c, 1, 55, 83
2, 97920, Note_on_c, 1, 55, 0
2, 97920, Note_on_c, 1, 60, 83
2, 97984, Note_on_c, 1, 60, 0
2, 97984, Note_on_c, 1, 60, 83
2, 98048, Note_on_c, 0, 69, 0
2, 98048, Note_on_c, 0, 65, 0
2, 98048, Note_on_c, 0, 62, 0
2, 98048, Note_on_c, 0, 62, 100
2, 98048, Note_on_c, 0, 65, 100
2, 98048, Note_on_c, 0, 69, 100
2, 98112, Note_on_c, 1, 60, 0
2, 98112, Note_on_c, 1, 55, 83
2, 98176, Note_on_c, 1, 55, 0
2, 98176, Note_on_c, 1, 60, 83
2, 98240, Note_on_c, 1, 60, 0
2, 98240, Note_on_c, 1, 46, 83
2, 98304, Note_on_c, 1, 46, 0
2, 98304, Note_on_c, 0, 69, 0
2, 98304, Note_on_c, 0, 65, 0
2, 98304, Note_on_c, 0, 62, 0
2, 98304, Control_c, 0, 64, 0
2, 98304, Control_c, 0, 64, 127
2, 98304, Note_on_c, 0, 58, 83
2, 98304, Note_on_c, 0, 62, 83
2, 98304, Control_c, 1, 64, 0
2, 98304, Control_c, 1, 64, 127
2, 98304, Note_on_c, 1, 34, 83
2, 98432, Note_on_c, 1, 34, 0
2, 98432, Note_on_c, 1, 46, 83
2, 98496, Note_on_c, 0, 62, 0
2, 98496, Note_on_c, 0, 58, 0
2, 98496, Note_on_c, 0, 58, 83
2, 98560, Note_on_c, 1, 46, 0
2, 98560, Note_on_c, 1, 46, 83
2, 98624, Note_on_c, 0, 58, 0
2, 98624, Note_on_c, 0, 62, 100
2, 98688, Note_on_c, 0, 62, 0
2, 98688, Note_on_c, 0, 58, 83
2, 98752, Note_on_c, 1, 46, 0
2, 98752, Note_on_c, 1, 58, 83
2, 98816, Note_on_c, 0, 58, 0
2, 98816, Note_on_c, 0, 69, 100
2, 98880, Note_on_c, 1, 58, 0
2, 98880, Note_on_c, 1, 58, 83
2, 99008, Note_on_c, 1, 58, 0
2, 99008, Note_on_c, 1, 53, 83
2, 99072, Note_on_c, 0, 69, 0
2, 99072, Note_on_c, 0, 65, 100
2, 99136, Note_on_c, 1, 53, 0
2, 99136, Note_on_c, 1, 58, 83
2, 99200, Note_on_c, 0, 65, 0
2, 99200, Note_on_c, 0, 62, 83
2, 99264, Note_on_c, 1, 58, 0
2, 99264, Note_on_c, 1, 51, 83
2, 99328, Note_on_c, 1, 51, 0
2, 99328, Note_on_c, 0, 62, 0
2, 99328, Control_c, 0, 64, 0
2, 99328, Control_c, 0, 64, 127
2, 99328, Control_c, 1, 64, 0
2, 99328, Control_c, 1, 64, 127
2, 99328, Note_on_c, 1, 39, 83
2, 99392, Note_on_c, 0, 60, 83
2, 99456, Note_on_c, 1, 39, 0
2, 99456, Note_on_c, 1, 51, 83
2, 99542, Note_on_c, 0, 60, 0
2, 99542, Note_on_c, 0, 60, 83
2, 99568, Note_on_c, 0, 60, 0
2, 99568, Note_on_c, 0, 61, 83
2, 99584, Note_on_c, 1, 51, 0
2, 99584, Note_on_c, 0, 61, 0
2, 99584, Note_on_c, 0, 62, 83
2, 99584, Note_on_c, 1, 51, 83
2, 99648, Note_on_c, 0, 62, 0
2, 99648, Note_on_c, 0, 65, 100
2, 99712, Note_on_c, 0, 65, 0
2, 99712, Note_on_c, 0, 60, 83
2, 99776, Note_on_c, 1, 51, 0
2, 99776, Note_on_c, 1, 53, 83
2, 99840, Note_on_c, 1, 53, 0
2, 99840, Note_on_c, 0, 60, 0
2, 99840, Control_c, 0, 64, 0
2, 99840, Control_c, 0, 64, 127
2, 99840, Note_on_c, 0, 58, 100
2, 99840, Control_c, 1, 64, 0
2, 99840, Control_c, 1, 64, 127
2, 99840, Note_on_c, 1, 41, 83
2, 99904, Note_on_c, 1, 41, 0
2, 99904, Note_on_c, 1, 48, 83
2, 100032, Note_on_c, 0, 58, 0
2, 100032, Note_on_c, 0, 60, 100
2, 100096, Note_on_c, 1, 48, 0
2, 100096, Note_on_c, 1, 48, 83
2, 100160, Note_on_c, 0, 60, 0
2, 100160, Note_on_c, 0, 58, 83
2, 100224, Note_on_c, 0, 58, 0
2, 100224, Note_on_c, 0, 53, 83
2, 100288, Note_on_c, 1, 48, 0
2, 100288, Note_on_c, 1, 46, 83
2, 100352, Note_on_c, 1, 46, 0
2, 100352, Note_on_c, 0, 53, 0
2, 100352, Control_c, 0, 64, 0
2, 100352, Control_c, 0, 64, 127
2, 100352, Note_on_c, 0, 58, 83
2, 100352, Control_c, 1, 64, 0
2, 100352, Control_c, 1, 64, 127
2, 100352, Note_on_c, 1, 34, 83
2, 100416, Note_on_c, 1, 34, 0
2, 100416, Note_on_c, 1, 46, 83
2, 100544, Note_on_c, 1, 46, 0
2, 100544, Note_on_c, 0, 58, 0
2, 100544, Note_on_c, 0, 58, 100
2, 100544, Note_on_c, 1, 34, 83
2, 100608, Note_on_c, 1, 34, 0
2, 100608, Note_on_c, 1, 46, 83
2, 100672, Note_on_c, 0, 58, 0
2, 100672, Note_on_c, 0, 62, 100
2, 100736, Note_on_c, 0, 62, 0
2, 100736, Note_on_c, 0, 58, 83
2, 100800, Note_on_c, 1, 46, 0
2, 100800, Note_on_c, 1, 46, 83
2, 100864, Note_on_c, 0, 58, 0
2, 100864, Note_on_c, 0, 69, 100
2, 100928, Note_on_c, 1, 46, 0
2, 100928, Note_on_c, 1, 46, 83
2, 100992, Note_on_c, 0, 69, 0
2, 100992, Note_on_c, 0, 65, 83
2, 101056, Note_on_c, 1, 46, 0
2, 101056, Note_on_c, 1, 46, 83
2, 101120, Note_on_c, 1, 46, 0
2, 101120, Note_on_c, 1, 46, 83
2, 101207, Note_on_c, 0, 65, 0
2, 101207, Note_on_c, 0, 72, 83
2, 101230, Note_on_c, 0, 72, 0
2, 101230, Note_on_c, 0, 73, 83
2, 101248, Note_on_c, 0, 73, 0
2, 101248, Note_on_c, 0, 74, 83
2, 101312, Note_on_c, 0, 74, 0
2, 101312, Note_on_c, 0, 77, 100
2, 101376, Note_on_c, 1, 46, 0
2, 101376, Control_c, 0, 64, 0
2, 101376, Control_c, 0, 64, 127
2, 101376, Control_c, 1, 64, 0
2, 101376, Control_c, 1, 64, 127
2, 101376, Note_on_c, 1, 39, 83
2, 101440, Note_on_c, 0, 77, 0
2, 101440, Note_on_c, 0, 65, 100
2, 101440, Note_on_c, 0, 70, 100
2, 101440, Note_on_c, 0, 74, 100
2, 101504, Note_on_c, 1, 39, 0
2, 101504, Note_on_c, 1, 46, 83
2, 101568, Note_on_c, 0, 74, 0
2, 101568, Note_on_c, 0, 70, 0
2, 101568, Note_on_c, 0, 65, 0
2, 101568, Note_on_c, 0, 63, 100
2, 101568, Note_on_c, 0, 70, 100
2, 101632, Note_on_c, 1, 46, 0
2, 101632, Note_on_c, 1, 53, 83
2, 101696, Note_on_c, 0, 70, 0
2, 101696, Note_on_c, 0, 63, 0
2, 101696, Note_on_c, 0, 62, 83
2, 101760, Note_on_c, 1, 53, 0
2, 101760, Note_on_c, 1, 51, 83
2, 101824, Note_on_c, 0, 62, 0
2, 101824, Note_on_c, 0, 58, 83
2, 101824, Note_on_c, 0, 65, 83
2, 101888, Note_on_c, 1, 51, 0
2, 101888, Control_c, 0, 64, 0
2, 101888, Control_c, 0, 64, 127
2, 101888, Control_c, 1, 64, 0
2, 101888, Control_c, 1, 64, 127
2, 101888, Note_on_c, 1, 41, 83
2, 101952, Note_on_c, 0, 65, 0
2, 101952, Note_on_c, 0, 58, 0
2, 101952, Note_on_c, 0, 57, 83
2, 101952, Note_on_c, 0, 60, 83
2, 102016, Note_on_c, 1, 41, 0
2, 102016, Note_on_c, 1, 48, 83
2, 102080, Note_on_c, 1, 48, 0
2, 102080, Note_on_c, 1, 53, 83
2, 102144, Note_on_c, 0, 60, 0
2, 102144, Note_on_c, 0, 57, 0
2, 102144, Note_on_c, 0, 58, 83
2, 102208, Note_on_c, 1, 53, 0
2, 102208, Note_on_c, 1, 48, 83
2, 102272, Note_on_c, 0, 58, 0
2, 102272, Note_on_c, 0, 53, 83
2, 102336, Note_on_c, 1, 48, 0
2, 102336, Note_on_c, 1, 46, 83
2, 102400, Note_on_c, 1, 46, 0
2, 102400, Note_on_c, 0, 53, 0
2, 102400, Control_c, 0, 64, 0
2, 102400, Control_c, 0, 64, 127
2, 102400, Control_c, 1, 64, 0
2, 102400, Control_c, 1, 64, 127
2, 102400, Note_on_c, 1, 34, 83
2, 102464, Note_on_c, 0, 53, 83
2, 102528, Note_on_c, 1, 34, 0
2, 102528, Note_on_c, 1, 46, 83
2, 102592, Note_on_c, 0, 53, 0
2, 102592, Note_on_c, 0, 62, 100
2, 102656, Note_on_c, 1, 46, 0
2, 102656, Note_on_c, 1, 46, 83
2, 102720, Note_on_c, 0, 62, 0
2, 102720, Note_on_c, 0, 65, 100
2, 102784, Note_on_c, 0, 65, 0
2, 102784, Note_on_c, 0, 62, 83
2, 102848, Note_on_c, 0, 62, 0
2, 102848, Note_on_c, 0, 58, 83
2, 102912, Note_on_c, 0, 58, 0
2, 102912, Note_on_c, 0, 69, 100
2, 102976, Note_on_c, 1, 46, 0
2, 102976, Note_on_c, 1, 46, 83
2, 103104, Note_on_c, 1, 46, 0
2, 103104, Note_on_c, 1, 53, 83
2, 103168, Note_on_c, 0, 69, 0
2, 103168, Note_on_c, 0, 65, 100
2, 103232, Note_on_c, 1, 53, 0
2, 103232, Note_on_c, 1, 58, 83
2, 103360, Note_on_c, 1, 58, 0
2, 103360, Note_on_c, 1, 51, 83
2, 103424, Note_on_c, 1, 51, 0
2, 103424, Note_on_c, 0, 65, 0
2, 103424, Control_c, 0, 64, 0
2, 103424, Control_c, 0, 64, 127
2, 103424, Control_c, 1, 64, 0
2, 103424, Control_c, 1, 64, 127
2, 103424, Note_on_c, 1, 39, 83
2, 103488, Note_on_c, 0, 67, 83
2, 103488, Note_on_c, 0, 70, 83
2, 103488, Note_on_c, 0, 75, 83
2, 103552, Note_on_c, 1, 39, 0
2, 103552, Note_on_c, 1, 46, 83
2, 103616, Note_on_c, 0, 75, 0
2, 103616, Note_on_c, 0, 70, 0
2, 103616, Note_on_c, 0, 67, 0
2, 103616, Note_on_c, 0, 67, 110
2, 103616, Note_on_c, 0, 70, 110
2, 103616, Note_on_c, 0, 75, 110
2, 103680, Note_on_c, 1, 46, 0
2, 103680, Note_on_c, 1, 51, 83
2, 103744, Note_on_c, 0, 75, 0
2, 103744, Note_on_c, 0, 70, 0
2, 103744, Note_on_c, 0, 67, 0
2, 103744, Note_on_c, 0, 65, 83
2, 103744, Note_on_c, 0, 70, 83
2, 103744, Note_on_c, 0, 74, 83
2, 103872, Note_on_c, 1, 51, 0
2, 103872, Note_on_c, 0, 74, 0
2, 103872, Note_on_c, 0, 70, 0
2, 103872, Note_on_c, 0, 65, 0
2, 103872, Note_on_c, 0, 65, 110
2, 103872, Note_on_c, 0, 70, 110
2, 103872, Note_on_c, 0, 74, 110
2, 103872, Note_on_c, 1, 53, 83
2, 103936, Note_on_c, 1, 53, 0
2, 103936, Control_c, 1, 64, 0
2, 103936, Control_c, 1, 64, 127
2, 103936, Note_on_c, 1, 41, 83
2, 104000, Note_on_c, 0, 74, 0
2, 104000, Note_on_c, 0, 70, 0
2, 104000, Note_on_c, 0, 65, 0
2, 104000, Note_on_c, 0, 63, 83
2, 104000, Note_on_c, 0, 72, 83
2, 104064, Note_on_c, 1, 41, 0
2, 104064, Note_on_c, 1, 48, 83
2, 104128, Note_on_c, 0, 72, 0
2, 104128, Note_on_c, 0, 63, 0
2, 104128, Control_c, 0, 64, 0
2, 104128, Control_c, 0, 64, 127
2, 104128, Note_on_c, 0, 62, 110
2, 104128, Note_on_c, 0, 70, 110
2, 104192, Note_on_c, 1, 48, 0
2, 104192, Note_on_c, 1, 53, 83
2, 104256, Note_on_c, 0, 70, 0
2, 104256, Note_on_c, 0, 62, 0
2, 104256, Note_on_c, 0, 63, 83
2, 104384, Note_on_c, 1, 53, 0
2, 104384, Note_on_c, 0, 63, 0
2, 104384, Note_on_c, 0, 65, 83
2, 104384, Note_on_c, 1, 46, 83
2, 104448, Note_on_c, 1, 46, 0
2, 104448, Control_c, 0, 64, 0
2, 104448, Control_c, 0, 64, 127
2, 104448, Control_c, 1, 64, 0
2, 104448, Control_c, 1, 64, 127
2, 104448, Note_on_c, 1, 34, 83
2, 104512, Note_on_c, 0, 65, 0
2, 104512, Note_on_c, 0, 53, 83
2, 104576, Note_on_c, 1, 34, 0
2, 104576, Note_on_c, 1, 46, 83
2, 104640, Note_on_c, 0, 53, 0
2, 104640, Note_on_c, 0, 58, 100
2, 104704, Note_on_c, 1, 46, 0
2, 104704, Note_on_c, 1, 46, 83
2, 104768, Note_on_c, 0, 58, 0
2, 104768, Note_on_c, 0, 65, 100
2, 104832, Note_on_c, 0, 65, 0
2, 104832, Note_on_c, 0, 62, 83
2, 104896, Note_on_c, 1, 46, 0
2, 104896, Note_on_c, 1, 46, 83
2, 104960, Note_on_c, 0, 62, 0
2, 104960, Note_on_c, 0, 69, 100
2, 105024, Note_on_c, 1, 46, 0
2, 105024, Note_on_c, 1, 46, 83
2, 105152, Note_on_c, 1, 46, 0
2, 105152, Note_on_c, 1, 46, 83
2, 105216, Note_on_c, 0, 69, 0
2, 105216, Note_on_c, 0, 65, 100
2, 105280, Note_on_c, 1, 46, 0
2, 105280, Note_on_c, 1, 46, 83
2, 105344, Note_on_c, 1, 46, 0
2, 105344, Note_on_c, 1, 55, 83
2, 105408, Note_on_c, 1, 55, 0
2, 105408, Note_on_c, 1, 51, 83
2, 105472, Note_on_c, 1, 51, 0
2, 105472, Note_on_c, 0, 65, 0
2, 105472, Control_c, 0, 64, 0
2, 105472, Control_c, 0, 64, 127
2, 105472, Control_c, 1, 64, 0
2, 105472, Control_c, 1, 64, 127
2, 105472, Note_on_c, 1, 39, 83
2, 105536, Note_on_c, 0, 55, 83
2, 105600, Note_on_c, 0, 55, 0
2, 105600, Note_on_c, 0, 58, 83
2, 105664, Note_on_c, 0, 58, 0
2, 105664, Note_on_c, 0, 63, 83
2, 105728, Note_on_c, 1, 39, 0
2, 105728, Note_on_c, 0, 63, 0
2, 105728, Note_on_c, 0, 65, 83
2, 105728, Note_on_c, 1, 51, 83
2, 105792, Note_on_c, 0, 65, 0
2, 105792, Note_on_c, 0, 67, 83
2, 105856, Note_on_c, 0, 67, 0
2, 105856, Note_on_c, 0, 70, 83
2, 105920, Note_on_c, 1, 51, 0
2, 105920, Note_on_c, 0, 70, 0
2, 105920, Note_on_c, 0, 72, 83
2, 105920, Note_on_c, 1, 53, 83
2, 105984, Note_on_c, 1, 53, 0
2, 105984, Note_on_c, 0, 72, 0
2, 105984, Control_c, 0, 64, 0
2, 105984, Control_c, 0, 64, 127
2, 105984, Note_on_c, 0, 74, 83
2, 105984, Control_c, 1, 64, 0
2, 105984, Control_c, 1, 64, 127
2, 105984, Note_on_c, 1, 41, 83
2, 106048, Note_on_c, 0, 74, 0
2, 106048, Note_on_c, 0, 75, 83
2, 106112, Note_on_c, 0, 75, 0
2, 106112, Note_on_c, 0, 77, 83
2, 106176, Note_on_c, 0, 77, 0
2, 106176, Note_on_c, 0, 79, 83
2, 106240, Note_on_c, 1, 41, 0
2, 106240, Note_on_c, 0, 79, 0
2, 106240, Note_on_c, 0, 81, 83
2, 106240, Note_on_c, 1, 53, 83
2, 106304, Note_on_c, 0, 81, 0
2, 106304, Note_on_c, 0, 82, 83
2, 106368, Note_on_c, 0, 82, 0
2, 106368, Note_on_c, 0, 83, 83
2, 106432, Note_on_c, 1, 53, 0
2, 106432, Note_on_c, 0, 83, 0
2, 106432, Note_on_c, 0, 84, 83
2, 106432, Note_on_c, 1, 55, 83
2, 106496, Note_on_c, 1, 55, 0
2, 106496, Note_on_c, 0, 84, 0
2, 106496, Control_c, 0, 64, 0
2, 106496, Control_c, 0, 64, 127
2, 106496, Note_on_c, 0, 86, 83
2, 106496, Control_c, 1, 64, 0
2, 106496, Control_c, 1, 64, 127
2, 106496, Note_on_c, 1, 43, 83
2, 106560, Note_on_c, 1, 43, 0
2, 106560, Note_on_c, 1, 50, 83
2, 106688, Note_on_c, 0, 86, 0
2, 106688, Note_on_c, 0, 67, 100
2, 106752, Note_on_c, 1, 50, 0
2, 106752, Note_on_c, 1, 55, 83
2, 106816, Note_on_c, 0, 67, 0
2, 106816, Note_on_c, 0, 74, 100
2, 106880, Note_on_c, 0, 74, 0
2, 106880, Note_on_c, 0, 71, 83
2, 106944, Note_on_c, 1, 55, 0
2, 106944, Note_on_c, 1, 55, 83
2, 107008, Note_on_c, 0, 71, 0
2, 107008, Note_on_c, 0, 67, 100
2, 107008, Note_on_c, 0, 74, 100
2, 107008, Note_on_c, 0, 78, 100
2, 107072, Note_on_c, 1, 55, 0
2, 107072, Note_on_c, 1, 50, 83
2, 107200, Note_on_c, 1, 50, 0
2, 107200, Note_on_c, 1, 55, 83
2, 107264, Note_on_c, 0, 78, 0
2, 107264, Note_on_c, 0, 74, 0
2, 107264, Note_on_c, 0, 67, 0
2, 107264, Note_on_c, 0, 67, 100
2, 107264, Note_on_c, 0, 74, 100
2, 107328, Note_on_c, 1, 55, 0
2, 107328, Note_on_c, 1, 50, 83
2, 107456, Note_on_c, 1, 50, 0
2, 107456, Note_on_c, 1, 52, 83
2, 107520, Note_on_c, 1, 52, 0
2, 107520, Note_on_c, 0, 74, 0
2, 107520, Note_on_c, 0, 67, 0
2, 107520, Control_c, 0, 64, 0
2, 107520, Control_c, 0, 64, 127
2, 107520, Control_c, 1, 64, 0
2, 107520, Control_c, 1, 64, 127
2, 107520, Note_on_c, 1, 36, 83
2, 107584, Note_on_c, 0, 67, 83
2, 107648, Note_on_c, 1, 36, 0
2, 107648, Note_on_c, 1, 43, 83
2, 107712, Note_on_c, 0, 67, 0
2, 107712, Note_on_c, 0, 67, 100
2, 107712, Note_on_c, 0, 74, 100
2, 107712, Note_on_c, 0, 79, 100
2, 107776, Note_on_c, 1, 43, 0
2, 107776, Note_on_c, 1, 52, 83
2, 107840, Note_on_c, 0, 79, 0
2, 107840, Note_on_c, 0, 74, 0
2, 107840, Note_on_c, 0, 67, 0
2, 107840, Note_on_c, 0, 67, 100
2, 107840, Note_on_c, 0, 74, 100
2, 107840, Note_on_c, 0, 79, 100
2, 107904, Note_on_c, 1, 52, 0
2, 107904, Note_on_c, 0, 79, 0
2, 107904, Note_on_c, 0, 74, 0
2, 107904, Note_on_c, 0, 67, 0
2, 107904, Note_on_c, 0, 76, 83
2, 107904, Note_on_c, 1, 50, 83
2, 108032, Note_on_c, 1, 50, 0
2, 108032, Note_on_c, 0, 76, 0
2, 108032, Control_c, 0, 64, 0
2, 108032, Control_c, 0, 64, 127
2, 108032, Control_c, 1, 64, 0
2, 108032, Control_c, 1, 64, 127
2, 108032, Note_on_c, 1, 38, 83
2, 108096, Note_on_c, 0, 67, 83
2, 108160, Note_on_c, 1, 38, 0
2, 108160, Note_on_c, 1, 45, 83
2, 108224, Note_on_c, 0, 67, 0
2, 108224, Note_on_c, 0, 67, 83
2, 108288, Note_on_c, 1, 45, 0
2, 108288, Note_on_c, 1, 50, 83
2, 108352, Note_on_c, 0, 67, 0
2, 108352, Note_on_c, 0, 67, 83
2, 108480, Note_on_c, 1, 50, 0
2, 108480, Note_on_c, 1, 59, 83
2, 108544, Note_on_c, 1, 59, 0
2, 108544, Note_on_c, 0, 67, 0
2, 108544, Control_c, 0, 64, 0
2, 108544, Control_c, 0, 64, 127
2, 108544, Control_c, 1, 64, 0
2, 108544, Control_c, 1, 64, 127
2, 108544, Note_on_c, 1, 43, 83
2, 108608, Note_on_c, 0, 67, 83
2, 108672, Note_on_c, 1, 43, 0
2, 108672, Note_on_c, 1, 50, 83
2, 108736, Note_on_c, 0, 67, 0
2, 108736, Note_on_c, 0, 67, 100
2, 108736, Note_on_c, 0, 74, 100
2, 108800, Note_on_c, 1, 50, 0
2, 108800, Note_on_c, 1, 59, 83
2, 108864, Note_on_c, 0, 74, 0
2, 108864, Note_on_c, 0, 67, 0
2, 108864, Note_on_c, 0, 67, 100
2, 108864, Note_on_c, 0, 76, 100
2, 108928, Note_on_c, 0, 76, 0
2, 108928, Note_on_c, 0, 67, 0
2, 108928, Note_on_c, 0, 74, 83
2, 108992, Note_on_c, 1, 59, 0
2, 108992, Note_on_c, 1, 59, 83
2, 109056, Note_on_c, 1, 59, 0
2, 109056, Note_on_c, 0, 74, 0
2, 109056, Note_on_c, 0, 67, 100
2, 109056, Note_on_c, 0, 74, 100
2, 109056, Note_on_c, 0, 78, 100
2, 109056, Note_on_c, 1, 43, 83
2, 109120, Note_on_c, 1, 43, 0
2, 109120, Note_on_c, 1, 50, 83
2, 109248, Note_on_c, 1, 50, 0
2, 109248, Note_on_c, 1, 59, 83
2, 109312, Note_on_c, 0, 78, 0
2, 109312, Note_on_c, 0, 74, 0
2, 109312, Note_on_c, 0, 67, 0
2, 109312, Note_on_c, 0, 67, 100
2, 109312, Note_on_c, 0, 74, 100
2, 109376, Note_on_c, 1, 59, 0
2, 109376, Note_on_c, 1, 50, 83
2, 109440, Note_on_c, 0, 74, 0
2, 109440, Note_on_c, 0, 67, 0
2, 109440, Note_on_c, 0, 67, 83
2, 109504, Note_on_c, 1, 50, 0
2, 109504, Note_on_c, 1, 48, 83
2, 109568, Note_on_c, 1, 48, 0
2, 109568, Note_on_c, 0, 67, 0
2, 109568, Control_c, 0, 64, 0
2, 109568, Control_c, 0, 64, 127
2, 109568, Control_c, 1, 64, 0
2, 109568, Control_c, 1, 64, 127
2, 109568, Note_on_c, 1, 36, 83
2, 109632, Note_on_c, 0, 67, 83
2, 109696, Note_on_c, 1, 36, 0
2, 109696, Note_on_c, 1, 43, 83
2, 109760, Note_on_c, 0, 67, 0
2, 109760, Note_on_c, 0, 67, 100
2, 109760, Note_on_c, 0, 72, 100
2, 109760, Note_on_c, 0, 76, 100
2, 109824, Note_on_c, 1, 43, 0
2, 109824, Note_on_c, 1, 48, 83
2, 109888, Note_on_c, 0, 76, 0
2, 109888, Note_on_c, 0, 72, 0
2, 109888, Note_on_c, 0, 67, 0
2, 109888, Note_on_c, 0, 67, 100
2, 109888, Note_on_c, 0, 79, 100
2, 109952, Note_on_c, 0, 79, 0
2, 109952, Note_on_c, 0, 67, 0
2, 109952, Note_on_c, 0, 74, 83
2, 110016, Note_on_c, 1, 48, 0
2, 110016, Note_on_c, 1, 50, 83
2, 110080, Note_on_c, 1, 50, 0
2, 110080, Note_on_c, 0, 74, 0
2, 110080, Control_c, 0, 64, 0
2, 110080, Control_c, 0, 64, 127
2, 110080, Control_c, 1, 64, 0
2, 110080, Control_c, 1, 64, 127
2, 110080, Note_on_c, 1, 38, 83
2, 110144, Note_on_c, 0, 67, 83
2, 110208, Note_on_c, 1, 38, 0
2, 110208, Note_on_c, 1, 45, 83
2, 110272, Note_on_c, 0, 67, 0
2, 110272, Note_on_c, 0, 67, 83
2, 110272, Note_on_c, 0, 74, 83
2, 110336, Note_on_c, 1, 45, 0
2, 110336, Note_on_c, 1, 50, 83
2, 110400, Note_on_c, 0, 74, 0
2, 110400, Note_on_c, 0, 67, 0
2, 110400, Note_on_c, 0, 67, 83
2, 110528, Note_on_c, 1, 50, 0
2, 110528, Note_on_c, 1, 50, 83
2, 110592, Note_on_c, 1, 50, 0
2, 110592, Note_on_c, 0, 67, 0
2, 110592, Control_c, 0, 64, 0
2, 110592, Control_c, 0, 64, 127
2, 110592, Control_c, 1, 64, 0
2, 110592, Control_c, 1, 64, 127
2, 110592, Note_on_c, 1, 43, 83
2, 110656, Note_on_c, 0, 55, 83
2, 110720, Note_on_c, 1, 43, 0
2, 110720, Note_on_c, 1, 50, 83
2, 110784, Note_on_c, 0, 55, 0
2, 110784, Note_on_c, 0, 59, 100
2, 110848, Note_on_c, 1, 50, 0
2, 110848, Note_on_c, 1, 55, 83
2, 110912, Note_on_c, 0, 59, 0
2, 110912, Note_on_c, 0, 62, 100
2, 110976, Note_on_c, 0, 62, 0
2, 110976, Note_on_c, 0, 59, 83
2, 111040, Note_on_c, 1, 55, 0
2, 111040, Note_on_c, 1, 50, 83
2, 111104, Note_on_c, 0, 59, 0
2, 111104, Note_on_c, 0, 66, 100
2, 111168, Note_on_c, 1, 50, 0
2, 111168, Note_on_c, 1, 59, 83
2, 111296, Note_on_c, 1, 59, 0
2, 111296, Note_on_c, 1, 50, 83
2, 111360, Note_on_c, 0, 66, 0
2, 111360, Note_on_c, 0, 62, 100
2, 111424, Note_on_c, 1, 50, 0
2, 111424, Note_on_c, 1, 52, 83
2, 111488, Note_on_c, 0, 62, 0
2, 111488, Note_on_c, 0, 66, 83
2, 111552, Note_on_c, 1, 52, 0
2, 111552, Note_on_c, 1, 48, 83
2, 111616, Note_on_c, 1, 48, 0
2, 111616, Note_on_c, 0, 66, 0
2, 111616, Control_c, 0, 64, 0
2, 111616, Control_c, 0, 64, 127
2, 111616, Control_c, 1, 64, 0
2, 111616, Control_c, 1, 64, 127
2, 111616, Note_on_c, 1, 36, 83
2, 111680, Note_on_c, 0, 62, 83
2, 111680, Note_on_c, 0, 67, 83
2, 111680, Note_on_c, 0, 71, 83
2, 111744, Note_on_c, 1, 36, 0
2, 111744, Note_on_c, 1, 43, 83
2, 111808, Note_on_c, 0, 71, 0
2, 111808, Note_on_c, 0, 67, 0
2, 111808, Note_on_c, 0, 62, 0
2, 111808, Note_on_c, 0, 62, 100
2, 111808, Note_on_c, 0, 67, 100
2, 111808, Note_on_c, 0, 71, 100
2, 111872, Note_on_c, 1, 43, 0
2, 111872, Note_on_c, 1, 48, 83
2, 111936, Note_on_c, 0, 71, 0
2, 111936, Note_on_c, 0, 67, 0
2, 111936, Note_on_c, 0, 62, 0
2, 111936, Note_on_c, 0, 62, 83
2, 111936, Note_on_c, 0, 67, 83
2, 111936, Note_on_c, 0, 71, 83
2, 112064, Note_on_c, 1, 48, 0
2, 112064, Note_on_c, 0, 71, 0
2, 112064, Note_on_c, 0, 67, 0
2, 112064, Note_on_c, 0, 62, 0
2, 112064, Note_on_c, 0, 62, 83
2, 112064, Note_on_c, 0, 67, 83
2, 112064, Note_on_c, 0, 71, 83
2, 112064, Note_on_c, 1, 50, 83
2, 112128, Note_on_c, 1, 50, 0
2, 112128, Control_c, 0, 64, 0
2, 112128, Control_c, 0, 64, 127
2, 112128, Control_c, 1, 64, 0
2, 112128, Control_c, 1, 64, 127
2, 112128, Note_on_c, 1, 38, 83
2, 112192, Note_on_c, 0, 71, 0
2, 112192, Note_on_c, 0, 67, 0
2, 112192, Note_on_c, 0, 62, 0
2, 112192, Note_on_c, 0, 66, 83
2, 112192, Note_on_c, 0, 69, 83
2, 112256, Note_on_c, 1, 38, 0
2, 112256, Note_on_c, 1, 45, 83
2, 112320, Note_on_c, 0, 69, 0
2, 112320, Note_on_c, 0, 66, 0
2, 112320, Note_on_c, 0, 62, 83
2, 112320, Note_on_c, 0, 67, 83
2, 112384, Note_on_c, 1, 45, 0
2, 112384, Note_on_c, 1, 50, 83
2, 112448, Note_on_c, 1, 50, 0
2, 112448, Note_on_c, 0, 67, 0
2, 112448, Note_on_c, 0, 62, 0
2, 112448, Note_on_c, 0, 66, 83
2, 112448, Note_on_c, 1, 55, 83
2, 112576, Note_on_c, 1, 55, 0
2, 112576, Note_on_c, 0, 66, 0
2, 112576, Note_on_c, 0, 62, 83
2, 112576, Note_on_c, 1, 55, 83
2, 112640, Note_on_c, 1, 55, 0
2, 112640, Note_on_c, 0, 62, 0
2, 112640, Control_c, 0, 64, 0
2, 112640, Control_c, 0, 64, 127
2, 112640, Control_c, 1, 64, 0
2, 112640, Control_c, 1, 64, 127
2, 112640, Note_on_c, 1, 43, 83
2, 112704, Note_on_c, 0, 55, 83
2, 112768, Note_on_c, 1, 43, 0
2, 112768, Note_on_c, 1, 50, 83
2, 112832, Note_on_c, 0, 55, 0
2, 112832, Note_on_c, 0, 59, 100
2, 112896, Note_on_c, 1, 50, 0
2, 112896, Note_on_c, 1, 55, 83
2, 112960, Note_on_c, 0, 59, 0
2, 112960, Note_on_c, 0, 62, 100
2, 113024, Note_on_c, 0, 62, 0
2, 113024, Note_on_c, 0, 59, 83
2, 113088, Note_on_c, 1, 55, 0
2, 113088, Note_on_c, 1, 50, 83
2, 113152, Note_on_c, 0, 59, 0
2, 113152, Note_on_c, 0, 66, 100
2, 113216, Note_on_c, 1, 50, 0
2, 113216, Note_on_c, 1, 59, 83
2, 113344, Note_on_c, 1, 59, 0
2, 113344, Note_on_c, 1, 50, 83
2, 113408, Note_on_c, 0, 66, 0
2, 113408, Note_on_c, 0, 62, 100
2, 113472, Note_on_c, 1, 50, 0
2, 113472, Note_on_c, 1, 50, 83
2, 113536, Note_on_c, 0, 62, 0
2, 113536, Note_on_c, 0, 66, 83
2, 113600, Note_on_c, 1, 50, 0
2, 113600, Note_on_c, 1, 48, 83
2, 113664, Note_on_c, 1, 48, 0
2, 113664, Note_on_c, 0, 66, 0
2, 113664, Control_c, 0, 64, 0
2, 113664, Control_c, 0, 64, 127
2, 113664, Control_c, 1, 64, 0
2, 113664, Control_c, 1, 64, 127
2, 113664, Note_on_c, 1, 36, 83
2, 113728, Note_on_c, 0, 55, 83
2, 113792, Note_on_c, 0, 55, 0
2, 113792, Note_on_c, 0, 57, 83
2, 113856, Note_on_c, 0, 57, 0
2, 113856, Note_on_c, 0, 59, 83
2, 113920, Note_on_c, 1, 36, 0
2, 113920, Note_on_c, 0, 59, 0
2, 113920, Note_on_c, 0, 60, 83
2, 113920, Note_on_c, 1, 48, 83
2, 113984, Note_on_c, 0, 60, 0
2, 113984, Note_on_c, 0, 62, 83
2, 114048, Note_on_c, 0, 62, 0
2, 114048, Note_on_c, 0, 64, 83
2, 114112, Note_on_c, 1, 48, 0
2, 114112, Note_on_c, 0, 64, 0
2, 114112, Note_on_c, 0, 66, 83
2, 114112, Note_on_c, 1, 50, 83
2, 114176, Note_on_c, 1, 50, 0
2, 114176, Note_on_c, 0, 66, 0
2, 114176, Control_c, 0, 64, 0
2, 114176, Control_c, 0, 64, 127
2, 114176, Note_on_c, 0, 67, 83
2, 114176, Control_c, 1, 64, 0
2, 114176, Control_c, 1, 64, 127
2, 114176, Note_on_c, 1, 38, 83
2, 114240, Note_on_c, 0, 67, 0
2, 114240, Note_on_c, 0, 69, 83
2, 114304, Note_on_c, 0, 69, 0
2, 114304, Note_on_c, 0, 71, 83
2, 114368, Note_on_c, 0, 71, 0
2, 114368, Note_on_c, 0, 72, 83
2, 114432, Note_on_c, 1, 38, 0
2, 114432, Note_on_c, 0, 72, 0
2, 114432, Note_on_c, 0, 74, 83
2, 114432, Note_on_c, 1, 45, 83
2, 114496, Note_on_c, 0, 74, 0
2, 114496, Note_on_c, 0, 76, 83
2, 114560, Note_on_c, 0, 76, 0
2, 114560, Note_on_c, 0, 78, 83
2, 114624, Note_on_c, 1, 45, 0
2, 114624, Note_on_c, 0, 78, 0
2, 114624, Note_on_c, 0, 79, 83
2, 114624, Note_on_c, 1, 48, 83
2, 114688, Note_on_c, 1, 48, 0
2, 114688, Control_c, 0, 64, 0
2, 114688, Control_c, 0, 64, 127
2, 114688, Control_c, 1, 64, 0
2, 114688, Control_c, 1, 64, 127
2, 114688, Note_on_c, 1, 36, 83
2, 114752, Note_on_c, 0, 79, 0
2, 114752, Note_on_c, 0, 67, 83
2, 114816, Note_on_c, 1, 36, 0
2, 114816, Note_on_c, 1, 48, 83
2, 114880, Note_on_c, 0, 67, 0
2, 114880, Note_on_c, 0, 62, 100
2, 114944, Note_on_c, 1, 48, 0
2, 114944, Note_on_c, 1, 48, 83
2, 115008, Note_on_c, 0, 62, 0
2, 115008, Note_on_c, 0, 67, 100
2, 115072, Note_on_c, 0, 67, 0
2, 115072, Note_on_c, 0, 62, 83
2, 115136, Note_on_c, 0, 62, 0
2, 115136, Note_on_c, 0, 60, 83
2, 115200, Note_on_c, 0, 60, 0
2, 115200, Note_on_c, 0, 60, 100
2, 115200, Note_on_c, 0, 67, 100
2, 115200, Note_on_c, 0, 71, 100
2, 115264, Note_on_c, 1, 48, 0
2, 115264, Note_on_c, 1, 48, 83
2, 115392, Note_on_c, 1, 48, 0
2, 115392, Note_on_c, 1, 55, 83
2, 115456, Note_on_c, 0, 71, 0
2, 115456, Note_on_c, 0, 67, 0
2, 115456, Note_on_c, 0, 60, 0
2, 115456, Note_on_c, 0, 62, 100
2, 115456, Note_on_c, 0, 67, 100
2, 115520, Note_on_c, 1, 55, 0
2, 115520, Note_on_c, 1, 60, 83
2, 115584, Note_on_c, 0, 67, 0
2, 115584, Note_on_c, 0, 62, 0
2, 115584, Note_on_c, 0, 62, 83
2, 115648, Note_on_c, 1, 60, 0
2, 115648, Note_on_c, 1, 57, 83
2, 115712, Note_on_c, 1, 57, 0
2, 115712, Note_on_c, 0, 62, 0
2, 115712, Control_c, 0, 64, 0
2, 115712, Control_c, 0, 64, 127
2, 115712, Control_c, 1, 64, 0
2, 115712, Control_c, 1, 64, 127
2, 115712, Note_on_c, 1, 41, 83
2, 115776, Note_on_c, 0, 65, 83
2, 115776, Note_on_c, 0, 69, 83
2, 115840, Note_on_c, 1, 41, 0
2, 115840, Note_on_c, 1, 48, 83
2, 115904, Note_on_c, 0, 69, 0
2, 115904, Note_on_c, 0, 65, 0
2, 115904, Note_on_c, 0, 65, 100
2, 115904, Note_on_c, 0, 69, 100
2, 115904, Note_on_c, 0, 72, 100
2, 115968, Note_on_c, 1, 48, 0
2, 115968, Note_on_c, 1, 57, 83
2, 116032, Note_on_c, 0, 72, 0
2, 116032, Note_on_c, 0, 69, 0
2, 116032, Note_on_c, 0, 65, 0
2, 116032, Note_on_c, 0, 65, 83
2, 116032, Note_on_c, 0, 69, 83
2, 116032, Note_on_c, 0, 72, 83
2, 116160, Note_on_c, 0, 72, 0
2, 116160, Note_on_c, 0, 69, 0
2, 116160, Note_on_c, 0, 65, 0
2, 116160, Note_on_c, 0, 65, 83
2, 116160, Note_on_c, 0, 69, 83
2, 116160, Note_on_c, 0, 71, 83
2, 116224, Note_on_c, 1, 57, 0
2, 116224, Control_c, 0, 64, 0
2, 116224, Control_c, 0, 64, 127
2, 116224, Control_c, 1, 64, 0
2, 116224, Control_c, 1, 64, 127
2, 116224, Note_on_c, 1, 43, 83
2, 116288, Note_on_c, 0, 71, 0
2, 116288, Note_on_c, 0, 69, 0
2, 116288, Note_on_c, 0, 65, 0
2, 116288, Note_on_c, 0, 67, 100
2, 116288, Note_on_c, 0, 69, 100
2, 116288, Note_on_c, 0, 74, 100
2, 116416, Note_on_c, 1, 43, 0
2, 116416, Note_on_c, 1, 50, 83
2, 116480, Note_on_c, 0, 74, 0
2, 116480, Note_on_c, 0, 69, 0
2, 116480, Note_on_c, 0, 67, 0
2, 116480, Note_on_c, 0, 67, 83
2, 116480, Note_on_c, 0, 74, 83
2, 116544, Note_on_c, 1, 50, 0
2, 116544, Note_on_c, 1, 59, 83
2, 116608, Note_on_c, 0, 74, 0
2, 116608, Note_on_c, 0, 67, 0
2, 116608, Note_on_c, 0, 67, 83
2, 116608, Note_on_c, 0, 69, 83
2, 116608, Note_on_c, 0, 74, 83
2, 116672, Note_on_c, 1, 59, 0
2, 116672, Note_on_c, 1, 60, 83
2, 116736, Note_on_c, 1, 60, 0
2, 116736, Note_on_c, 0, 74, 0
2, 116736, Note_on_c, 0, 69, 0
2, 116736, Note_on_c, 0, 67, 0
2, 116736, Control_c, 0, 64, 0
2, 116736, Control_c, 0, 64, 127
2, 116736, Control_c, 1, 64, 0
2, 116736, Control_c, 1, 64, 127
2, 116736, Note_on_c, 1, 48, 83
2, 116800, Note_on_c, 0, 62, 83
2, 116864, Note_on_c, 1, 48, 0
2, 116864, Note_on_c, 1, 55, 83
2, 116928, Note_on_c, 0, 62, 0
2, 116928, Note_on_c, 0, 67, 100
2, 116992, Note_on_c, 1, 55, 0
2, 116992, Note_on_c, 1, 60, 83
2, 117056, Note_on_c, 1, 60, 0
2, 117056, Note_on_c, 0, 67, 0
2, 117056, Note_on_c, 0, 71, 100
2, 117056, Note_on_c, 1, 62, 83
2, 117120, Note_on_c, 0, 71, 0
2, 117120, Note_on_c, 0, 67, 83
2, 117184, Note_on_c, 1, 62, 0
2, 117184, Note_on_c, 1, 60, 83
2, 117248, Note_on_c, 0, 67, 0
2, 117248, Note_on_c, 0, 74, 100
2, 117248, Note_on_c, 0, 79, 100
2, 117312, Note_on_c, 0, 79, 0
2, 117312, Note_on_c, 0, 74, 0
2, 117312, Note_on_c, 0, 76, 83
2, 117440, Note_on_c, 0, 76, 0
2, 117440, Note_on_c, 0, 72, 100
2, 117440, Note_on_c, 0, 79, 100
2, 117504, Note_on_c, 1, 60, 0
2, 117504, Note_on_c, 1, 60, 83
2, 117568, Note_on_c, 0, 79, 0
2, 117568, Note_on_c, 0, 72, 0
2, 117568, Note_on_c, 0, 67, 83
2, 117696, Note_on_c, 1, 60, 0
2, 117696, Note_on_c, 0, 67, 0
2, 117696, Note_on_c, 0, 72, 83
2, 117696, Note_on_c, 0, 77, 83
2, 117696, Note_on_c, 0, 79, 83
2, 117696, Note_on_c, 1, 57, 83
2, 117760, Note_on_c, 1, 57, 0
2, 117760, Control_c, 0, 64, 0
2, 117760, Control_c, 0, 64, 127
2, 117760, Control_c, 1, 64, 0
2, 117760, Control_c, 1, 64, 127
2, 117760, Note_on_c, 1, 41, 83
2, 117824, Note_on_c, 0, 79, 0
2, 117824, Note_on_c, 0, 77, 0
2, 117824, Note_on_c, 0, 72, 0
2, 117824, Note_on_c, 0, 65, 83
2, 117952, Note_on_c, 1, 41, 0
2, 117952, Note_on_c, 1, 48, 83
2, 118016, Note_on_c, 0, 65, 0
2, 118016, Note_on_c, 0, 65, 83
2, 118016, Note_on_c, 0, 69, 83
2, 118080, Note_on_c, 1, 48, 0
2, 118080, Note_on_c, 1, 57, 83
2, 118144, Note_on_c, 0, 69, 0
2, 118144, Note_on_c, 0, 65, 0
2, 118144, Note_on_c, 0, 65, 83
2, 118208, Note_on_c, 1, 57, 0
2, 118208, Note_on_c, 1, 55, 83
2, 118272, Note_on_c, 1, 55, 0
2, 118272, Note_on_c, 0, 65, 0
2, 118272, Control_c, 0, 64, 0
2, 118272, Control_c, 0, 64, 127
2, 118272, Note_on_c, 0, 67, 83
2, 118272, Note_on_c, 0, 71, 83
2, 118272, Note_on_c, 0, 74, 83
2, 118272, Control_c, 1, 64, 0
2, 118272, Control_c, 1, 64, 127
2, 118272, Note_on_c, 1, 43, 83
2, 118336, Note_on_c, 1, 43, 0
2, 118336, Note_on_c, 1, 50, 83
2, 118464, Note_on_c, 0, 74, 0
2, 118464, Note_on_c, 0, 71, 0
2, 118464, Note_on_c, 0, 67, 0
2, 118464, Note_on_c, 0, 62, 83
2, 118528, Note_on_c, 1, 50, 0
2, 118528, Note_on_c, 1, 55, 83
2, 118592, Note_on_c, 0, 62, 0
2, 118592, Note_on_c, 0, 62, 83
2, 118720, Note_on_c, 1, 55, 0
2, 118720, Note_on_c, 1, 48, 83
2, 118784, Note_on_c, 1, 48, 0
2, 118784, Note_on_c, 0, 62, 0
2, 118784, Control_c, 0, 64, 0
2, 118784, Control_c, 0, 64, 127
2, 118784, Control_c, 1, 64, 0
2, 118784, Control_c, 1, 64, 127
2, 118784, Note_on_c, 1, 36, 83
2, 118848, Note_on_c, 0, 62, 83
2, 118848, Note_on_c, 0, 67, 83
2, 118912, Note_on_c, 1, 36, 0
2, 118912, Note_on_c, 1, 43, 83
2, 118976, Note_on_c, 0, 67, 0
2, 118976, Note_on_c, 0, 62, 0
2, 118976, Note_on_c, 0, 62, 100
2, 118976, Note_on_c, 0, 67, 100
2, 119040, Note_on_c, 1, 43, 0
2, 119040, Note_on_c, 1, 48, 83
2, 119104, Note_on_c, 0, 67, 0
2, 119104, Note_on_c, 0, 62, 0
2, 119104, Note_on_c, 0, 62, 100
2, 119104, Note_on_c, 0, 71, 100
2, 119168, Note_on_c, 1, 48, 0
2, 119168, Note_on_c, 0, 71, 0
2, 119168, Note_on_c, 0, 62, 0
2, 119168, Note_on_c, 0, 67, 83
2, 119168, Note_on_c, 1, 57, 83
2, 119232, Note_on_c, 1, 57, 0
2, 119232, Note_on_c, 1, 43, 83
2, 119296, Note_on_c, 0, 67, 0
2, 119296, Note_on_c, 0, 62, 100
2, 119296, Note_on_c, 0, 71, 100
2, 119360, Note_on_c, 1, 43, 0
2, 119360, Note_on_c, 1, 48, 83
2, 119488, Note_on_c, 1, 48, 0
2, 119488, Note_on_c, 1, 43, 83
2, 119552, Note_on_c, 0, 71, 0
2, 119552, Note_on_c, 0, 62, 0
2, 119552, Note_on_c, 0, 62, 100
2, 119552, Note_on_c, 0, 67, 100
2, 119680, Note_on_c, 1, 43, 0
2, 119680, Note_on_c, 1, 55, 83
2, 119744, Note_on_c, 1, 55, 0
2, 119744, Note_on_c, 1, 48, 83
2, 119808, Note_on_c, 1, 48, 0
2, 119808, Note_on_c, 0, 67, 0
2, 119808, Note_on_c, 0, 62, 0
2, 119808, Control_c, 0, 64, 0
2, 119808, Control_c, 0, 64, 127
2, 119808, Control_c, 1, 64, 0
2, 119808, Control_c, 1, 64, 127
2, 119808, Note_on_c, 1, 41, 83
2, 119872, Note_on_c, 0, 62, 83
2, 119872, Note_on_c, 0, 67, 83
2, 119936, Note_on_c, 1, 41, 0
2, 119936, Note_on_c, 1, 48, 83
2, 120000, Note_on_c, 0, 67, 0
2, 120000, Note_on_c, 0, 62, 0
2, 120000, Note_on_c, 0, 62, 100
2, 120000, Note_on_c, 0, 67, 100
2, 120064, Note_on_c, 1, 48, 0
2, 120064, Note_on_c, 1, 53, 83
2, 120128, Note_on_c, 0, 67, 0
2, 120128, Note_on_c, 0, 62, 0
2, 120128, Note_on_c, 0, 62, 100
2, 120128, Note_on_c, 0, 71, 100
2, 120192, Note_on_c, 1, 53, 0
2, 120192, Note_on_c, 0, 71, 0
2, 120192, Note_on_c, 0, 62, 0
2, 120192, Note_on_c, 0, 67, 83
2, 120192, Note_on_c, 1, 57, 83
2, 120256, Note_on_c, 1, 57, 0
2, 120256, Note_on_c, 1, 50, 83
2, 120320, Note_on_c, 1, 50, 0
2, 120320, Note_on_c, 0, 67, 0
2, 120320, Control_c, 0, 64, 0
2, 120320, Control_c, 0, 64, 127
2, 120320, Note_on_c, 0, 62, 100
2, 120320, Note_on_c, 0, 71, 100
2, 120320, Control_c, 1, 64, 0
2, 120320, Control_c, 1, 64, 127
2, 120320, Note_on_c, 1, 43, 83
2, 120384, Note_on_c, 1, 43, 0
2, 120384, Note_on_c, 1, 50, 83
2, 120448, Note_on_c, 1, 50, 0
2, 120448, Note_on_c, 1, 57, 83
2, 120512, Note_on_c, 1, 57, 0
2, 120512, Note_on_c, 1, 55, 83
2, 120576, Note_on_c, 0, 71, 0
2, 120576, Note_on_c, 0, 62, 0
2, 120576, Note_on_c, 0, 62, 100
2, 120576, Note_on_c, 0, 67, 100
2, 120640, Note_on_c, 1, 55, 0
2, 120640, Note_on_c, 1, 50, 83
2, 120704, Note_on_c, 1, 50, 0
2, 120704, Note_on_c, 1, 55, 83
2, 120768, Note_on_c, 1, 55, 0
2, 120768, Note_on_c, 1, 48, 83
2, 120832, Note_on_c, 1, 48, 0
2, 120832, Note_on_c, 0, 67, 0
2, 120832, Note_on_c, 0, 62, 0
2, 120832, Control_c, 0, 64, 0
2, 120832, Control_c, 0, 64, 127
2, 120832, Control_c, 1, 64, 0
2, 120832, Control_c, 1, 64, 127
2, 120832, Note_on_c, 1, 36, 83
2, 120896, Note_on_c, 0, 55, 83
2, 120960, Note_on_c, 1, 36, 0
2, 120960, Note_on_c, 1, 43, 83
2, 121024, Note_on_c, 0, 55, 0
2, 121024, Note_on_c, 0, 55, 100
2, 121024, Note_on_c, 0, 62, 100
2, 121024, Note_on_c, 0, 67, 100
2, 121088, Note_on_c, 1, 43, 0
2, 121088, Note_on_c, 1, 48, 83
2, 121152, Note_on_c, 0, 67, 0
2, 121152, Note_on_c, 0, 62, 0
2, 121152, Note_on_c, 0, 55, 0
2, 121152, Note_on_c, 0, 62, 100
2, 121152, Note_on_c, 0, 71, 100
2, 121216, Note_on_c, 1, 48, 0
2, 121216, Note_on_c, 0, 71, 0
2, 121216, Note_on_c, 0, 62, 0
2, 121216, Note_on_c, 0, 67, 83
2, 121216, Note_on_c, 1, 57, 83
2, 121280, Note_on_c, 1, 57, 0
2, 121280, Note_on_c, 1, 43, 83
2, 121344, Note_on_c, 1, 43, 0
2, 121344, Note_on_c, 0, 67, 0
2, 121344, Note_on_c, 0, 62, 100
2, 121344, Note_on_c, 0, 71, 100
2, 121344, Note_on_c, 1, 36, 83
2, 121408, Note_on_c, 1, 36, 0
2, 121408, Note_on_c, 1, 43, 83
2, 121536, Note_on_c, 1, 43, 0
2, 121536, Note_on_c, 1, 48, 83
2, 121600, Note_on_c, 0, 71, 0
2, 121600, Note_on_c, 0, 62, 0
2, 121600, Note_on_c, 0, 55, 83
2, 121600, Note_on_c, 0, 62, 83
2, 121600, Note_on_c, 0, 67, 83
2, 121664, Note_on_c, 1, 48, 0
2, 121664, Note_on_c, 1, 48, 83
2, 121728, Note_on_c, 1, 48, 0
2, 121728, Note_on_c, 1, 55, 83
2, 121792, Note_on_c, 1, 55, 0
2, 121792, Note_on_c, 1, 48, 83
2, 121856, Note_on_c, 1, 48, 0
2, 121856, Note_on_c, 0, 67, 0
2, 121856, Note_on_c, 0, 62, 0
2, 121856, Note_on_c, 0, 55, 0
2, 121856, Control_c, 0, 64, 0
2, 121856, Control_c, 0, 64, 127
2, 121856, Control_c, 1, 64, 0
2, 121856, Control_c, 1, 64, 127
2, 121856, Note_on_c, 1, 41, 83
2, 121920, Note_on_c, 0, 55, 83
2, 121984, Note_on_c, 1, 41, 0
2, 121984, Note_on_c, 1, 48, 83
2, 122048, Note_on_c, 0, 55, 0
2, 122048, Note_on_c, 0, 55, 100
2, 122048, Note_on_c, 0, 62, 100
2, 122048, Note_on_c, 0, 67, 100
2, 122112, Note_on_c, 1, 48, 0
2, 122112, Note_on_c, 1, 53, 83
2, 122176, Note_on_c, 0, 67, 0
2, 122176, Note_on_c, 0, 62, 0
2, 122176, Note_on_c, 0, 55, 0
2, 122176, Note_on_c, 0, 62, 100
2, 122176, Note_on_c, 0, 71, 100
2, 122240, Note_on_c, 1, 53, 0
2, 122240, Note_on_c, 0, 71, 0
2, 122240, Note_on_c, 0, 62, 0
2, 122240, Note_on_c, 0, 67, 83
2, 122240, Note_on_c, 1, 57, 83
2, 122304, Note_on_c, 1, 57, 0
2, 122304, Note_on_c, 1, 50, 83
2, 122368, Note_on_c, 1, 50, 0
2, 122368, Note_on_c, 0, 67, 0
2, 122368, Control_c, 0, 64, 0
2, 122368, Control_c, 0, 64, 127
2, 122368, Note_on_c, 0, 62, 100
2, 122368, Note_on_c, 0, 71, 100
2, 122368, Control_c, 1, 64, 0
2, 122368, Control_c, 1, 64, 127
2, 122368, Note_on_c, 1, 43, 83
2, 122432, Note_on_c, 1, 43, 0
2, 122432, Note_on_c, 1, 50, 83
2, 122560, Note_on_c, 1, 50, 0
2, 122560, Note_on_c, 1, 55, 83
2, 122688, Note_on_c, 1, 55, 0
2, 122688, Note_on_c, 1, 50, 83
2, 122705, Note_on_c, 0, 71, 0
2, 122705, Note_on_c, 0, 62, 0
2, 122705, Note_on_c, 0, 57, 83
2, 122726, Note_on_c, 0, 57, 0
2, 122726, Note_on_c, 0, 59, 83
2, 122752, Note_on_c, 0, 59, 0
2, 122752, Note_on_c, 0, 60, 100
2, 122816, Note_on_c, 1, 50, 0
2, 122816, Note_on_c, 1, 41, 83
2, 122880, Note_on_c, 1, 41, 0
2, 122880, Note_on_c, 0, 60, 0
2, 122880, Control_c, 0, 64, 0
2, 122880, Control_c, 0, 64, 127
2, 122880, Note_on_c, 0, 57, 100
2, 122880, Note_on_c, 0, 60, 100
2, 122880, Control_c, 1, 64, 0
2, 122880, Control_c, 1, 64, 127
2, 122880, Note_on_c, 1, 29, 83
2, 123008, Note_on_c, 1, 29, 0
2, 123008, Note_on_c, 1, 41, 83
2, 123072, Note_on_c, 0, 60, 0
2, 123072, Note_on_c, 0, 57, 0
2, 123072, Note_on_c, 0, 57, 100
2, 123072, Note_on_c, 0, 60, 100
2, 123136, Note_on_c, 1, 41, 0
2, 123136, Note_on_c, 1, 41, 83
2, 123200, Note_on_c, 0, 60, 0
2, 123200, Note_on_c, 0, 57, 0
2, 123200, Note_on_c, 0, 65, 100
2, 123264, Note_on_c, 0, 65, 0
2, 123264, Note_on_c, 0, 60, 83
2, 123328, Note_on_c, 1, 41, 0
2, 123328, Note_on_c, 1, 41, 83
2, 123392, Note_on_c, 1, 41, 0
2, 123392, Note_on_c, 0, 60, 0
2, 123392, Note_on_c, 0, 57, 100
2, 123392, Note_on_c, 0, 65, 100
2, 123392, Note_on_c, 1, 41, 83
2, 123456, Note_on_c, 1, 41, 0
2, 123456, Note_on_c, 1, 48, 83
2, 123584, Note_on_c, 1, 48, 0
2, 123584, Note_on_c, 1, 53, 83
2, 123648, Note_on_c, 0, 65, 0
2, 123648, Note_on_c, 0, 57, 0
2, 123648, Note_on_c, 0, 57, 83
2, 123712, Note_on_c, 1, 53, 0
2, 123712, Note_on_c, 1, 48, 83
2, 123776, Note_on_c, 0, 57, 0
2, 123776, Note_on_c, 0, 65, 83
2, 123840, Note_on_c, 1, 48, 0
2, 123840, Note_on_c, 1, 46, 83
2, 123904, Note_on_c, 1, 46, 0
2, 123904, Note_on_c, 0, 65, 0
2, 123904, Control_c, 0, 64, 0
2, 123904, Control_c, 0, 64, 127
2, 123904, Control_c, 1, 64, 0
2, 123904, Control_c, 1, 64, 127
2, 123904, Note_on_c, 1, 34, 83
2, 123968, Note_on_c, 0, 58, 83
2, 124032, Note_on_c, 1, 34, 0
2, 124032, Note_on_c, 1, 46, 83
2, 124096, Note_on_c, 0, 58, 0
2, 124096, Note_on_c, 0, 62, 100
2, 124160, Note_on_c, 1, 46, 0
2, 124160, Note_on_c, 1, 46, 83
2, 124224, Note_on_c, 0, 62, 0
2, 124224, Note_on_c, 0, 69, 100
2, 124288, Note_on_c, 1, 46, 0
2, 124288, Note_on_c, 1, 55, 83
2, 124352, Note_on_c, 1, 55, 0
2, 124352, Note_on_c, 1, 48, 83
2, 124416, Note_on_c, 1, 48, 0
2, 124416, Note_on_c, 0, 69, 0
2, 124416, Control_c, 0, 64, 0
2, 124416, Control_c, 0, 64, 127
2, 124416, Control_c, 1, 64, 0
2, 124416, Control_c, 1, 64, 127
2, 124416, Note_on_c, 1, 36, 83
2, 124480, Note_on_c, 1, 36, 0
2, 124480, Note_on_c, 1, 43, 83
2, 124544, Note_on_c, 0, 55, 100
2, 124544, Note_on_c, 0, 60, 100
2, 124544, Note_on_c, 0, 64, 100
2, 124544, Note_on_c, 0, 67, 100
2, 124608, Note_on_c, 1, 43, 0
2, 124608, Note_on_c, 1, 48, 83
2, 124672, Note_on_c, 0, 67, 0
2, 124672, Note_on_c, 0, 64, 0
2, 124672, Note_on_c, 0, 60, 0
2, 124672, Note_on_c, 0, 55, 0
2, 124672, Note_on_c, 0, 55, 100
2, 124672, Note_on_c, 0, 60, 100
2, 124672, Note_on_c, 0, 64, 100
2, 124672, Note_on_c, 0, 67, 100
2, 124736, Note_on_c, 1, 48, 0
2, 124736, Note_on_c, 1, 48, 83
2, 124800, Note_on_c, 1, 48, 0
2, 124800, Note_on_c, 1, 55, 83
2, 124864, Note_on_c, 1, 55, 0
2, 124864, Note_on_c, 1, 53, 83
2, 124928, Note_on_c, 1, 53, 0
2, 124928, Note_on_c, 0, 67, 0
2, 124928, Note_on_c, 0, 64, 0
2, 124928, Note_on_c, 0, 60, 0
2, 124928, Note_on_c, 0, 55, 0
2, 124928, Control_c, 0, 64, 0
2, 124928, Control_c, 0, 64, 127
2, 124928, Control_c, 1, 64, 0
2, 124928, Control_c, 1, 64, 127
2, 124928, Note_on_c, 1, 41, 83
2, 124992, Note_on_c, 0, 57, 83
2, 125056, Note_on_c, 1, 41, 0
2, 125056, Note_on_c, 1, 48, 83
2, 125120, Note_on_c, 0, 57, 0
2, 125120, Note_on_c, 0, 60, 100
2, 125184, Note_on_c, 1, 48, 0
2, 125184, Note_on_c, 1, 53, 83
2, 125248, Note_on_c, 0, 60, 0
2, 125248, Note_on_c, 0, 64, 100
2, 125312, Note_on_c, 0, 64, 0
2, 125312, Note_on_c, 0, 60, 83
2, 125376, Note_on_c, 1, 53, 0
2, 125376, Note_on_c, 1, 48, 83
2, 125440, Note_on_c, 1, 48, 0
2, 125440, Note_on_c, 0, 60, 0
2, 125440, Note_on_c, 0, 57, 100
2, 125440, Note_on_c, 0, 60, 100
2, 125440, Note_on_c, 0, 64, 100
2, 125440, Note_on_c, 1, 41, 83
2, 125504, Note_on_c, 1, 41, 0
2, 125504, Note_on_c, 1, 48, 83
2, 125632, Note_on_c, 1, 48, 0
2, 125632, Note_on_c, 1, 53, 83
2, 125696, Note_on_c, 0, 64, 0
2, 125696, Note_on_c, 0, 60, 0
2, 125696, Note_on_c, 0, 57, 0
2, 125696, Note_on_c, 0, 57, 100
2, 125696, Note_on_c, 0, 60, 100
2, 125760, Note_on_c, 1, 53, 0
2, 125760, Note_on_c, 1, 48, 83
2, 125824, Note_on_c, 0, 60, 0
2, 125824, Note_on_c, 0, 57, 0
2, 125824, Note_on_c, 0, 57, 83
2, 125824, Note_on_c, 0, 60, 83
2, 125824, Note_on_c, 0, 64, 83
2, 125888, Note_on_c, 1, 48, 0
2, 125888, Note_on_c, 1, 46, 83
2, 125952, Note_on_c, 1, 46, 0
2, 125952, Note_on_c, 0, 64, 0
2, 125952, Note_on_c, 0, 60, 0
2, 125952, Note_on_c, 0, 57, 0
2, 125952, Control_c, 0, 64, 0
2, 125952, Control_c, 0, 64, 127
2, 125952, Control_c, 1, 64, 0
2, 125952, Control_c, 1, 64, 127
2, 125952, Note_on_c, 1, 34, 83
2, 126016, Note_on_c, 0, 65, 83
2, 126016, Note_on_c, 0, 70, 83
2, 126016, Note_on_c, 0, 74, 83
2, 126144, Note_on_c, 0, 74, 0
2, 126144, Note_on_c, 0, 70, 0
2, 126144, Note_on_c, 0, 65, 0
2, 126144, Note_on_c, 0, 65, 110
2, 126144, Note_on_c, 0, 70, 110
2, 126144, Note_on_c, 0, 74, 110
2, 126208, Note_on_c, 1, 34, 0
2, 126208, Note_on_c, 1, 46, 83
2, 126272, Note_on_c, 0, 74, 0
2, 126272, Note_on_c, 0, 70, 0
2, 126272, Note_on_c, 0, 65, 0
2, 126272, Note_on_c, 0, 65, 83
2, 126272, Note_on_c, 0, 69, 83
2, 126272, Note_on_c, 0, 72, 83
2, 126400, Note_on_c, 1, 46, 0
2, 126400, Note_on_c, 0, 72, 0
2, 126400, Note_on_c, 0, 69, 0
2, 126400, Note_on_c, 0, 65, 0
2, 126400, Note_on_c, 0, 65, 110
2, 126400, Note_on_c, 0, 69, 110
2, 126400, Note_on_c, 0, 72, 110
2, 126400, Note_on_c, 1, 48, 83
2, 126464, Note_on_c, 1, 48, 0
2, 126464, Control_c, 0, 64, 0
2, 126464, Control_c, 0, 64, 127
2, 126464, Control_c, 1, 64, 0
2, 126464, Control_c, 1, 64, 127
2, 126464, Note_on_c, 1, 36, 83
2, 126528, Note_on_c, 0, 72, 0
2, 126528, Note_on_c, 0, 69, 0
2, 126528, Note_on_c, 0, 65, 0
2, 126528, Note_on_c, 0, 67, 83
2, 126528, Note_on_c, 0, 70, 83
2, 126592, Note_on_c, 1, 36, 0
2, 126592, Note_on_c, 1, 43, 83
2, 126656, Note_on_c, 0, 70, 0
2, 126656, Note_on_c, 0, 67, 0
2, 126656, Note_on_c, 0, 67, 110
2, 126656, Note_on_c, 0, 70, 110
2, 126720, Note_on_c, 1, 43, 0
2, 126720, Note_on_c, 1, 48, 83
2, 126784, Note_on_c, 0, 70, 0
2, 126784, Note_on_c, 0, 67, 0
2, 126784, Note_on_c, 0, 60, 83
2, 126784, Note_on_c, 0, 65, 83
2, 126784, Note_on_c, 0, 69, 83
2, 126912, Note_on_c, 1, 48, 0
2, 126912, Note_on_c, 0, 69, 0
2, 126912, Note_on_c, 0, 65, 0
2, 126912, Note_on_c, 0, 60, 0
2, 126912, Note_on_c, 0, 60, 83
2, 126912, Note_on_c, 0, 65, 83
2, 126912, Note_on_c, 0, 69, 83
2, 126912, Note_on_c, 1, 53, 83
2, 126976, Note_on_c, 1, 53, 0
2, 126976, Note_on_c, 0, 69, 0
2, 126976, Note_on_c, 0, 65, 0
2, 126976, Note_on_c, 0, 60, 0
2, 126976, Control_c, 0, 64, 0
2, 126976, Control_c, 0, 64, 127
2, 126976, Control_c, 1, 64, 0
2, 126976, Control_c, 1, 64, 127
2, 126976, Note_on_c, 1, 41, 83
2, 127040, Note_on_c, 0, 57, 83
2, 127104, Note_on_c, 1, 41, 0
2, 127104, Note_on_c, 1, 48, 83
2, 127168, Note_on_c, 0, 57, 0
2, 127168, Note_on_c, 0, 60, 100
2, 127232, Note_on_c, 1, 48, 0
2, 127232, Note_on_c, 1, 53, 83
2, 127296, Note_on_c, 0, 60, 0
2, 127296, Note_on_c, 0, 64, 100
2, 127360, Note_on_c, 0, 64, 0
2, 127360, Note_on_c, 0, 57, 83
2, 127424, Note_on_c, 1, 53, 0
2, 127424, Note_on_c, 1, 53, 83
2, 127488, Note_on_c, 1, 53, 0
2, 127488, Note_on_c, 0, 57, 0
2, 127488, Note_on_c, 0, 57, 100
2, 127488, Note_on_c, 0, 60, 100
2, 127488, Note_on_c, 0, 64, 100
2, 127488, Note_on_c, 1, 41, 83
2, 127552, Note_on_c, 1, 41, 0
2, 127552, Note_on_c, 1, 48, 83
2, 127680, Note_on_c, 1, 48, 0
2, 127680, Note_on_c, 1, 53, 83
2, 127744, Note_on_c, 1, 53, 0
2, 127744, Note_on_c, 1, 48, 83
2, 127808, Note_on_c, 0, 64, 0
2, 127808, Note_on_c, 0, 60, 0
2, 127808, Note_on_c, 0, 57, 0
2, 127808, Note_on_c, 0, 65, 83
2, 127936, Note_on_c, 0, 65, 0
2, 127936, Note_on_c, 0, 65, 83
2, 127936, Note_on_c, 0, 70, 83
2, 127936, Note_on_c, 0, 74, 83
2, 127936, Note_on_c, 0, 77, 83
2, 128000, Note_on_c, 1, 48, 0
2, 128000, Control_c, 0, 64, 0
2, 128000, Control_c, 0, 64, 127
2, 128000, Control_c, 1, 64, 0
2, 128000, Control_c, 1, 64, 127
2, 128000, Note_on_c, 1, 34, 83
2, 128064, Note_on_c, 0, 77, 0
2, 128064, Note_on_c, 0, 74, 0
2, 128064, Note_on_c, 0, 70, 0
2, 128064, Note_on_c, 0, 65, 0
2, 128064, Note_on_c, 0, 65, 108
2, 128064, Note_on_c, 0, 70, 108
2, 128064, Note_on_c, 0, 74, 108
2, 128064, Note_on_c, 0, 77, 108
2, 128192, Note_on_c, 1, 34, 0
2, 128192, Note_on_c, 1, 46, 83
2, 128256, Note_on_c, 0, 77, 0
2, 128256, Note_on_c, 0, 74, 0
2, 128256, Note_on_c, 0, 70, 0
2, 128256, Note_on_c, 0, 65, 0
2, 128256, Note_on_c, 0, 65, 83
2, 128256, Note_on_c, 0, 70, 83
2, 128256, Note_on_c, 0, 74, 83
2, 128256, Note_on_c, 0, 77, 83
2, 128320, Note_on_c, 1, 46, 0
2, 128320, Note_on_c, 1, 46, 83
2, 128384, Note_on_c, 0, 77, 0
2, 128384, Note_on_c, 0, 74, 0
2, 128384, Note_on_c, 0, 70, 0
2, 128384, Note_on_c, 0, 65, 0
2, 128384, Note_on_c, 0, 65, 83
2, 128384, Note_on_c, 0, 70, 83
2, 128384, Note_on_c, 0, 74, 83
2, 128384, Note_on_c, 0, 77, 83
2, 128448, Note_on_c, 1, 46, 0
2, 128448, Note_on_c, 1, 48, 83
2, 128512, Note_on_c, 1, 48, 0
2, 128512, Note_on_c, 0, 77, 0
2, 128512, Note_on_c, 0, 74, 0
2, 128512, Note_on_c, 0, 70, 0
2, 128512, Note_on_c, 0, 65, 0
2, 128512, Control_c, 0, 64, 0
2, 128512, Control_c, 0, 64, 127
2, 128512, Control_c, 1, 64, 0
2, 128512, Control_c, 1, 64, 127
2, 128512, Note_on_c, 1, 36, 83
2, 128555, Note_on_c, 0, 72, 83
2, 128576, Note_on_c, 0, 72, 0
2, 128576, Note_on_c, 0, 65, 83
2, 128576, Note_on_c, 0, 74, 83
2, 128640, Note_on_c, 1, 36, 0
2, 128640, Note_on_c, 1, 43, 83
2, 128704, Note_on_c, 0, 74, 0
2, 128704, Note_on_c, 0, 65, 0
2, 128704, Note_on_c, 0, 65, 108
2, 128704, Note_on_c, 0, 70, 108
2, 128704, Note_on_c, 0, 77, 108
2, 128768, Note_on_c, 1, 43, 0
2, 128768, Note_on_c, 1, 48, 83
2, 128832, Note_on_c, 0, 77, 0
2, 128832, Note_on_c, 0, 70, 0
2, 128832, Note_on_c, 0, 65, 0
2, 128832, Note_on_c, 0, 65, 83
2, 128960, Note_on_c, 1, 48, 0
2, 128960, Note_on_c, 1, 53, 83
2, 129024, Note_on_c, 1, 53, 0
2, 129024, Note_on_c, 0, 65, 0
2, 129024, Control_c, 0, 64, 0
2, 129024, Control_c, 0, 64, 127
2, 129024, Control_c, 1, 64, 0
2, 129024, Control_c, 1, 64, 127
2, 129024, Note_on_c, 1, 41, 83
2, 129088, Note_on_c, 0, 57, 83
2, 129152, Note_on_c, 1, 41, 0
2, 129152, Note_on_c, 1, 48, 83
2, 129216, Note_on_c, 0, 57, 0
2, 129216, Note_on_c, 0, 60, 100
2, 129280, Note_on_c, 1, 48, 0
2, 129280, Note_on_c, 1, 53, 83
2, 129344, Note_on_c, 0, 60, 0
2, 129344, Note_on_c, 0, 64, 100
2, 129408, Note_on_c, 0, 64, 0
2, 129408, Note_on_c, 0, 60, 83
2, 129472, Note_on_c, 1, 53, 0
2, 129472, Note_on_c, 1, 48, 83
2, 129536, Note_on_c, 0, 60, 0
2, 129536, Note_on_c, 0, 64, 100
2, 129600, Note_on_c, 1, 48, 0
2, 129600, Note_on_c, 1, 53, 83
2, 129728, Note_on_c, 1, 53, 0
2, 129728, Note_on_c, 1, 48, 83
2, 129792, Note_on_c, 0, 64, 0
2, 129792, Note_on_c, 0, 60, 100
2, 129856, Note_on_c, 1, 48, 0
2, 129856, Note_on_c, 1, 53, 83
2, 129920, Note_on_c, 0, 60, 0
2, 129920, Note_on_c, 0, 64, 83
2, 129984, Note_on_c, 1, 53, 0
2, 129984, Note_on_c, 1, 58, 83
2, 130048, Note_on_c, 1, 58, 0
2, 130048, Note_on_c, 0, 64, 0
2, 130048, Control_c, 0, 64, 0
2, 130048, Control_c, 0, 64, 127
2, 130048, Control_c, 1, 64, 0
2, 130048, Control_c, 1, 64, 127
2, 130048, Note_on_c, 1, 46, 83
2, 130112, Note_on_c, 0, 65, 83
2, 130176, Note_on_c, 1, 46, 0
2, 130176, Note_on_c, 1, 53, 83
2, 130240, Note_on_c, 0, 65, 0
2, 130240, Note_on_c, 0, 70, 100
2, 130304, Note_on_c, 1, 53, 0
2, 130304, Note_on_c, 1, 58, 83
2, 130368, Note_on_c, 0, 70, 0
2, 130368, Note_on_c, 0, 72, 100
2, 130432, Note_on_c, 0, 72, 0
2, 130432, Note_on_c, 0, 65, 83
2, 130496, Note_on_c, 1, 58, 0
2, 130496, Note_on_c, 1, 60, 83
2, 130560, Note_on_c, 1, 60, 0
2, 130560, Note_on_c, 0, 65, 0
2, 130560, Control_c, 0, 64, 0
2, 130560, Control_c, 0, 64, 127
2, 130560, Note_on_c, 0, 74, 100
2, 130560, Control_c, 1, 64, 0
2, 130560, Control_c, 1, 64, 127
2, 130560, Note_on_c, 1, 48, 83
2, 130624, Note_on_c, 1, 48, 0
2, 130624, Note_on_c, 1, 55, 83
2, 130688, Note_on_c, 0, 74, 0
2, 130688, Note_on_c, 0, 62, 83
2, 130752, Note_on_c, 1, 55, 0
2, 130752, Note_on_c, 1, 55, 83
2, 130816, Note_on_c, 0, 62, 0
2, 130816, Note_on_c, 0, 65, 100
2, 130880, Note_on_c, 1, 55, 0
2, 130880, Note_on_c, 1, 55, 83
2, 130944, Note_on_c, 0, 65, 0
2, 130944, Note_on_c, 0, 62, 83
2, 131008, Note_on_c, 1, 55, 0
2, 131008, Note_on_c, 1, 46, 83
2, 131072, Note_on_c, 1, 46, 0
2, 131072, Note_on_c, 0, 62, 0
2, 131072, Control_c, 0, 64, 0
2, 131072, Control_c, 0, 64, 127
2, 131072, Control_c, 1, 64, 0
2, 131072, Control_c, 1, 64, 127
2, 131072, Note_on_c, 1, 34, 83
2, 131136, Note_on_c, 0, 46, 83
2, 131200, Note_on_c, 1, 34, 0
2, 131200, Note_on_c, 1, 46, 83
2, 131264, Note_on_c, 0, 46, 0
2, 131264, Note_on_c, 0, 50, 100
2, 131328, Note_on_c, 1, 46, 0
2, 131328, Note_on_c, 1, 46, 83
2, 131392, Note_on_c, 0, 50, 0
2, 131392, Note_on_c, 0, 57, 100
2, 131456, Note_on_c, 0, 57, 0
2, 131456, Note_on_c, 0, 53, 83
2, 131520, Note_on_c, 1, 46, 0
2, 131520, Note_on_c, 1, 46, 83
2, 131584, Note_on_c, 0, 53, 0
2, 131584, Note_on_c, 0, 57, 100
2, 131648, Note_on_c, 1, 46, 0
2, 131648, Note_on_c, 1, 46, 83
2, 131712, Note_on_c, 0, 57, 0
2, 131712, Note_on_c, 0, 53, 83
2, 131776, Note_on_c, 1, 46, 0
2, 131776, Note_on_c, 1, 46, 83
2, 131840, Note_on_c, 0, 53, 0
2, 131840, Note_on_c, 0, 57, 100
2, 131904, Note_on_c, 1, 46, 0
2, 131904, Note_on_c, 1, 46, 83
2, 131968, Note_on_c, 0, 57, 0
2, 131968, Note_on_c, 0, 53, 83
2, 132032, Note_on_c, 1, 46, 0
2, 132032, Note_on_c, 1, 51, 83
2, 132096, Note_on_c, 1, 51, 0
2, 132096, Note_on_c, 0, 53, 0
2, 132096, Control_c, 0, 64, 0
2, 132096, Control_c, 0, 64, 127
2, 132096, Control_c, 1, 64, 0
2, 132096, Control_c, 1, 64, 127
2, 132096, Note_on_c, 1, 39, 83
2, 132160, Note_on_c, 0, 55, 83
2, 132224, Note_on_c, 0, 55, 0
2, 132224, Note_on_c, 0, 58, 83
2, 132288, Note_on_c, 0, 58, 0
2, 132288, Note_on_c, 0, 63, 83
2, 132352, Note_on_c, 1, 39, 0
2, 132352, Note_on_c, 0, 63, 0
2, 132352, Note_on_c, 0, 67, 83
2, 132352, Note_on_c, 1, 51, 83
2, 132416, Note_on_c, 0, 67, 0
2, 132416, Note_on_c, 0, 70, 83
2, 132480, Note_on_c, 0, 70, 0
2, 132480, Note_on_c, 0, 75, 83
2, 132544, Note_on_c, 1, 51, 0
2, 132544, Note_on_c, 0, 75, 0
2, 132544, Note_on_c, 0, 79, 83
2, 132544, Note_on_c, 1, 53, 83
2, 132608, Note_on_c, 1, 53, 0
2, 132608, Note_on_c, 0, 79, 0
2, 132608, Control_c, 0, 64, 0
2, 132608, Control_c, 0, 64, 127
2, 132608, Note_on_c, 0, 75, 83
2, 132608, Note_on_c, 0, 79, 83
2, 132608, Control_c, 1, 64, 0
2, 132608, Control_c, 1, 64, 127
2, 132608, Note_on_c, 1, 41, 83
2, 132704, Note_on_c, 0, 79, 0
2, 132704, Note_on_c, 0, 75, 0
2, 132704, Note_on_c, 0, 74, 83
2, 132704, Note_on_c, 0, 77, 83
2, 132800, Note_on_c, 0, 77, 0
2, 132800, Note_on_c, 0, 74, 0
2, 132800, Note_on_c, 0, 72, 83
2, 132864, Note_on_c, 1, 41, 0
2, 132864, Note_on_c, 1, 53, 83
2, 132928, Note_on_c, 0, 72, 0
2, 132928, Note_on_c, 0, 70, 83
2, 132928, Note_on_c, 0, 74, 83
2, 132928, Note_on_c, 0, 77, 83
2, 133056, Note_on_c, 1, 53, 0
2, 133056, Note_on_c, 0, 77, 0
2, 133056, Note_on_c, 0, 74, 0
2, 133056, Note_on_c, 0, 70, 0
2, 133056, Note_on_c, 0, 70, 83
2, 133056, Note_on_c, 0, 74, 83
2, 133056, Note_on_c, 0, 77, 83
2, 133056, Note_on_c, 1, 58, 83
2, 133120, Note_on_c, 1, 58, 0
2, 133120, Control_c, 0, 64, 0
2, 133120, Control_c, 0, 64, 127
2, 133120, Control_c, 1, 64, 0
2, 133120, Control_c, 1, 64, 127
2, 133120, Note_on_c, 1, 46, 83
2, 133184, Note_on_c, 0, 77, 0
2, 133184, Note_on_c, 0, 74, 0
2, 133184, Note_on_c, 0, 70, 0
2, 133184, Note_on_c, 0, 65, 83
2, 133248, Note_on_c, 1, 46, 0
2, 133248, Note_on_c, 1, 53, 83
2, 133312, Note_on_c, 1, 53, 0
2, 133312, Note_on_c, 1, 58, 83
2, 133376, Note_on_c, 1, 58, 0
2, 133376, Note_on_c, 1, 53, 83
2, 133440, Note_on_c, 0, 65, 0
2, 133440, Note_on_c, 0, 62, 100
2, 133504, Note_on_c, 1, 53, 0
2, 133504, Note_on_c, 1, 58, 83
2, 133568, Note_on_c, 1, 58, 0
2, 133568, Note_on_c, 1, 53, 83
2, 133632, Note_on_c, 0, 62, 0
2, 133632, Note_on_c, 0, 69, 100
2, 133696, Note_on_c, 1, 53, 0
2, 133696, Note_on_c, 1, 58, 83
2, 133824, Note_on_c, 1, 58, 0
2, 133824, Note_on_c, 1, 58, 83
2, 133888, Note_on_c, 0, 69, 0
2, 133888, Note_on_c, 0, 65, 83
2, 133952, Note_on_c, 1, 58, 0
2, 133952, Note_on_c, 1, 53, 83
2, 134016, Note_on_c, 0, 65, 0
2, 134016, Note_on_c, 0, 65, 83
2, 134080, Note_on_c, 1, 53, 0
2, 134080, Note_on_c, 1, 51, 83
2, 134144, Note_on_c, 1, 51, 0
2, 134144, Note_on_c, 0, 65, 0
2, 134144, Control_c, 0, 64, 0
2, 134144, Control_c, 0, 64, 127
2, 134144, Control_c, 1, 64, 0
2, 134144, Control_c, 1, 64, 127
2, 134144, Note_on_c, 1, 39, 83
2, 134208, Note_on_c, 1, 39, 0
2, 134208, Note_on_c, 1, 46, 83
2, 134336, Note_on_c, 0, 87, 100
2, 134400, Note_on_c, 1, 46, 0
2, 134400, Note_on_c, 1, 51, 83
2, 134464, Note_on_c, 0, 87, 0
2, 134464, Note_on_c, 0, 86, 83
2, 134528, Note_on_c, 0, 86, 0
2, 134528, Note_on_c, 0, 82, 83
2, 134592, Note_on_c, 1, 51, 0
2, 134592, Note_on_c, 0, 82, 0
2, 134592, Note_on_c, 0, 77, 83
2, 134592, Note_on_c, 1, 53, 83
2, 134656, Note_on_c, 1, 53, 0
2, 134656, Note_on_c, 0, 77, 0
2, 134656, Control_c, 0, 64, 0
2, 134656, Control_c, 0, 64, 127
2, 134656, Note_on_c, 0, 75, 83
2, 134656, Control_c, 1, 64, 0
2, 134656, Control_c, 1, 64, 127
2, 134656, Note_on_c, 1, 41, 83
2, 134720, Note_on_c, 0, 75, 0
2, 134720, Note_on_c, 0, 74, 83
2, 134784, Note_on_c, 0, 74, 0
2, 134784, Note_on_c, 0, 75, 83
2, 134848, Note_on_c, 1, 41, 0
2, 134848, Note_on_c, 1, 48, 83
2, 134912, Note_on_c, 0, 75, 0
2, 134912, Note_on_c, 0, 77, 100
2, 134976, Note_on_c, 1, 48, 0
2, 134976, Note_on_c, 1, 53, 83
2, 134999, Note_on_c, 0, 77, 0
2, 134999, Note_on_c, 0, 72, 83
2, 135022, Note_on_c, 0, 72, 0
2, 135022, Note_on_c, 0, 73, 83
2, 135040, Note_on_c, 0, 73, 0
2, 135040, Note_on_c, 0, 74, 83
2, 135104, Note_on_c, 1, 53, 0
2, 135104, Note_on_c, 0, 74, 0
2, 135104, Note_on_c, 0, 77, 83
2, 135104, Note_on_c, 1, 58, 83
2, 135168, Note_on_c, 1, 58, 0
2, 135168, Note_on_c, 0, 77, 0
2, 135168, Control_c, 0, 64, 0
2, 135168, Control_c, 0, 64, 127
2, 135168, Note_on_c, 0, 72, 83
2, 135168, Control_c, 1, 64, 0
2, 135168, Control_c, 1, 64, 127
2, 135168, Note_on_c, 1, 46, 83
2, 135232, Note_on_c, 1, 46, 0
2, 135232, Note_on_c, 1, 53, 83
2, 135296, Note_on_c, 0, 72, 0
2, 135296, Note_on_c, 0, 70, 83
2, 135360, Note_on_c, 0, 70, 0
2, 135360, Note_on_c, 0, 65, 83
2, 135424, Note_on_c, 1, 53, 0
2, 135424, Note_on_c, 1, 58, 83
2, 135488, Note_on_c, 0, 65, 0
2, 135488, Note_on_c, 0, 63, 83
2, 135552, Note_on_c, 0, 63, 0
2, 135552, Note_on_c, 0, 62, 83
2, 135616, Note_on_c, 1, 58, 0
2, 135616, Note_on_c, 1, 58, 83
2, 135680, Note_on_c, 0, 62, 0
2, 135680, Note_on_c, 0, 69, 100
2, 135744, Note_on_c, 1, 58, 0
2, 135744, Note_on_c, 1, 53, 83
2, 135872, Note_on_c, 1, 53, 0
2, 135872, Note_on_c, 1, 58, 83
2, 135936, Note_on_c, 0, 69, 0
2, 135936, Note_on_c, 0, 65, 100
2, 136000, Note_on_c, 1, 58, 0
2, 136000, Note_on_c, 1, 53, 83
2, 136064, Note_on_c, 1, 53, 0
2, 136064, Note_on_c, 1, 55, 83
2, 136128, Note_on_c, 1, 55, 0
2, 136128, Note_on_c, 0, 65, 0
2, 136128, Note_on_c, 0, 67, 100
2, 136128, Note_on_c, 1, 51, 83
2, 136192, Note_on_c, 1, 51, 0
2, 136192, Control_c, 0, 64, 0
2, 136192, Control_c, 0, 64, 127
2, 136192, Control_c, 1, 64, 0
2, 136192, Control_c, 1, 64, 127
2, 136192, Note_on_c, 1, 39, 83
2, 136256, Note_on_c, 0, 67, 0
2, 136256, Note_on_c, 0, 58, 83
2, 136256, Note_on_c, 0, 63, 83
2, 136320, Note_on_c, 1, 39, 0
2, 136320, Note_on_c, 1, 46, 83
2, 136384, Note_on_c, 0, 63, 0
2, 136384, Note_on_c, 0, 58, 0
2, 136384, Note_on_c, 0, 55, 83
2, 136448, Note_on_c, 1, 46, 0
2, 136448, Note_on_c, 1, 51, 83
2, 136512, Note_on_c, 0, 55, 0
2, 136512, Note_on_c, 0, 58, 83
2, 136576, Note_on_c, 0, 58, 0
2, 136576, Note_on_c, 0, 55, 83
2, 136640, Note_on_c, 1, 51, 0
2, 136640, Note_on_c, 1, 53, 83
2, 136704, Note_on_c, 1, 53, 0
2, 136704, Note_on_c, 0, 55, 0
2, 136704, Control_c, 0, 64, 0
2, 136704, Control_c, 0, 64, 127
2, 136704, Note_on_c, 0, 58, 83
2, 136704, Note_on_c, 0, 60, 83
2, 136704, Note_on_c, 0, 65, 83
2, 136704, Control_c, 1, 64, 0
2, 136704, Control_c, 1, 64, 127
2, 136704, Note_on_c, 1, 41, 83
2, 136768, Note_on_c, 1, 41, 0
2, 136768, Note_on_c, 1, 48, 83
2, 136832, Note_on_c, 0, 65, 0
2, 136832, Note_on_c, 0, 60, 0
2, 136832, Note_on_c, 0, 58, 0
2, 136832, Note_on_c, 0, 58, 108
2, 136832, Note_on_c, 0, 65, 108
2, 136896, Note_on_c, 0, 65, 0
2, 136896, Note_on_c, 0, 58, 0
2, 136896, Note_on_c, 0, 57, 83
2, 136960, Note_on_c, 1, 48, 0
2, 136960, Note_on_c, 1, 53, 83
2, 137024, Note_on_c, 0, 57, 0
2, 137024, Note_on_c, 0, 58, 108
2, 137024, Note_on_c, 0, 60, 108
2, 137024, Note_on_c, 0, 65, 108
2, 137152, Note_on_c, 1, 53, 0
2, 137152, Note_on_c, 0, 65, 0
2, 137152, Note_on_c, 0, 60, 0
2, 137152, Note_on_c, 0, 58, 0
2, 137152, Note_on_c, 0, 60, 83
2, 137152, Note_on_c, 1, 46, 83
2, 137216, Note_on_c, 1, 46, 0
2, 137216, Note_on_c, 0, 60, 0
2, 137216, Control_c, 0, 64, 0
2, 137216, Control_c, 0, 64, 127
2, 137216, Control_c, 1, 64, 0
2, 137216, Control_c, 1, 64, 127
2, 137216, Note_on_c, 1, 34, 83
2, 137280, Note_on_c, 0, 58, 83
2, 137344, Note_on_c, 1, 34, 0
2, 137344, Note_on_c, 1, 46, 83
2, 137408, Note_on_c, 0, 58, 0
2, 137408, Note_on_c, 0, 62, 100
2, 137472, Note_on_c, 1, 46, 0
2, 137472, Note_on_c, 1, 46, 83
2, 137536, Note_on_c, 0, 62, 0
2, 137536, Note_on_c, 0, 65, 100
2, 137600, Note_on_c, 0, 65, 0
2, 137600, Note_on_c, 0, 62, 83
2, 137664, Note_on_c, 1, 46, 0
2, 137664, Note_on_c, 1, 46, 83
2, 137728, Note_on_c, 1, 46, 0
2, 137728, Note_on_c, 0, 62, 0
2, 137728, Note_on_c, 0, 69, 100
2, 137728, Note_on_c, 1, 34, 83
2, 137792, Note_on_c, 1, 34, 0
2, 137792, Note_on_c, 1, 46, 83
2, 137920, Note_on_c, 1, 46, 0
2, 137920, Note_on_c, 1, 46, 83
2, 137984, Note_on_c, 0, 69, 0
2, 137984, Note_on_c, 0, 62, 100
2, 137984, Note_on_c, 0, 65, 100
2, 138048, Note_on_c, 1, 46, 0
2, 138048, Note_on_c, 1, 46, 83
2, 138112, Note_on_c, 0, 65, 0
2, 138112, Note_on_c, 0, 62, 0
2, 138112, Note_on_c, 0, 67, 83
2, 138176, Note_on_c, 1, 46, 0
2, 138176, Note_on_c, 0, 67, 0
2, 138176, Note_on_c, 0, 65, 83
2, 138176, Note_on_c, 0, 70, 83
2, 138176, Note_on_c, 1, 51, 83
2, 138240, Note_on_c, 1, 51, 0
2, 138240, Control_c, 0, 64, 0
2, 138240, Control_c, 0, 64, 127
2, 138240, Control_c, 1, 64, 0
2, 138240, Control_c, 1, 64, 127
2, 138240, Note_on_c, 1, 39, 83
2, 138304, Note_on_c, 0, 70, 0
2, 138304, Note_on_c, 0, 65, 0
2, 138304, Note_on_c, 0, 65, 83
2, 138304, Note_on_c, 0, 67, 83
2, 138304, Note_on_c, 0, 70, 83
2, 138368, Note_on_c, 1, 39, 0
2, 138368, Note_on_c, 1, 46, 83
2, 138432, Note_on_c, 0, 70, 0
2, 138432, Note_on_c, 0, 67, 0
2, 138432, Note_on_c, 0, 65, 0
2, 138432, Note_on_c, 0, 63, 83
2, 138432, Note_on_c, 0, 70, 83
2, 138496, Note_on_c, 1, 46, 0
2, 138496, Note_on_c, 1, 51, 83
2, 138560, Note_on_c, 0, 70, 0
2, 138560, Note_on_c, 0, 63, 0
2, 138560, Note_on_c, 0, 62, 83
2, 138560, Note_on_c, 0, 70, 83
2, 138688, Note_on_c, 1, 51, 0
2, 138688, Note_on_c, 1, 53, 83
2, 138752, Note_on_c, 1, 53, 0
2, 138752, Note_on_c, 0, 70, 0
2, 138752, Note_on_c, 0, 62, 0
2, 138752, Control_c, 0, 64, 0
2, 138752, Control_c, 0, 64, 127
2, 138752, Note_on_c, 0, 60, 83
2, 138752, Note_on_c, 0, 65, 83
2, 138752, Control_c, 1, 64, 0
2, 138752, Control_c, 1, 64, 127
2, 138752, Note_on_c, 1, 41, 83
2, 138816, Note_on_c, 1, 41, 0
2, 138816, Note_on_c, 1, 53, 83
2, 138880, Note_on_c, 1, 53, 0
2, 138880, Note_on_c, 1, 57, 83
2, 139008, Note_on_c, 1, 57, 0
2, 139008, Note_on_c, 0, 65, 0
2, 139008, Note_on_c, 0, 60, 0
2, 139008, Note_on_c, 0, 60, 83
2, 139008, Note_on_c, 0, 65, 83
2, 139008, Note_on_c, 1, 57, 83
2, 139072, Note_on_c, 1, 57, 0
2, 139072, Note_on_c, 1, 53, 83
2, 139200, Note_on_c, 1, 53, 0
2, 139200, Note_on_c, 1, 50, 83
2, 139264, Note_on_c, 1, 50, 0
2, 139264, Note_on_c, 0, 65, 0
2, 139264, Note_on_c, 0, 60, 0
2, 139264, Control_c, 0, 64, 0
2, 139264, Control_c, 0, 64, 127
2, 139264, Control_c, 1, 64, 0
2, 139264, Control_c, 1, 64, 127
2, 139264, Note_on_c, 1, 43, 83
2, 139328, Note_on_c, 0, 55, 83
2, 139392, Note_on_c, 1, 43, 0
2, 139392, Note_on_c, 1, 50, 83
2, 139456, Note_on_c, 0, 55, 0
2, 139456, Note_on_c, 0, 59, 100
2, 139520, Note_on_c, 1, 50, 0
2, 139520, Note_on_c, 1, 50, 83
2, 139584, Note_on_c, 0, 59, 0
2, 139584, Note_on_c, 0, 62, 100
2, 139648, Note_on_c, 0, 62, 0
2, 139648, Note_on_c, 0, 59, 83
2, 139712, Note_on_c, 1, 50, 0
2, 139712, Note_on_c, 1, 50, 83
2, 139776, Note_on_c, 0, 59, 0
2, 139776, Note_on_c, 0, 66, 100
2, 139840, Note_on_c, 1, 50, 0
2, 139840, Note_on_c, 1, 59, 83
2, 139968, Note_on_c, 1, 59, 0
2, 139968, Note_on_c, 1, 50, 83
2, 140032, Note_on_c, 0, 66, 0
2, 140032, Note_on_c, 0, 62, 100
2, 140096, Note_on_c, 1, 50, 0
2, 140096, Note_on_c, 1, 50, 83
2, 140160, Note_on_c, 0, 62, 0
2, 140160, Note_on_c, 0, 55, 83
2, 140224, Note_on_c, 1, 50, 0
2, 140224, Note_on_c, 1, 52, 83
2, 140288, Note_on_c, 1, 52, 0
2, 140288, Note_on_c, 0, 55, 0
2, 140288, Control_c, 0, 64, 0
2, 140288, Control_c, 0, 64, 127
2, 140288, Control_c, 1, 64, 0
2, 140288, Control_c, 1, 64, 127
2, 140288, Note_on_c, 1, 36, 83
2, 140352, Note_on_c, 0, 55, 83
2, 140416, Note_on_c, 1, 36, 0
2, 140416, Note_on_c, 1, 43, 83
2, 140480, Note_on_c, 0, 55, 0
2, 140480, Note_on_c, 0, 62, 100
2, 140544, Note_on_c, 1, 43, 0
2, 140544, Note_on_c, 1, 52, 83
2, 140608, Note_on_c, 0, 62, 0
2, 140608, Note_on_c, 0, 67, 100
2, 140672, Note_on_c, 0, 67, 0
2, 140672, Note_on_c, 0, 55, 83
2, 140736, Note_on_c, 1, 52, 0
2, 140736, Note_on_c, 1, 50, 83
2, 140800, Note_on_c, 1, 50, 0
2, 140800, Note_on_c, 0, 55, 0
2, 140800, Control_c, 0, 64, 0
2, 140800, Control_c, 0, 64, 127
2, 140800, Control_c, 1, 64, 0
2, 140800, Control_c, 1, 64, 127
2, 140800, Note_on_c, 1, 38, 83
2, 140864, Note_on_c, 0, 55, 83
2, 140928, Note_on_c, 1, 38, 0
2, 140928, Note_on_c, 1, 45, 83
2, 140992, Note_on_c, 0, 55, 0
2, 140992, Note_on_c, 0, 67, 100
2, 141056, Note_on_c, 1, 45, 0
2, 141056, Note_on_c, 0, 67, 0
2, 141056, Note_on_c, 0, 62, 83
2, 141056, Note_on_c, 1, 55, 83
2, 141120, Note_on_c, 0, 62, 0
2, 141120, Note_on_c, 0, 64, 83
2, 141184, Note_on_c, 1, 55, 0
2, 141184, Note_on_c, 0, 64, 0
2, 141184, Note_on_c, 0, 67, 100
2, 141184, Note_on_c, 1, 55, 83
2, 141248, Note_on_c, 1, 55, 0
2, 141248, Note_on_c, 1, 50, 83
2, 141312, Note_on_c, 1, 50, 0
2, 141312, Note_on_c, 0, 67, 0
2, 141312, Control_c, 0, 64, 0
2, 141312, Control_c, 0, 64, 127
2, 141312, Control_c, 1, 64, 0
2, 141312, Control_c, 1, 64, 127
2, 141312, Note_on_c, 1, 43, 83
2, 141376, Note_on_c, 0, 55, 83
2, 141440, Note_on_c, 1, 43, 0
2, 141440, Note_on_c, 1, 50, 83
2, 141504, Note_on_c, 0, 55, 0
2, 141504, Note_on_c, 0, 55, 100
2, 141504, Note_on_c, 0, 62, 100
2, 141568, Note_on_c, 1, 50, 0
2, 141568, Note_on_c, 1, 50, 83
2, 141632, Note_on_c, 0, 62, 0
2, 141632, Note_on_c, 0, 55, 0
2, 141632, Note_on_c, 0, 55, 100
2, 141632, Note_on_c, 0, 62, 100
2, 141696, Note_on_c, 1, 50, 0
2, 141696, Note_on_c, 1, 55, 83
2, 141760, Note_on_c, 1, 55, 0
2, 141760, Note_on_c, 1, 50, 83
2, 141824, Note_on_c, 1, 50, 0
2, 141824, Note_on_c, 0, 62, 0
2, 141824, Note_on_c, 0, 55, 0
2, 141824, Note_on_c, 0, 62, 100
2, 141824, Note_on_c, 0, 66, 100
2, 141824, Note_on_c, 1, 55, 83
2, 141888, Note_on_c, 1, 55, 0
2, 141888, Note_on_c, 1, 50, 83
2, 142016, Note_on_c, 1, 50, 0
2, 142016, Note_on_c, 1, 50, 83
2, 142080, Note_on_c, 1, 50, 0
2, 142080, Note_on_c, 0, 66, 0
2, 142080, Note_on_c, 0, 62, 0
2, 142080, Note_on_c, 0, 62, 100
2, 142080, Note_on_c, 1, 55, 83
2, 142144, Note_on_c, 1, 55, 0
2, 142144, Note_on_c, 1, 50, 83
2, 142208, Note_on_c, 1, 50, 0
2, 142208, Note_on_c, 1, 55, 83
2, 142272, Note_on_c, 1, 55, 0
2, 142272, Note_on_c, 1, 52, 83
2, 142336, Note_on_c, 1, 52, 0
2, 142336, Note_on_c, 0, 62, 0
2, 142336, Control_c, 0, 64, 0
2, 142336, Control_c, 0, 64, 127
2, 142336, Control_c, 1, 64, 0
2, 142336, Control_c, 1, 64, 127
2, 142336, Note_on_c, 1, 36, 83
2, 142382, Note_on_c, 0, 62, 83
2, 142400, Note_on_c, 0, 62, 0
2, 142400, Note_on_c, 0, 64, 83
2, 142464, Note_on_c, 1, 36, 0
2, 142464, Note_on_c, 1, 43, 83
2, 142528, Note_on_c, 0, 64, 0
2, 142528, Note_on_c, 0, 55, 108
2, 142528, Note_on_c, 0, 62, 108
2, 142528, Note_on_c, 0, 67, 108
2, 142592, Note_on_c, 1, 43, 0
2, 142592, Note_on_c, 1, 52, 83
2, 142656, Note_on_c, 0, 67, 0
2, 142656, Note_on_c, 0, 62, 0
2, 142656, Note_on_c, 0, 55, 0
2, 142656, Note_on_c, 0, 55, 83
2, 142656, Note_on_c, 0, 62, 83
2, 142656, Note_on_c, 0, 67, 83
2, 142784, Note_on_c, 1, 52, 0
2, 142784, Note_on_c, 0, 67, 0
2, 142784, Note_on_c, 0, 62, 0
2, 142784, Note_on_c, 0, 55, 0
2, 142784, Note_on_c, 0, 55, 83
2, 142784, Note_on_c, 0, 62, 83
2, 142784, Note_on_c, 0, 67, 83
2, 142784, Note_on_c, 1, 50, 83
2, 142848, Note_on_c, 1, 50, 0
2, 142848, Control_c, 0, 64, 0
2, 142848, Control_c, 0, 64, 127
2, 142848, Control_c, 1, 64, 0
2, 142848, Control_c, 1, 64, 127
2, 142848, Note_on_c, 1, 38, 83
2, 142912, Note_on_c, 1, 38, 0
2, 142912, Note_on_c, 0, 67, 0
2, 142912, Note_on_c, 0, 62, 0
2, 142912, Note_on_c, 0, 55, 0
2, 142912, Note_on_c, 0, 55, 83
2, 142912, Note_on_c, 0, 62, 83
2, 142912, Note_on_c, 1, 43, 83
2, 143040, Note_on_c, 1, 43, 0
2, 143040, Note_on_c, 1, 45, 83
2, 143104, Note_on_c, 0, 62, 0
2, 143104, Note_on_c, 0, 55, 0
2, 143104, Note_on_c, 0, 55, 83
2, 143104, Note_on_c, 0, 62, 83
2, 143168, Note_on_c, 1, 45, 0
2, 143168, Note_on_c, 1, 50, 83
2, 143232, Note_on_c, 0, 62, 0
2, 143232, Note_on_c, 0, 55, 0
2, 143232, Note_on_c, 0, 55, 83
2, 143232, Note_on_c, 0, 62, 83
2, 143296, Note_on_c, 1, 50, 0
2, 143296, Note_on_c, 1, 50, 83
2, 143360, Note_on_c, 1, 50, 0
2, 143360, Note_on_c, 0, 62, 0
2, 143360, Note_on_c, 0, 55, 0
2, 143360, Control_c, 0, 64, 0
2, 143360, Control_c, 0, 64, 127
2, 143360, Control_c, 1, 64, 0
2, 143360, Control_c, 1, 64, 127
2, 143360, Note_on_c, 1, 43, 83
2, 143424, Note_on_c, 0, 67, 83
2, 143488, Note_on_c, 1, 43, 0
2, 143488, Note_on_c, 1, 50, 83
2, 143552, Note_on_c, 0, 67, 0
2, 143552, Note_on_c, 0, 67, 100
2, 143552, Note_on_c, 0, 74, 100
2, 143616, Note_on_c, 1, 50, 0
2, 143616, Note_on_c, 1, 59, 83
2, 143680, Note_on_c, 0, 74, 0
2, 143680, Note_on_c, 0, 67, 0
2, 143680, Note_on_c, 0, 67, 100
2, 143680, Note_on_c, 0, 76, 100
2, 143744, Note_on_c, 0, 76, 0
2, 143744, Note_on_c, 0, 67, 0
2, 143744, Note_on_c, 0, 74, 83
2, 143808, Note_on_c, 1, 59, 0
2, 143808, Note_on_c, 1, 59, 83
2, 143872, Note_on_c, 1, 59, 0
2, 143872, Note_on_c, 0, 74, 0
2, 143872, Note_on_c, 0, 67, 100
2, 143872, Note_on_c, 0, 74, 100
2, 143872, Note_on_c, 0, 78, 100
2, 143872, Note_on_c, 1, 43, 83
2, 143936, Note_on_c, 1, 43, 0
2, 143936, Note_on_c, 1, 50, 83
2, 144064, Note_on_c, 1, 50, 0
2, 144064, Note_on_c, 1, 59, 83
2, 144128, Note_on_c, 0, 78, 0
2, 144128, Note_on_c, 0, 74, 0
2, 144128, Note_on_c, 0, 67, 0
2, 144128, Note_on_c, 0, 67, 100
2, 144128, Note_on_c, 0, 74, 100
2, 144192, Note_on_c, 1, 59, 0
2, 144192, Note_on_c, 1, 50, 83
2, 144320, Note_on_c, 1, 50, 0
2, 144320, Note_on_c, 1, 48, 83
2, 144384, Note_on_c, 1, 48, 0
2, 144384, Note_on_c, 0, 74, 0
2, 144384, Note_on_c, 0, 67, 0
2, 144384, Control_c, 0, 64, 0
2, 144384, Control_c, 0, 64, 127
2, 144384, Control_c, 1, 64, 0
2, 144384, Control_c, 1, 64, 127
2, 144384, Note_on_c, 1, 36, 83
2, 144448, Note_on_c, 0, 67, 83
2, 144512, Note_on_c, 1, 36, 0
2, 144512, Note_on_c, 1, 43, 83
2, 144576, Note_on_c, 0, 67, 0
2, 144576, Note_on_c, 0, 67, 108
2, 144576, Note_on_c, 0, 72, 108
2, 144576, Note_on_c, 0, 76, 108
2, 144576, Note_on_c, 0, 79, 108
2, 144640, Note_on_c, 1, 43, 0
2, 144640, Note_on_c, 1, 52, 83
2, 144704, Note_on_c, 0, 79, 0
2, 144704, Note_on_c, 0, 76, 0
2, 144704, Note_on_c, 0, 72, 0
2, 144704, Note_on_c, 0, 67, 0
2, 144704, Note_on_c, 0, 67, 83
2, 144704, Note_on_c, 0, 72, 83
2, 144704, Note_on_c, 0, 76, 83
2, 144704, Note_on_c, 0, 79, 83
2, 144768, Note_on_c, 1, 52, 0
2, 144768, Note_on_c, 1, 52, 83
2, 144832, Note_on_c, 1, 52, 0
2, 144832, Note_on_c, 1, 50, 83
2, 144896, Note_on_c, 1, 50, 0
2, 144896, Note_on_c, 0, 79, 0
2, 144896, Note_on_c, 0, 76, 0
2, 144896, Note_on_c, 0, 72, 0
2, 144896, Note_on_c, 0, 67, 0
2, 144896, Control_c, 0, 64, 0
2, 144896, Control_c, 0, 64, 127
2, 144896, Control_c, 1, 64, 0
2, 144896, Control_c, 1, 64, 127
2, 144896, Control_c, 1, 64, 127
2, 144896, Note_on_c, 1, 38, 83
2, 144960, Note_on_c, 1, 38, 0
2, 144960, Note_on_c, 1, 45, 83
2, 145001, Note_on_c, 0, 74, 83
2, 145024, Note_on_c, 0, 74, 0
2, 145024, Note_on_c, 0, 76, 83
2, 145088, Note_on_c, 0, 76, 0
2, 145088, Note_on_c, 0, 67, 108
2, 145088, Note_on_c, 0, 74, 108
2, 145088, Note_on_c, 0, 79, 108
2, 145152, Note_on_c, 1, 45, 0
2, 145152, Note_on_c, 1, 50, 83
2, 145216, Note_on_c, 0, 79, 0
2, 145216, Note_on_c, 0, 74, 0
2, 145216, Note_on_c, 0, 67, 0
2, 145216, Note_on_c, 0, 67, 83
2, 145216, Note_on_c, 0, 74, 83
2, 145216, Note_on_c, 0, 79, 83
2, 145280, Note_on_c, 1, 50, 0
2, 145280, Note_on_c, 1, 50, 83
2, 145344, Note_on_c, 1, 50, 0
2, 145344, Note_on_c, 1, 55, 83
2, 145408, Note_on_c, 1, 55, 0
2, 145408, Note_on_c, 0, 79, 0
2, 145408, Note_on_c, 0, 74, 0
2, 145408, Note_on_c, 0, 67, 0
2, 145408, Control_c, 0, 64, 0
2, 145408, Control_c, 0, 64, 127
2, 145408, Control_c, 1, 64, 0
2, 145408, Control_c, 1, 64, 0
2, 145408, Control_c, 1, 64, 127
2, 145408, Note_on_c, 1, 43, 83
2, 145472, Note_on_c, 0, 67, 83
2, 145536, Note_on_c, 1, 43, 0
2, 145536, Note_on_c, 1, 50, 83
2, 145600, Note_on_c, 0, 67, 0
2, 145600, Note_on_c, 0, 67, 100
2, 145600, Note_on_c, 0, 74, 100
2, 145664, Note_on_c, 1, 50, 0
2, 145664, Note_on_c, 1, 59, 83
2, 145728, Note_on_c, 0, 74, 0
2, 145728, Note_on_c, 0, 67, 0
2, 145728, Note_on_c, 0, 67, 100
2, 145728, Note_on_c, 0, 78, 100
2, 145792, Note_on_c, 0, 78, 0
2, 145792, Note_on_c, 0, 67, 0
2, 145792, Note_on_c, 0, 74, 83
2, 145856, Note_on_c, 1, 59, 0
2, 145856, Note_on_c, 1, 50, 83
2, 145920, Note_on_c, 0, 74, 0
2, 145920, Note_on_c, 0, 67, 100
2, 145920, Note_on_c, 0, 74, 100
2, 145920, Note_on_c, 0, 79, 100
2, 145984, Note_on_c, 1, 50, 0
2, 145984, Note_on_c, 1, 59, 83
2, 146112, Note_on_c, 1, 59, 0
2, 146112, Note_on_c, 1, 50, 83
2, 146176, Note_on_c, 0, 79, 0
2, 146176, Note_on_c, 0, 74, 0
2, 146176, Note_on_c, 0, 67, 0
2, 146176, Note_on_c, 0, 67, 100
2, 146176, Note_on_c, 0, 74, 100
2, 146176, Note_on_c, 0, 78, 100
2, 146240, Note_on_c, 1, 50, 0
2, 146240, Note_on_c, 1, 59, 83
2, 146304, Note_on_c, 0, 78, 0
2, 146304, Note_on_c, 0, 74, 0
2, 146304, Note_on_c, 0, 67, 0
2, 146304, Note_on_c, 0, 74, 83
2, 146368, Note_on_c, 1, 59, 0
2, 146368, Note_on_c, 1, 55, 83
2, 146432, Note_on_c, 1, 55, 0
2, 146432, Note_on_c, 0, 74, 0
2, 146432, Control_c, 0, 64, 0
2, 146432, Control_c, 0, 64, 127
2, 146432, Control_c, 1, 64, 0
2, 146432, Control_c, 1, 64, 127
2, 146432, Note_on_c, 1, 48, 83
2, 146496, Note_on_c, 0, 72, 83
2, 146560, Note_on_c, 1, 48, 0
2, 146560, Note_on_c, 1, 55, 83
2, 146624, Note_on_c, 0, 72, 0
2, 146624, Note_on_c, 0, 67, 100
2, 146624, Note_on_c, 0, 72, 100
2, 146624, Note_on_c, 0, 79, 100
2, 146688, Note_on_c, 1, 55, 0
2, 146688, Note_on_c, 1, 60, 83
2, 146752, Note_on_c, 0, 79, 0
2, 146752, Note_on_c, 0, 72, 0
2, 146752, Note_on_c, 0, 67, 0
2, 146752, Note_on_c, 0, 67, 83
2, 146752, Note_on_c, 0, 76, 83
2, 146816, Note_on_c, 1, 60, 0
2, 146816, Note_on_c, 1, 60, 83
2, 146880, Note_on_c, 1, 60, 0
2, 146880, Note_on_c, 1, 57, 83
2, 146944, Note_on_c, 1, 57, 0
2, 146944, Note_on_c, 0, 76, 0
2, 146944, Note_on_c, 0, 67, 0
2, 146944, Control_c, 0, 64, 0
2, 146944, Control_c, 0, 64, 127
2, 146944, Control_c, 1, 64, 0
2, 146944, Control_c, 1, 64, 127
2, 146944, Note_on_c, 1, 50, 83
2, 147008, Note_on_c, 0, 74, 83
2, 147072, Note_on_c, 1, 50, 0
2, 147072, Note_on_c, 1, 57, 83
2, 147136, Note_on_c, 0, 74, 0
2, 147136, Note_on_c, 0, 78, 83
2, 147200, Note_on_c, 1, 57, 0
2, 147200, Note_on_c, 0, 78, 0
2, 147200, Note_on_c, 0, 67, 83
2, 147200, Note_on_c, 0, 74, 83
2, 147200, Note_on_c, 0, 79, 83
2, 147200, Note_on_c, 1, 62, 83
2, 147264, Note_on_c, 1, 62, 0
2, 147264, Note_on_c, 1, 57, 83
2, 147328, Note_on_c, 0, 79, 0
2, 147328, Note_on_c, 0, 74, 0
2, 147328, Note_on_c, 0, 67, 0
2, 147328, Note_on_c, 0, 78, 83
2, 147392, Note_on_c, 1, 57, 0
2, 147392, Note_on_c, 0, 78, 0
2, 147392, Note_on_c, 0, 79, 83
2, 147392, Note_on_c, 1, 55, 83
2, 147456, Note_on_c, 1, 55, 0
2, 147456, Control_c, 0, 64, 0
2, 147456, Control_c, 1, 64, 0
2, 147456, Note_on_c, 1, 43, 83
2, 147456, Note_on_c, 1, 50, 83
2, 148416, Tempo, 5000000
2, 148416, Tempo, 5000000
2, 148480, Note_on_c, 1, 50, 0
2, 148480, Note_on_c, 1, 43, 0
2, 148480, Note_on_c, 0, 79, 0
2, 148480, Tempo, 1000000
2, 148480, Tempo, 1000000
2, 148481, End_track
0, 0, End_of_file
